<?xml version="1.0" standalone="no"?>
<!DOCTYPE svg PUBLIC "-//W3C//DTD SVG 1.1//EN" "http://www.w3.org/Graphics/SVG/1.1/DTD/svg11.dtd">
<svg xmlns="http://www.w3.org/2000/svg">
<metadata>Copyright (C) 2025 by original authors @ fontello.com</metadata>
<defs>
<font id="fontello" horiz-adv-x="1000" >
<font-face font-family="fontello" font-weight="400" font-stretch="normal" units-per-em="1000" ascent="850" descent="-150" />
<missing-glyph horiz-adv-x="1000" />
<glyph glyph-name="down" unicode="&#xe800;" d="M0 674c0 45 18 89 51 123 68 68 181 68 249 0l533-526 533 528c69 68 181 68 249 0 69-68 69-179 0-247l-657-652c-34-33-77-50-125-50-47 0-91 19-124 50l-658 651c-33 34-51 80-51 123z" horiz-adv-x="1667" />

<glyph glyph-name="email" unicode="&#xe801;" d="M496 850h230c102 0 183 0 248-9 66-9 122-28 167-72 5-6 11-12 15-17l-29-29 0-1c-5-4-85-85-192-165-53-40-112-78-169-107-58-28-111-44-155-44-43 0-96 16-155 44-57 29-116 67-169 107-106 80-187 161-192 165l0 1-29 29c5 5 10 11 15 17 45 44 101 63 168 72 64 9 146 9 247 9z m-480-206c-3-14-5-28-7-43-9-64-9-146-9-247v-8c0-101 0-183 9-247 9-67 28-123 72-168 45-44 101-63 168-72 64-9 146-9 247-9h230c102 0 183 0 248 9 66 9 122 28 167 72 44 45 64 101 73 168 8 64 8 146 8 247v8c0 101 0 183-8 247-2 15-5 29-8 43l0 0c-6-6-92-92-204-176-57-42-121-85-187-117-65-32-136-57-204-57-68 0-139 25-204 57-65 32-130 75-186 117-113 84-198 170-205 176l0 0z" horiz-adv-x="1222" />

<glyph glyph-name="facebook" unicode="&#xe802;" d="M1000 347c0-251-183-459-422-497v351h116l22 145h-138v94c0 39 19 78 81 78h63v124c0 0-57 9-112 9-113 0-188-69-188-195v-110h-126v-145h126v-351c-239 38-422 246-422 497 0 278 224 503 500 503 276 0 500-225 500-503z" horiz-adv-x="1000" />

<glyph glyph-name="gra-secure" unicode="&#xe803;" d="M0 349c0 0 2 1 2 1 4 20 15 38 31 50 16 13 36 19 56 17h422c-2 4-2 6-4 9-26 55-40 116-40 177 0 45 0 89 0 134 0 6 1 12 3 17 2 6 5 11 9 15 4 4 9 8 14 10 5 2 11 4 17 4 59 2 117 16 170 41 15 8 29 18 43 26h21c15-9 29-18 44-26 53-25 110-39 169-42 6 0 12-1 17-3 5-3 10-6 14-10 4-4 7-9 9-15 2-5 3-11 3-17 0-45 0-90 0-135 0-20-2-40-5-60-13-90-56-174-122-237-2-2-4-5-5-7-1-3-1-6-1-9 0-37 0-73 0-110 0-82 0-163 0-244 0-12-2-22-6-33-4-10-10-19-18-27-8-8-17-14-27-19-10-4-21-6-32-6h-702c-16 0-33 6-46 15-14 10-24 23-30 39-2 6-4 11-6 17l0 428z m833-80c-3-2-6-4-9-6-24-14-47-28-71-42-5-3-12-4-18-4-7 0-13 1-19 4-73 33-136 87-180 155-2 3-4 5-7 6-2 2-5 3-9 2h-431c-7 1-15 0-22-2-7-3-13-7-19-12-5-5-9-12-12-19-2-7-3-14-3-22v-390c0-8 1-15 3-22 3-7 7-14 12-19 6-5 12-9 19-12 7-2 15-3 22-2h688c12-1 24 1 34 8 8 5 14 12 18 20 4 8 6 17 5 26 0 107 0 214 0 320 0 4 0 7-1 11z m-333 393h-2c1-40 3-80 8-120 10-63 35-122 73-172 39-51 90-91 148-117 2-1 4-1 7-1 2 0 4 0 6 1 63 28 116 72 156 128 39 55 63 121 68 189 6 55 2 111 3 166 0 2 0 4-1 5 0 2-1 3-2 4-1 2-2 3-4 3-1 1-3 1-5 1-13 1-26 2-40 4-62 5-121 26-174 61-2 2-5 3-8 3-3 0-6-1-8-3-9-7-19-13-28-18-56-28-118-44-180-47-15 0-17-2-17-17l0-70z m-366-462c-13 0-25 5-35 14-9 9-15 21-15 34-1 12-1 24 0 36 0 6 1 13 3 19 3 6 6 12 11 17 5 4 10 8 16 10 7 3 13 4 20 4 22 0 44 0 66 0 7 0 14-1 20-4 7-2 12-6 17-11 5-5 8-11 11-18 2-6 3-13 2-20 0-10 0-21 0-31 0-13-5-25-14-35-9-9-21-14-34-15-11 0-23 0-35 0h-33z m33 100c-11 0-22 0-33 0-2 0-5 0-7-1-2-1-4-2-5-3-2-2-3-4-4-6-1-2-1-5-1-7 0-10 0-21 0-31 0-2 0-5 1-7 1-2 2-4 3-6 2-2 4-3 6-4 2 0 4-1 7-1 22 0 44 0 66 0 2 0 4 1 7 1 2 1 3 2 5 4 2 2 3 3 4 6 0 2 1 4 1 6 0 11 0 21 0 32 0 3-1 5-2 7 0 2-2 4-4 6-1 2-3 3-6 3-2 1-4 1-7 1-10 0-20 0-31 0h0z m584-333c0 23 0 44 0 66-1 2 0 5 1 8 1 3 3 5 6 7 2 1 5 2 8 2 3 1 6 0 8-1 3-2 5-5 6-7 2-3 3-6 3-9 0-27 0-54 0-81 1-2 0-5 0-7-1-3-2-5-4-7-2-1-4-3-6-3-3-1-5-2-8-1-32 0-65 0-97 0-2-1-5 0-7 0-2 1-4 2-6 4-1 2-3 3-4 6 0 2-1 4-1 6 0 3 1 5 2 7 0 2 2 4 4 6 1 2 3 3 6 4 2 0 4 0 7 0l82 0z m-647-17c-13 0-21 7-21 17 0 11 7 17 21 17h110c12 0 20-7 21-17 1-10-8-17-21-17h-110z m430 201c11 0 21 0 31 0 3 0 5 0 7-1 3-1 5-2 6-3 2-2 4-4 5-6 1-2 1-5 1-7 0-2 0-5-1-7-1-2-3-4-4-5-2-2-4-3-6-4-2 0-5-1-7-1-21 0-43 0-64 0-3 0-5 0-7 1-2 1-4 2-6 4-2 1-3 3-4 5-1 2-1 4-1 7 0 2 0 4 1 7 1 2 2 4 4 5 2 2 4 3 6 4 2 1 5 1 7 1h32v0z m-400 0c10 0 20 0 31 0 2 0 5 0 7-1 2 0 4-2 6-3 2-2 3-4 4-6 1-2 2-5 2-7 0-2-1-5-2-7-1-2-2-4-4-6-2-1-4-2-6-3-2-1-5-1-7-1-21 0-42 0-63 0-2 0-4 0-7 1-2 1-4 2-6 3-2 2-3 4-4 6-1 2-2 5-2 7 0 2 1 5 2 7 1 2 2 4 4 6 2 1 4 3 6 3 3 1 5 1 7 1 11 0 21 0 32 0z m268 0c10 0 21 0 31 0 2 0 4 0 6-1 2-1 4-2 6-4 1-1 3-3 4-5 0-2 1-5 1-7 0-2-1-4-1-6-1-2-3-4-4-6-2-1-4-3-6-3-2-1-4-2-6-2-22 0-43 0-64 0-3 0-5 0-7 1-2 1-4 2-6 4-2 1-3 3-4 5-1 2-1 5-1 7 0 2 0 5 1 7 1 2 2 4 4 6 2 1 4 2 6 3 2 1 5 1 7 1 10 0 21 0 33 0z m265 0c11 0 21 0 31 0 3 0 5 0 7-1 2 0 5-1 6-3 2-2 4-3 5-6 1-2 1-4 1-6 0-11-7-18-19-18-20 0-41 0-62 0-13 0-20 7-20 17 0 11 8 17 20 17l31 0z m-400-34c-10 0-21 0-31 0-10 0-19 7-19 17 0 3 1 5 2 7 1 2 2 4 4 6 2 1 4 3 6 3 2 1 5 1 7 1 21 0 42 0 62 0 12 0 19-7 19-17 0-10-7-17-20-17-12-1-20 0-30 0z m-75-100c-8 0-16 0-24 0-2 0-4 0-6 1-2 0-4 1-6 3-2 2-3 3-4 6-1 2-2 4-2 6 0 2 1 5 1 7 1 2 3 4 4 6 2 1 4 3 6 3 2 1 4 2 7 1 16 0 32 0 48 0 3 0 5 0 7-1 2-1 4-2 6-4 2-1 3-3 4-5 0-2 1-5 1-7-1-5-3-9-6-12-4-3-8-5-13-4h-23z m342 619v50c-1 9 2 17 8 24 6 7 14 11 23 12 53 6 105 22 152 47 5 3 11 4 17 4 6 0 12-1 17-4 48-25 99-41 152-47 5-1 9-2 13-4 4-2 7-5 10-8 3-4 5-7 7-12 1-4 2-8 1-13 0-37 0-74-2-111-6-86-44-166-108-224-22-19-46-37-71-53-5-4-12-6-19-6-7 0-14 2-20 6-48 27-90 65-121 111-30 46-50 99-57 154-3 24-2 49-3 74l1 0z m368-15c0 24 0 41 0 59 0 5-2 7-7 8-54 7-106 23-154 48-2 1-4 1-6 1-2 0-4 0-6-1-49-25-101-41-155-48-1-1-3-2-4-3-1-1-1-2-2-4-1-40 0-80 4-120 6-48 23-95 50-135 27-41 63-75 106-99 2-1 4-2 7-2 3 0 5 1 7 2 48 28 88 68 116 116 31 54 46 115 44 178z m-218-19c3 45 17 65 49 65 8 1 16-1 23-5 7-3 14-9 18-15 9-14 13-30 10-46 26-6 34-16 34-42 0-30 0-59 0-89 0-5-1-10-2-15-2-4-5-9-8-12-3-4-8-6-12-8-5-2-10-2-15-2-31 0-62 0-95 0-5 0-9 1-14 3-4 1-8 4-11 8-4 3-6 7-8 12-1 4-2 9-1 14 0 31 0 61 0 92-1 5-1 9 0 14 2 5 4 9 7 13 3 3 7 6 11 9 4 2 9 3 14 4z m0-134h98v99h-97l-1-99z m65 133c0 12 4 24-8 30-3 2-6 2-9 2-3 0-6 0-8-2-11-7-7-18-7-29l32-1z m2-83c0-2-1-5-1-7-1-2-2-3-4-5-1-2-3-3-5-4-2-1-4-1-7-1-2 0-4 0-6 1-2 1-4 2-5 3-2 2-3 4-4 6-1 2-1 4-1 6-1 2 0 4 0 6 1 3 2 4 4 6 1 2 3 3 5 4 2 1 4 1 7 1 4 0 8-1 11-4 4-4 6-8 6-12z" horiz-adv-x="1000" />

<glyph glyph-name="gra-tyre-fit" unicode="&#xe804;" d="M387-150v97h64v96h32v97h-161c0 5 0 8 0 11 1 17 0 35-2 52-3 20-13 37-29 50-16 12-36 18-56 17-20-2-38-11-52-26-13-14-21-34-21-54 0-16 0-32 0-50h-108c-8 0-15 1-22 3-6 2-13 6-18 11-5 6-9 12-11 18-3 7-4 14-3 22 0 28 0 57 0 86-1 29 9 57 28 79 19 23 45 37 74 40 53 8 105 19 157 29 4 2 8 5 10 9 20 32 39 64 58 96 10 19 25 34 44 45 18 10 39 15 60 14h237c20 1 41-4 59-14 18-10 33-25 43-43 18-32 37-64 56-95 2-4 5-7 8-9 4-2 8-3 12-3 12-1 23-2 34-5 26-6 48-20 64-40 16-21 25-46 24-73 0-20 0-40 0-62v-10c7-1 14-3 20-8 5-4 10-10 12-16v-48c-3-9-9-15-16-20-7-4-16-6-25-5-28 1-57 0-86 0-4 1-8 0-11-2-3-2-6-4-7-7-9-16-22-29-38-38-15-10-32-16-50-17-18-1-36 2-53 9-16 7-31 18-43 32-8 24-28 25-49 23-13-1-26 0-41 0v-98h32v-96h65v-97l-291 0z m-353 420v-32h9c29 0 59 0 88 0 3 0 6 0 8 2 2 1 4 3 5 6 9 15 21 28 36 38 14 9 31 15 49 17 17 2 35 0 52-6 16-6 31-16 43-29 2-2 5-5 8-8 0 5 0 8 0 12 0 47 0 93 1 140 1 6 2 12 5 17 14 24 29 49 44 73 5 9 11 16 20 21 9 5 18 7 28 7 77 0 154 0 231 0 11 0 21-2 30-8 9-6 16-14 21-24 11-24 23-47 35-70 2-5 3-10 3-15 0-33 0-66 0-99 0-3 0-7 0-11h11c17 1 35-4 50-12 15-9 28-21 38-36 3-6 8-10 14-13 6-3 13-4 19-3 18 1 35 0 52 0v32c-25 0-50-3-71 14-10 8-17 18-21 30-4 11-5 24-3 36 25-3 51 4 71 20-10 11-23 18-37 21-17 3-35 5-53 7-2 0-5 1-7 3-2 1-4 3-5 5-22 37-44 74-66 111-7 13-18 24-31 32-13 7-28 11-44 10-78 0-156 0-235 0-16 1-32-3-46-11-14-7-25-19-33-33-21-37-42-72-64-108-3-4-7-7-12-8-51-11-102-21-154-30-13-2-26-5-39-8v-2c19-8 40-11 61-9 2-10 2-21-1-30-2-10-7-19-14-27-6-8-15-14-24-17-9-4-20-6-30-6-14 1-27 1-42 1z m332-32h181v160h-181v-160z m215 0c23 0 45 0 67 0 3 0 5 0 7 2 2 1 4 3 5 5 11 21 29 38 51 47 2 1 4 3 6 5 1 2 2 4 1 7 0 29 0 57 0 86 0 3 0 6 0 9h-137v-161z m257-48c0 21-8 42-23 57-15 15-36 23-57 23-21 0-42-8-57-23-15-15-23-36-23-57 0-22 8-42 23-57 15-15 36-24 57-24 21 0 42 9 57 24 15 15 23 35 23 57z m-290 240v65c-41 0-82 0-123 0-5-1-10-4-12-9-7-9-13-18-18-28l-16-28h169z m97-258v32h-291l2-31 289-1z m-64 323c0-19 0-37 0-55 0-7 2-9 9-9 37 0 73 0 110 0 3 0 5 0 8 0-10 19-19 37-28 55-2 2-4 4-6 5-2 1-4 2-7 2-28 2-57 2-86 2z m-162-611h225v30h-225v-30z m65 64h95v63h-94l-1-63z m32 97h31v95h-30l-1-95z m354 128h96v31h-95l-1-31z m-838 31v-14c0-2 0-5 1-7 0-2 1-3 3-5 1-1 3-3 5-3 2-1 4-2 6-2 26 0 53 0 81 0v32h-86l-10-1z m76 113l-59 19c-8-10-13-22-15-35 26 5 54-9 74 16h0z m822 25l-54-24c7-15 34-22 60-14l-6 38z m70 350c-2-6-4-12-6-18-7-16-17-29-31-37-14-9-30-14-47-13h-608c-3 0-6 0-9-2-3-1-5-3-7-6-14-19-33-34-54-44-22-10-46-14-69-13-24 2-47 9-67 21-20 12-37 29-50 50-5 8-9 17-15 26h122v96h-122c10 21 23 40 39 56 14 15 32 26 51 33 20 7 40 10 61 9 20-2 40-8 59-18 18-9 33-23 46-39 2-3 4-5 7-6 2-1 5-2 8-2h602c20 2 41-3 57-15 16-12 27-30 31-50 0 0 1 0 2-1v-27z m-226-3h-484c3 29-5 58-21 81-18 25-44 41-74 46-17 3-34 2-51-4-16-5-31-14-43-27h92v-162h-93c5-3 7-6 10-8 13-10 27-16 43-20 15-4 31-4 47-1 15 3 30 10 43 19 13 9 24 21 32 35 1 3 3 5 6 7 3 1 6 2 9 2h632c7 0 13 1 19 4 6 3 11 7 16 11 4 5 8 11 10 17 2 6 3 13 2 20 0 6-2 12-5 18-3 6-7 11-12 15-6 5-11 8-18 9-6 2-13 3-19 2h-600l8-32h451v-32z m-690-839l-5 3c-12 3-23 10-32 20-8 10-13 22-14 35-2 15-2 31 0 46 2 16 9 31 20 41 12 11 27 17 43 17 65 0 130 0 195 0 9 0 17-2 25-5 8-4 15-9 21-15 6-6 11-13 14-21 3-8 4-16 4-25 0-10 0-21 0-32 0-14-4-27-13-38-8-11-19-19-32-23l-7-3-219 0z m206 33c4 0 8 1 13 2 4 2 7 4 10 7 4 4 6 7 8 11 1 5 2 9 1 13 0 10 0 20 0 30 1 4 0 9-2 13-1 4-4 8-7 11-3 3-6 5-11 7-4 2-8 2-12 2h-192c-4 0-9 0-13-2-4-2-8-4-11-7-3-3-5-7-7-11-2-4-2-8-2-13 0-9 0-18 0-27-1-5 0-10 1-14 2-5 4-9 8-13 3-3 7-6 12-7 5-2 9-2 14-2h190z m468 354c6 0 12-1 18-3 6-3 12-6 16-11 5-4 8-10 10-16 3-5 4-12 4-18 0-6-1-13-4-19-2-5-5-11-10-15-4-5-10-8-16-11-6-2-12-3-18-3-13 0-25 5-34 14-9 9-14 21-14 34 0 13 5 25 14 34 9 9 21 14 34 14z m16-48c0 2-1 4-1 6-1 2-2 3-4 5-1 1-3 3-5 3-1 1-3 2-6 2-2 0-4-1-6-1-2-1-3-2-5-4-2-1-3-3-4-5-1-2-1-4-1-6 0-4 2-8 5-11 3-3 7-5 11-5 4 0 8 2 11 5 3 3 5 7 5 11z m33 500v31h31v-31h-31z m64 0v31h32v-31h-32z m-762-759l-23 20 23 23 41-41-43-43-21 22 23 19z m80 2l-23 18 22 22 41-40-41-41-22 22 23 19z m80-1l-22 18 23 21 41-41-41-41-22 24 21 19z" horiz-adv-x="1000" />

<glyph glyph-name="gra-tyre-fitting" unicode="&#xe805;" d="M306 126v175h-176c-6-13-8-15-24-15-29 0-58 0-87 0-14 0-19 5-19 19 0 31 0 61 0 91 0 13 6 19 19 19h90c14 0 17-3 22-16h176v176c-13 5-16 8-16 21 0 30 0 59 0 89 0 13 6 19 19 19h92c12 0 18-6 18-19v-87c0-16-2-19-16-24v-176h177c3 19 18 16 33 16v367c-1 9 0 18 3 27 4 9 9 17 15 23 7 7 15 12 23 15 9 3 18 5 28 4h248c9 1 18-1 27-4 9-3 17-8 23-15 7-6 12-14 15-23 3-9 5-18 4-27v-862c1-9-1-18-4-27-3-8-8-16-14-23-7-7-15-12-24-15-8-3-17-5-27-4h-250c-9 0-18 1-27 4-8 4-16 8-22 15-7 6-12 14-15 22-3 9-4 18-4 27v367c-13 2-30-4-32 17h-177v-177c13-2 16-11 16-24 0-28 0-57 0-85 0-15-6-21-21-21h-89c-14 0-19 6-19 21v88c0 14 2 18 15 22z m614-242c31-5 48 10 48 42 0 283 0 567 0 851 1 6 0 13-2 18-2 6-6 11-11 15-5 4-11 6-17 7-6 1-12 0-18-2l0-931z m-226 933c-33 4-49-11-48-43 1-116 0-231 0-347v-12h48v402z m0-934v402h-49v-268c0-33 0-66 0-99 0-5 1-10 2-14 2-4 4-8 8-11 3-3 7-6 11-8 4-1 9-2 13-2l15 0z m-114 483h-450v-31h450v31z m-209 33v176h-32v-176h32z m-32-97v-176h31v176h-31z m337 80h-62v-63h62v63z m-580 0h-63v-63h64l-1 63z m227 290v-63h63v63h-63z m0-643h63v62h-63v-62z m500 577c0-7 0-14 0-21-3-11-2-22 3-33 5-10 13-18 23-23 13-10 26-20 38-31 0 18 0 34 0 51 0 2-1 3-2 5l-62 52z m-97-205l63 52c0 1 1 2 1 3v53l-61-51c-2-2-3-5-3-8 0-15 0-31 0-49h0z m97 108c0-17 0-32 0-47 0-5 2-9 5-12 18-15 36-29 53-44 2-1 4-3 6-3-1 6-1 12 0 19 2 10 1 22-4 32-4 9-12 18-22 23-13 10-26 20-39 32h1z m-32-97l-62-51c-1-1-2-3-3-5 0-16 0-33 0-52 21 19 42 35 62 52 1 1 1 2 2 3 0 1 0 2 1 3-1 16-1 31-1 50h1z m32 0c0-8 0-17 0-26-2-9-1-18 2-26 4-9 11-16 19-20 14-10 27-23 43-35 0 18 0 34 0 50 0 2-1 4-2 5-20 17-40 33-63 52h1z m-33 387c-21-18-41-34-60-51-2-1-4-3-4-5 0-17 0-33 0-52l63 52c1 1 1 3 1 5 0 17 0 33 0 51z m-64-591l61 51c1 1 2 1 2 2 1 1 1 3 1 4 0 16 0 32 0 51l-63-53c-1-1-2-3-2-5l1-50z m161 0c0 17 0 32 0 47 0 4-2 8-5 11-13 12-27 23-40 33-6 5-12 10-19 16v-50c0-2 1-4 2-5l62-52z m0 483c-1 9-1 18 0 27 2 9 1 18-3 26-3 8-10 15-18 20-15 9-28 22-43 35 0-18 0-35 0-51 0-1 0-2 0-3 1-1 1-1 2-2l62-52z m-97 11c-21-18-41-34-62-51-1-1-2-2-2-3-1 0-1-1-1-2 0-17 0-33 0-52l63 52c1 2 2 4 2 7 0 15 0 31 0 49z m32 0c1-9 1-18 0-27-1-8 0-17 3-26 4-8 11-14 18-19 15-10 29-23 44-36 0 19 0 35 0 51 0 2 0 4-2 5-20 17-40 34-63 53v-1z m-96-591l61 51c2 2 3 4 3 6 0 16 0 32 0 51l-63-52c-1-2-2-4-2-5l1-51z m161 0c-1 6-1 12 0 19 3 11 1 23-4 34-5 11-13 19-24 25-13 9-25 19-37 30 0-19 0-35 0-51 0-2 1-4 3-5l62-52z m-161-97l62 52c1 1 2 2 2 2 1 1 1 2 1 3 0 16 0 33 0 51l-63-52c-1-1-2-4-2-6l0-50z m96 108c0-18 0-32 0-47 1-5 3-9 6-12 17-15 34-29 51-43 2-2 5-3 8-5-1 8-1 17 0 25 2 9 1 18-3 27-4 8-10 15-18 19-15 11-28 23-44 36z m-32 484c-21-19-41-35-62-52-1-1-2-1-2-2-1-1-1-2-1-3 0-16 0-33 0-51l63 52c1 2 2 4 2 6 0 16 0 31 0 50z m0-580c-22-19-41-36-62-52-1-1-2-3-2-4 0-17 0-33 0-52 21 18 42 34 61 51 2 2 3 5 3 8 1 15 0 30 0 49z m32 0c1-7 1-14 0-20-2-11-1-23 4-34 5-10 13-18 23-24 14-9 26-19 38-30 0 18 0 34 0 50 0 2-1 4-2 6-21 17-41 33-63 52v0z m-32-98l-54-44h54v44z m87-45l-54 45v-45h54z m-150 934v-29l34 29h-34z m125 0l35-28v28l-35 0z" horiz-adv-x="1000" />

<glyph glyph-name="gra-tyre-online" unicode="&#xe806;" d="M974 493c14-20 20-45 18-70 0-45 0-91 0-136 4-27-3-55-18-79 12 0 25-2 36-8 11-5 21-12 30-21 15-16 23-37 23-59 0-60 0-121 0-182 0-23-9-46-26-62-16-17-38-26-62-26h-178v37h174c7-1 14 0 21 3 7 2 13 6 18 11 6 5 10 11 13 18 2 7 4 14 4 21h-11c-123 0-247 0-371 0-6 0-12-2-17-6-25-15-48-31-72-46h132v-36h-11-292c-94 1-185 37-255 101-70 63-115 150-127 244-12 94 11 189 64 267 52 79 132 136 223 160 25 7 51 10 79 15v123c0 12 2 23 6 34 5 11 12 21 20 29 8 8 18 14 29 19 11 4 22 6 34 6h516c12 0 23-2 34-6 11-5 21-11 29-20 9-8 15-18 20-29 4-11 6-22 6-34 0-58-1-115 0-172 1-25-8-49-25-66-16-18-39-29-64-30z m-944-249c0-71 21-140 60-199 40-59 95-105 160-132 65-27 137-34 206-20 69 14 133 48 182 98 50 50 84 114 98 183 14 69 7 141-20 207-27 65-73 121-132 160-58 39-127 60-198 60-94 0-184-38-251-105-67-67-104-157-105-252h0z m375 447h622v36h-230v35h230c0 7-2 15-5 21-2 7-7 13-12 18-5 5-12 9-19 12-6 2-14 3-21 2h-514c-14 0-27-6-36-16-10-10-15-23-15-37h354v-36h-354v-35z m0-52l85-16c7-2 15-3 23-4h514v35h-622v-15z m181-56c12-9 22-16 33-22 12-12 26-22 41-30 17-3 34-3 52 0 85 0 171 0 258 0 7-1 14 0 21 3 7 2 13 6 18 11 5 5 10 11 12 18 3 6 5 14 5 21l-440-1z m441-464c0 7-1 14-4 21-3 7-7 13-12 18-5 5-11 9-18 11-7 3-14 4-21 4h-193c-3 0-5 0-7 0l-13-52 268-2z m-71 321c0 7-2 14-4 21-3 7-7 13-12 18-5 5-11 9-18 11-7 3-14 4-21 4h-204-6c10-16 21-30 30-45 1-3 3-5 6-7 3-1 6-2 9-1 69 0 137 0 206 0l14-1z m-281-464h351v35h-317c-4 0-7-1-9-3-8-11-16-21-25-32z m352 107h-273c-2 0-4 0-6-1-2-1-4-2-5-3-6-10-11-20-16-31h300v35z m-249 125c44 0 86-1 129 0 7 0 13 2 19 5 6 3 12 7 16 12 5 4 8 10 10 16 2 7 3 13 3 20h-177v-53z m178 196h-211c3-9 7-17 9-25 0-2 1-3 2-5 1-1 2-3 3-3 1-1 3-2 4-2 2-1 4-1 5 0h178c3 0 6 0 10 0v35z m0-106v34h-187l7-34h180z m-230-448v32h32v-32h-32z m-631 395c0 57 17 113 49 161 31 47 77 84 129 106 53 22 112 28 168 17 56-11 107-39 148-80 40-40 68-92 79-148 11-56 6-114-16-167-22-53-59-98-107-130-48-32-103-49-161-49-38 0-75 8-111 22-35 15-67 36-93 63-55 54-85 128-85 205z m86 152l9-9 74-74c3-2 5-6 6-10 1-4 1-8 0-12-2-4-5-7-9-9-3-2-7-3-11-2-35 0-70 0-104 0h-13v-73h116c4 1 8 0 12-1 4-2 7-5 9-9 1-4 1-8 0-12-1-4-4-8-7-10l-73-74-9-9 50-50c28 28 55 53 81 80 7 7 14 13 24 9 11-4 12-14 12-24 0-33 0-67 0-100v-13h72v14c0 34 0 67 0 102 0 9 2 17 11 22 4 1 9 1 13 0 4-2 7-4 10-7 13-14 27-28 40-41 14-14 27-27 41-42l51 51-5 6-77 76c-3 2-6 6-7 10-1 4 0 8 1 12 2 3 5 7 8 8 3 2 7 3 11 3 18 0 35 0 52 0h66v72h-14c-35 0-70 0-105 0-8 0-16 3-18 11-1 7 1 14 5 20 7 9 14 17 22 24l61 61-50 51-10-9c-22-23-46-47-69-70-8-8-15-15-27-10-11 5-11 15-11 25 0 33 0 67 0 99v13h-71v-14c0-33 0-66 0-98 0-10 0-20-11-25-11-5-19 2-27 10-23 23-46 46-69 70l-10 9-50-51z m130 26v65l-45-19 45-46z m191 46l-45 19v-65l45 46z m-298-152l-44 45-19-45h63z m404 45l-44-45h62l-18 45z m-402-189h-65l19-47 46 47z m357 0l45-45 19 45h-64z m-252-106l-46-46 46-19v65z m189-47l-44 45v-63l44 18z m-58 220c0-10-3-21-8-29-6-9-14-16-24-20-9-4-20-5-30-3-10 2-20 7-27 14-8 7-13 17-15 27-2 10-1 20 3 30 4 10 10 18 19 24 8 6 18 9 29 9 7 0 14-1 20-3 7-3 13-7 18-12 5-5 8-10 11-17 3-6 4-13 4-20z m-53 17c-5 0-9-2-12-6-4-3-5-7-5-12 0-5 1-9 5-12 3-4 7-5 12-5 5 0 9 1 12 5 4 3 6 7 6 12 0 5-2 9-6 12-3 4-7 6-12 6z m11 88v-32h-32v32h32z m-84-84v-32h-32v32h32z m137-32v32h42v-32l-42 0z m-85-95v32h32v-32h-32z" horiz-adv-x="1080" />

<glyph glyph-name="ig" unicode="&#xe807;" d="M750 850h-500c-138 0-250-112-250-250v-500c0-138 112-250 250-250h500c138 0 250 112 250 250v500c0 138-112 250-250 250z m-250-750c-138 0-250 112-250 250 0 138 112 250 250 250 138 0 250-112 250-250 0-138-112-250-250-250z m268 469c-28 0-50 23-50 50 0 28 22 50 50 50 27 0 50-22 50-50 0-27-23-50-50-50z m-268-369c83 0 150 67 150 150 0 83-67 150-150 150-83 0-150-67-150-150 0-83 67-150 150-150z" horiz-adv-x="1000" />

<glyph glyph-name="news" unicode="&#xe808;" d="M441 462c17-12 22-36 10-53l-213-305c-8-11-20-17-32-17-8 0-15 2-22 7-18 12-22 35-10 53l213 305c12 17 36 22 54 10z m470-176c9-9 13-21 11-33-2-12-10-23-21-28l-247-125 11-11c19-18 27-45 23-71-4-26-20-48-44-60l-194-98c-13-7-27-10-41-10-23 0-46 9-63 26l-46 45-94-48c-10-5-21-8-33-8-18 0-37 7-51 21l-101 99c-22 23-27 56-13 84l357 684c6 11 16 18 28 20 13 2 25-2 34-10l484-477z m-329-223l-209-106 28-27c3-4 9-5 14-2l194 98c1 1 3 2 3 4 0 2 0 4-2 5l-28 28z m237 206l-409 403-331-635 96-94 644 326z m-13 352c10 0 20 4 28 11l155 153c15 15 15 39 0 54-15 15-40 15-55 0l-155-153c-15-15-15-39 0-54 7-7 17-11 27-11z m191-100c-8 19-30 29-50 21l-97-38c-20-8-30-30-22-50 7-15 21-24 36-24 5 0 10 1 15 3l97 38c20 8 29 30 21 50z m-399 160c5-2 10-3 14-3 16 0 30 9 36 24l39 96c8 19-2 41-21 49-20 8-43-1-51-21l-39-95c-7-20 2-42 22-50z" horiz-adv-x="1000" />

<glyph glyph-name="arrow-right" unicode="&#xe809;" d="M140-90l-80 80 370 360-370 360 80 80 430-440z" horiz-adv-x="600" />

<glyph glyph-name="offer-tag" unicode="&#xe80a;" d="M398 176l138 415c5 15-3 31-19 37-15 5-32-4-37-19l-138-414c-5-16 3-32 19-37 3-1 6-2 9-2 12 0 24 8 28 20z m207 129c48 0 87 39 87 88 0 48-39 87-87 87-49 0-88-39-88-87 0-49 39-88 88-88z m0 117c16 0 29-13 29-29 0-17-13-30-29-30-17 0-30 13-30 30 0 16 13 29 30 29z m-332 58c-48 0-88-39-88-87 0-49 40-88 88-88 49 0 88 39 88 88 0 48-39 87-88 87z m0-117c-16 0-29 13-29 30 0 16 13 29 29 29 16 0 29-13 29-29 0-17-13-30-29-30z m721 124l-102 136 4 28c1 9-2 18-8 25l-62 62 62 62c11 11 11 30 0 41-12 12-30 12-42 0l-62-62-62 62c-7 7-16 10-25 9l-290-42c-6-1-12-3-16-8l-360-359c-42-42-42-110 0-152l304-304c7-6 13-11 21-16v-12c0-59 48-107 107-107h430c59 0 107 48 107 107v512c0 7-2 13-6 18z m-921-157c-19 20-19 50 0 70l352 352 266 38 52-52-42-42-20 21c-12 12-30 12-42 0-11-11-11-30 0-41l83-83c6-6 13-9 21-9 7 0 15 3 20 9 12 11 12 30 0 41l-20 21 41 41 52-51-38-266-352-352c-9-10-22-15-35-15-13 0-25 5-34 15l-304 303z" horiz-adv-x="1000" />

<glyph glyph-name="calendar" unicode="&#xe80b;" d="M949 26c-20-42-63-69-111-69l-737 0v-38c0-38 30-69 68-69h814c37 0 68 31 68 69v373c-26-94-67-195-102-266l0 0z m-793-14h682c26 0 51 15 62 39 52 99 138 347 147 503-128 0-776 0-913 0-7-131-36-301-123-436-30-43 4-108 57-106 19 0 68 0 88 0l0 0z m22 143l19 76c5 18 21 30 39 30h77c25 1 45-25 38-49-3-10-17-82-25-89h-141c-7 9-9 21-7 32z m519 227l19 76c4 18 20 30 39 30h76c26 1 46-25 39-49l-19-76c-4-18-20-30-39-30h-76c-26-1-46 25-39 49z m-53-227l19 76c4 18 20 30 39 30h76c26 1 46-25 39-49-4-10-18-82-25-89h-142c-6 9-9 21-6 32z m-180 227l19 76c5 18 21 30 39 30h77c25 1 45-25 38-49l-19-76c-4-18-20-30-38-30h-77c-25-1-46 25-39 49z m-53-227l19 76c5 18 21 30 39 30h77c25 1 45-25 38-49-3-10-18-82-25-89h-142c-6 9-9 21-6 32z m-161 303c5 18 21 30 39 30h77c25 1 45-25 38-49l-19-76c-4-18-20-30-38-30h-77c-12 0-24 5-31 15-8 10-11 22-8 34l19 76z m801 172c-1 60 11 154-72 157h-37c0-10 1-46-1-55-6-47-46-82-94-82h-22c-48 0-88 36-94 82-1 9-1 45-1 55h-44c0-10 2-46-1-55-6-46-46-82-93-82h-23c-53 0-95 44-95 95v42h-43v-42c0-51-42-95-95-95h-23c-52 0-95 44-95 95v42h-15c-38 1-71-34-68-72 1-27 2-63 2-106 27 0 83 0 110 0 76 0 746 0 803 0h1c0 3 1 18 0 21l0 0z m-738 75h23c41 2 45 46 39 77v29c0 21-17 39-39 39h-23c-21 0-39-18-39-39 0-15 0-51 0-66 0-21 17-40 39-40z m256 1h23c17 0 31 10 37 26 4 8 1 45 2 55v24c0 22-18 39-39 39h-23c-22 0-39-17-39-39-1-15 0-51 0-66-1-21 17-40 39-39z m217 32c4-19 19-32 39-32h22c18 0 32 10 37 26 5 8 2 45 3 55v24c0 22-18 39-40 39h-22c-22 0-40-18-40-39v-29c-2-15-4-30 1-44z m-549-577h45l11 45h-45l-11-45z m289 45h-45l-11-45h44l12 45z m233 0h-45l-11-45h44l12 45z m52 227h-44l-12-45h45l11 45z m-232 0h-45l-11-45h44l12 45z m-233 0h-45l-11-45h45l11 45z" horiz-adv-x="1100" />

<glyph glyph-name="quote" unicode="&#xe80c;" d="M0 779v-551c0-208 168-378 375-378h74c13 0 24 11 24 24v214c0 13-11 24-24 24h-72c-64 0-117 53-117 118v72h213c39 0 70 32 70 71v406c0 39-31 71-70 71h-403c-38 0-70-32-70-71z m756 71h402c39 0 71-32 71-71v-406c0-39-32-71-71-71h-213v-72c0-65 53-118 117-118h72c13 0 24-11 24-24v-214c0-13-11-24-24-24h-73c-207 0-376 170-376 378v551c0 39 32 71 71 71z" horiz-adv-x="1229" />

<glyph glyph-name="shop" unicode="&#xe80d;" d="M757 436c-12-13-26-22-41-29-16-7-33-10-49-10-17 0-34 3-50 10-15 7-29 16-41 29-11-12-25-22-41-29-15-6-32-10-49-10-17 0-33 4-49 10-15 7-29 17-41 29-11-12-25-22-41-29-15-6-32-10-49-10-16 0-33 4-49 10-15 7-29 17-41 29-11-9-23-17-36-24-13-5-26-10-40-14v-391c-2-14 2-27 10-38 7-11 19-18 31-22 8-1 16-2 24-1 126 0 252 0 379 0 6 0 13-1 19-3 6-3 11-6 15-11 4-5 6-10 7-16 1-5 0-11-2-16-1-5-4-10-8-14-4-4-9-7-15-8-5-2-10-2-16-2h-386c-29-1-57 8-80 26-22 18-38 43-45 71-2 12-3 23-3 35 0 131 0 261 0 392 0 3 0 7-2 10-2 2-4 5-7 6-18 11-34 26-44 44-11 18-17 39-17 60 0 16 0 33 0 49 0 7 2 13 4 19 25 58 49 116 74 174 11 26 29 49 53 65 23 16 51 23 80 22 183 1 366 1 550 0 29 1 57-6 81-22 24-16 42-39 52-66 25-56 49-113 73-169 4-9 5-18 5-28 1-24 0-48-4-72-5-21-16-41-30-56-15-16-34-28-55-34-20-6-42-7-63-2-21 5-41 15-57 29l-6 7z m-326 99c-2-11-1-24 4-35 5-11 13-20 24-26 9-5 20-8 30-7 11 0 21 4 30 11 9 6 15 15 19 25 4 11 4 22 2 32h-109z m362 0c-2-11-1-23 3-34 4-11 12-20 22-26 10-5 21-8 32-7 11 0 22 4 31 11 8 6 15 15 18 25 4 10 5 21 2 31h-108z m-543 0c-2-11-1-24 4-35 5-11 14-20 24-26 10-5 20-8 31-7 11 0 22 5 30 11 9 7 15 16 19 26 4 10 4 21 2 31h-110z m-180 0c-2-11-1-23 3-33 5-11 13-20 22-26 9-6 20-10 31-10 10 0 21 4 30 10 9 6 17 15 21 26 4 10 5 22 3 33h-110z m542 0c-3-12-1-24 4-36 5-11 13-20 24-26 10-5 21-7 32-6 11 1 22 5 31 12 8 7 13 16 17 25 3 10 3 21 0 31l-108 0z m160-190c107 0 187-73 198-166 6-65-12-130-50-184-30-43-67-81-110-111-7-7-16-11-25-11-9 0-19 4-25 11-68 50-124 111-150 194-22 69-18 135 28 194 16 21 36 39 59 52 23 12 49 19 75 21z m62-191c0 6-1 12-3 18-3 6-6 12-11 16-5 5-10 9-16 11-6 2-12 4-19 4-6 0-13-2-19-4-5-2-11-6-15-11-5-4-9-10-11-16-3-6-4-12-4-18 0-7 1-13 4-19 2-6 6-12 11-16 4-5 10-8 15-11 6-2 13-3 19-3 7 0 13 1 19 3 6 3 11 6 16 11 5 4 8 10 11 16 2 6 3 12 3 19z m-488-105h-97c-6-1-11 0-17 2-5 1-9 4-13 8-4 4-7 9-9 14-2 5-2 11-2 16 0 55 0 110 0 165 0 5 0 11 2 16 1 5 4 9 8 13 4 4 8 7 13 9 5 2 10 2 16 2h198c5 0 11 0 16-2 5-2 9-5 13-8 4-4 7-9 8-14 2-5 3-10 2-15v-167c0-5 0-10-2-15-2-5-5-9-8-13-4-4-8-7-13-8-5-2-10-3-15-2-33-1-67-1-100-1z" horiz-adv-x="1000" />

<glyph glyph-name="star" unicode="&#xe80e;" d="M392 674c46 117 69 176 108 176 39 0 62-59 108-176l2-6c26-66 38-99 65-119 26-20 60-23 129-30l13-1c113-10 169-16 181-53 12-37-30-76-114-155l-28-26c-42-40-63-60-73-86-2-5-3-10-5-15-6-27 0-56 13-114l3-18c23-106 35-159 15-182-8-9-17-15-28-18-29-8-70 26-151 95-54 45-81 68-112 73-12 2-24 2-36 0-31-5-58-28-111-73-82-69-123-103-152-95-10 3-20 9-28 18-20 23-8 76 15 182l4 18c12 58 18 87 12 114-2 5-3 10-5 15-10 26-31 46-73 86l-28 26c-84 79-126 118-114 155 12 37 69 43 181 53l13 1c69 7 103 10 129 30 27 20 40 53 65 119l2 6z" horiz-adv-x="1000" />

<glyph glyph-name="three-arrow" unicode="&#xe80f;" d="M78 810h354l436-448-436-448h-354l438 448-438 448z m1135 0h354l436-448-436-448h-354l438 448-438 448z m1135 0h354l436-448-436-448h-354l438 448-438 448z" horiz-adv-x="3200" />

<glyph glyph-name="tyre-btn" unicode="&#xe810;" d="M465 850h69c2 0 5-1 7-2 29-3 57-8 85-14 201-60 323-192 366-397 4-18 6-36 8-54v-68c-1-2-1-5-2-7-2-19-4-37-8-55-25-128-98-240-205-314-107-74-238-104-366-82-96 15-186 59-257 126-62 55-108 125-135 204-27 78-34 162-20 244 15 96 58 186 125 257 77 85 181 140 294 156l39 6z m34-838c68-1 133 19 189 57 56 37 100 90 125 152 26 63 32 131 19 197-14 66-47 126-95 174-48 47-109 78-175 91-66 12-135 4-196-23-62-27-114-71-151-128-36-57-54-123-53-190 3-88 39-172 102-234 63-61 147-96 235-96z m413 180c-10 0-15-7-19-15-23-52-56-99-97-138-42-40-91-70-145-89-8-4-17-6-25-9-4-1-7-4-9-7-2-3-3-7-2-11 2-6 6-11 12-15 5-1 10-1 15 1 91 29 171 85 229 161 22 29 41 62 56 96 1 2 2 5 2 8 0 3-1 7-2 9-1 3-4 5-6 7-3 1-6 2-9 2z m-822 316c10 0 15 7 19 15 25 59 64 111 113 153 31 26 66 48 103 65 6 2 11 7 13 13 1 3 0 6-1 9 0 3-2 6-4 9-5 7-14 5-21 1-71-31-133-80-181-143-22-29-41-61-55-95-2-3-3-6-3-9 0-3 1-6 2-9 1-2 3-5 6-6 3-2 6-3 9-3z m285 288c-4 0-9-2-12-5-3-3-5-8-5-12 0-5 2-9 5-13 3-3 8-5 13-5 2 0 4 0 6 1 3 1 5 2 6 4 2 2 3 4 4 6 1 2 1 4 1 7 0 2 0 4-1 6-1 3-3 4-4 6-2 2-4 3-6 4-2 0-4 1-7 1z m220-518c-4-1-8-2-12-4-19-11-38-22-57-33-3-2-6-4-8-7-3-2-5-8-7-8-10 0-20 0-30 1 0 0-2 2-2 3-11 22-36 27-55 40-2 0-4 0-6 0-17-3-22 10-29 22-4 7-7 14 0 22 3 5 5 10 4 16 0 12 0 26 0 38 0 6-1 12-4 17-2 3-3 6-3 9 0 4 1 7 3 10l6 12c3 4 5 8 12 6 5 0 9 1 13 4 18 10 37 21 55 32 2 1 7 3 7 6 5 12 15 10 24 10 10 0 17-2 21-12 2-4 5-7 9-9 12-8 24-15 37-21 4-3 10-4 15-4 9 2 13-3 17-9l7-12c3-3 4-7 4-11 0-5-1-9-4-12-3-5-4-10-4-16 0-12 0-25 0-38 0-4 0-8 2-12 13-15 0-27-6-39-1-2-5-2-7-4l-2 3z m-93 0c14 1 28 5 39 13 12 8 21 19 26 33 5 13 6 27 3 41-3 14-10 26-21 36-10 9-23 16-37 18-13 3-28 1-41-5-12-6-23-15-31-27-7-12-11-26-10-40 0-19 8-36 22-49 13-13 31-19 50-19v-1z m123 176l83 118c44-41 75-95 89-154l-53-5-86-7c-2 0-3 1-5 1-1 1-2 2-3 3-9 14-17 29-25 44z m-213 187c58 17 120 17 177 0-1-4-2-7-3-10-18-38-37-76-54-114-4-7-7-8-15-8-11 1-23 1-35 0-5 0-9-1-11 5-19 41-39 82-58 124-1 0 0 0-1 3z m-37-395l-82-118c-45 41-76 95-89 154l30 3c36 3 72 6 107 9 3 0 5 0 7-1 2-2 4-3 4-6 8-13 16-26 23-41z m-170 172c14 59 45 113 89 154l83-118c-9-15-16-30-24-44-1-1-2-2-3-3-1 0-3-1-4-1-38 3-77 6-115 10l-26 2z m385-358c-58-17-120-17-178 0 1 3 2 6 3 8 18 39 37 78 55 117 2 6 6 7 12 6 13 0 26 0 38 0 3 0 8-1 9-3 20-42 40-84 61-128z m35 186c8 15 16 30 24 43 1 2 2 3 3 3 2 1 3 1 5 2 38-3 76-6 115-10l24-2c-14-59-45-113-89-154l-82 118z m-426 72v65l158-13v-40l-158-12z m445 13v38l158 14v-65l-158 13z m-56-96l92-132-57-32-68 145 33 19z m35 394l57-33-92-132-33 19 68 146z m-302-33l56 33 69-145-33-19-92 131z m91-360l34-19-67-142-56 32 89 129z m87 150c5 0 10-1 14-3 5-2 9-4 12-7 3-4 6-8 8-12 2-4 3-9 3-14 0-9-4-18-11-25-7-7-16-10-25-10-10 0-19 3-25 10-7 7-11 16-11 25 0 5 1 10 3 14 2 4 4 8 7 11 4 4 8 6 12 8 4 2 9 3 13 3z" horiz-adv-x="1000" />

<glyph glyph-name="tyre-simple" unicode="&#xe811;" d="M833 723c-86 76-195 121-309 126-114 6-227-28-320-96-92-67-158-165-187-275-30-111-20-228 27-333 47-104 128-190 230-241 103-52 219-67 331-43 112 24 212 86 284 175 72 89 111 200 111 315 0 70-15 140-44 204-29 64-71 121-123 168z m-181 53c2 5 5 8 10 10 4 2 9 2 13 0l12-4 7-4 19-8c4-3 7-6 9-11 1-4 1-9-1-13-1-2-3-4-4-6-2-1-4-3-7-3-4-2-9-1-13 1l-10 4-7 4-18 7c-2 1-4 3-6 4-2 2-3 4-4 6-1 2-1 5-1 7 0 3 0 5 1 7v-1z m181-517c-23-85-77-157-152-204-75-46-164-62-250-45-86 18-162 67-213 138-51 72-73 160-62 247 12 87 56 166 124 222 68 55 154 83 242 77 87-5 169-44 229-108 60-64 94-149 94-237 0-30-4-60-12-89v-1z m62 313c-2-1-5-2-7-2-2-1-5 0-7 0-3 1-5 2-7 4-2 1-3 3-4 5-11 18-24 35-38 52l-7 8c-17 20-35 37-55 53-2 2-4 4-5 6-1 2-2 4-2 6 0 3 0 5 1 7 0 3 1 5 3 7 1 1 3 3 5 4 2 1 4 2 7 2 2 1 4 0 7 0 2-1 4-2 6-3 14-12 28-24 41-37 6-6 13-13 19-20 18-20 34-42 49-65 1-2 2-5 3-7 0-3 0-5 0-8-1-2-2-5-3-7-2-2-4-4-6-5z m-344 86c47-8 91-26 130-53-81-91-130-168-113-186 17-19 94 31 186 112 28-39 46-83 53-130-121-7-210-27-210-51 0-25 89-45 210-51-7-47-25-92-53-130-90 81-168 129-186 112-18-17 32-94 113-186-39-27-83-46-130-53-7 122-27 211-51 211v61c10 0 19 4 25 11 7 6 11 16 11 25 0 10-4 19-11 25-6 7-15 11-25 11v61c24 0 44 89 51 211z m-51-405c-24 0-44-89-51-211-47 8-92 26-130 54 81 90 129 167 112 186-17 18-94-32-186-113-27 39-45 83-53 130 122 7 211 27 211 51 0 25-89 45-211 51 8 47 26 92 53 131 91-82 168-130 186-113 19 17-31 94-112 186 38 28 83 46 130 53 7-121 27-210 51-210v-62c-9 0-19-4-25-10-7-7-11-16-11-26 0-9 4-18 11-25 6-7 16-10 25-10v-62z" horiz-adv-x="1000" />

<glyph glyph-name="tyre-tag" unicode="&#xe812;" d="M177 558c-3-15-6-32-9-48l49-14c3 17 5 34 8 51l-48 11z m-33 160c-7-15-14-30-20-46l54 15c6 16 13 32 20 46l-54-15z m69-480c-2 18-3 35-4 53l-52 18c0-19 2-37 3-56l53-15z m12-84c-3 15-5 31-7 47l-54 15c3-16 5-32 8-47l53-15z m-154 259l53 15c1 16 2 31 4 46l-53-15c-2-15-3-30-4-46z m25 169l54 16c4 17 9 33 14 49l-54-15c-5-16-10-32-14-50z m-16-85l53 15c2 16 5 32 8 48l-53-16c-3-15-6-31-8-47z m457 198c19 0 34 15 34 34 0 19-15 35-34 35-20 0-35-16-35-35 0-19 15-34 35-34z m-122-345c0-213 64-362 122-362 57 0 121 149 121 362 0 5 0 11 0 16l-23 51-59 59c-2 2-3 4-4 6-1 3-1 5-1 8l17 131-32 42c-12-3-24-4-36-1-12 3-22 9-31 17-44-59-74-187-74-329z m192 144l258-258 131 131-259 242h-116l-14-115z m85 80c7 0 14-2 20-6 5-3 10-9 12-15 3-6 4-13 2-20-1-7-4-13-9-18-5-5-11-8-18-9-7-1-14-1-20 2-6 2-12 7-15 13-4 5-6 12-6 19 0 9 3 18 10 24 6 7 15 10 24 10z m-415-590c-7 14-12 28-18 43l-54 15c6-15 12-30 18-44l54-14z m-98 147c4-17 9-33 13-49l54-16c-5 16-9 33-13 50l-54 15z m-23 219c0-2 0-3 0-5l52-17c0 7 0 15 0 22 0 9 0 18 0 26l-51 15c-1-14-1-27-1-41z m57 111l-50 14c-2-16-3-32-4-49l50-14c1 17 3 33 4 49z m-144-111c0-8 0-16 1-24l51 15c0 3 0 6 0 9 0 14 1 28 1 41l-52-14c-1-9-1-18-1-27z m56-94c-1 16-2 33-3 49l-51-14c1-17 2-33 4-49l50 14z m75-292l-41-10c36-62 80-100 128-104-37 31-67 70-87 114z m-165 386c0 227 65 416 160 495-108-34-195-247-195-495 0-248 87-461 195-495-95 79-160 268-160 495z m940-53l-97-97c-4-3-8-5-13-5-4 0-9 2-12 5l-151 151 102-235 196 104-25 77z m-698 53c0 227 65 416 160 495-108-34-195-247-195-495 0-248 87-461 195-495-95 79-160 268-160 495z m-55 426c17 28 39 53 65 74-44-4-85-36-119-89l54 15z m315-823c-76 0-156 139-156 397 0 159 35 299 89 361-2 6-3 12-3 18 0 12 3 23 8 33 6 10 13 18 23 25 9 6 20 10 31 11 12 1 23 0 34-5 10-4 20-11 27-19 7-9 12-20 14-31 3-11 2-22-1-33-3-11-9-21-17-29l28-38h104c-43 128-111 207-181 207-122 0-225-229-225-500 0-271 103-500 225-500 90 0 174 126 208 315l-54 125c-12-219-85-337-154-337z m-240-9l-53 13c36-64 81-103 130-107-32 26-58 58-77 94z m-112 52c-7 17-14 35-20 54l-46-10c7-19 15-37 23-55l43 11z m-30 88c-5 17-10 36-13 54l-48-13c5-18 9-35 14-52l47 11z m-20 88c-2 16-4 32-6 49l-50-14c2-17 5-33 8-48l48 13z m238 678c-41-4-81-34-114-83l38-11c19 36 45 68 76 94z m-92-125l-41 12c-10-19-19-38-27-58l44-12c7 20 15 39 24 58z m-80-78c-6-18-11-36-16-55l47-11c5 18 9 36 14 53l-45 13z" horiz-adv-x="1000" />

<glyph glyph-name="arrow-right-small" unicode="&#xe813;" d="M100 750l400-400-400-400" horiz-adv-x="600" />

<glyph glyph-name="call" unicode="&#xe814;" d="M736-114c-42 5-84 15-124 30-95 37-184 90-262 156-110 89-203 199-272 323-37 62-62 129-76 200-2 10-3 21-1 31 2 10 6 20 12 29 43 62 92 120 147 173 7 6 14 12 22 17 4 4 9 5 15 5 5 0 10-2 14-6 7-5 14-12 19-20 45-61 84-127 118-195 2-4 3-9 5-13 5-8 6-17 5-25-2-9-8-17-15-22-21-18-41-37-63-55-6-4-10-10-12-17-2-7-1-15 3-21 24-73 65-139 119-194 54-54 119-96 192-121 26-9 27-9 45 11 15 17 29 34 44 51 3 4 7 8 10 11 6 7 13 11 21 13 8 2 17 0 24-4 48-22 95-47 139-76 23-15 46-30 69-46 34-25 36-39 7-70-54-60-117-112-185-155-6-4-13-7-20-10z m225 517h-68c0 100-40 196-111 267-71 70-167 110-267 111v67c219 8 447-180 446-445z m-172 0h-67c0 54-22 106-60 145-39 38-91 60-146 61v66c126 9 275-106 273-272z" horiz-adv-x="963" />

<glyph glyph-name="cart" unicode="&#xe815;" d="M1057 524c-9 12-21 22-35 29-14 7-29 10-44 10h-73l-158 265c-7 9-16 16-27 18-11 3-22 1-31-5-10-6-17-15-20-26-2-10-1-22 4-31l133-221h-534l132 221c3 4 6 10 7 15 1 6 0 12-1 18-1 5-3 10-7 15-3 5-7 9-12 12-5 3-11 5-16 6-6 0-12 0-17-1-6-2-11-4-16-8-4-3-8-8-11-13l-159-265h-72c-15 0-31-3-44-10-14-7-26-17-35-29-10-12-16-26-19-41-3-15-3-31 2-46l140-513c6-22 18-40 35-54 18-13 39-20 61-20h598c22 0 43 7 60 20 18 14 30 32 36 54l140 513c4 15 5 31 2 46-3 15-10 29-19 41z m-590-403c0-11-4-22-12-30-8-8-19-13-30-13-12 0-23 5-31 13-8 8-12 19-12 30v171c0 12 4 23 12 31 8 8 19 12 31 12 11 0 22-4 30-12 8-8 12-19 12-31v-171z m229 0c0-11-5-22-13-30-8-8-19-13-30-13-11 0-22 5-30 13-8 8-13 19-13 30v171c0 12 5 23 13 31 8 8 19 12 30 12 11 0 22-4 30-12 8-8 13-19 13-31v-171z" horiz-adv-x="1100" />

<glyph glyph-name="menu" unicode="&#xe816;" d="M1178 707h-943c-19 0-38 8-51 21-14 14-21 32-21 51 0 19 7 37 21 50 13 14 32 21 51 21h943c19 0 37-7 51-21 13-13 21-31 21-50 0-19-8-37-21-51-14-13-32-21-51-21z m72-357c0 19-8 37-21 51-14 13-32 20-51 20h-1105c-20 0-38-7-52-20-13-14-21-32-21-51 0-19 8-37 21-50 14-14 32-21 52-21h1105c19 0 37 7 51 21 13 13 21 31 21 50z m0-429c0 19-8 37-21 51-14 13-32 21-51 21h-653c-19 0-38-8-51-21-14-14-21-32-21-51 0-19 7-37 21-50 13-14 32-21 51-21h653c19 0 37 7 51 21 13 13 21 31 21 50z" horiz-adv-x="1250" />

<glyph glyph-name="instagram" unicode="&#xe817;" d="M596 350c0-53-43-96-96-96-53 0-96 43-96 96 0 53 43 96 96 96 53 0 96-43 96-96z m128 169c-5 13-12 24-22 33-9 10-20 17-33 22-10 4-25 8-53 10-30 1-39 1-116 1-77 0-86 0-116-1-28-2-43-6-53-10-13-5-24-12-33-22-10-9-17-20-22-33-4-10-8-25-10-53-1-30-1-39-1-116 0-77 0-86 1-116 2-28 6-43 10-53 5-13 12-24 22-33 9-10 20-17 33-22 10-4 25-8 53-10 30-1 39-1 116-1 77 0 86 0 116 1 28 2 43 6 53 10 25 10 45 30 55 55 4 10 8 25 10 53 1 30 1 39 1 116 0 77 0 86-1 116-2 28-6 43-10 53z m-224-316c-81 0-147 66-147 147 0 81 66 147 147 147 81 0 147-66 147-147 0-81-66-147-147-147z m153 266c-19 0-34 15-34 34 0 19 15 35 34 35 19 0 35-16 35-35 0-19-16-34-35-34z m-153 381c-276 0-500-224-500-500 0-276 224-500 500-500 276 0 500 224 500 500 0 276-224 500-500 500z m285-618c-1-31-6-52-13-70-15-39-45-69-84-84-18-7-39-12-70-13-30-2-40-2-118-2-78 0-88 0-118 2-31 1-52 6-70 13-19 7-37 19-51 33-14 14-26 32-33 51-7 18-12 39-13 70-2 30-2 40-2 118 0 78 0 88 2 118 1 31 6 52 13 70 7 19 19 37 33 51 14 15 32 26 51 33 18 7 39 12 70 13 30 2 40 2 118 2 78 0 88 0 118-2 31-1 52-6 70-13 19-7 37-18 51-33 15-14 26-32 33-51 7-18 12-39 13-70 2-30 2-40 2-118 0-78 0-88-2-118z" horiz-adv-x="1000" />

<glyph glyph-name="favourite" unicode="&#xe818;" d="M1105 752c-131 131-343 131-474 0l-30-30-31 30c-130 131-343 131-473 0-128-128-129-331-2-472 115-128 457-406 471-418 10-8 22-12 34-12 0 0 0 0 1 0 12-1 24 4 34 12 15 12 356 290 472 418 127 141 126 344-2 472z m-77-401c-90-100-338-307-427-380-89 73-337 280-427 380-89 99-90 239-2 326 44 45 103 67 162 67 58 0 117-22 161-67l67-67c8-8 18-12 29-14 17-4 35 1 48 14l67 67c89 89 235 89 324 0 87-87 87-227-2-326z" horiz-adv-x="1250" />

<glyph glyph-name="whatsapp" unicode="&#xe819;" d="M599 322c-4 4-8 6-12 8-5 1-10 1-14 0-5-1-9-3-13-6-3-4-6-8-7-12-3-7-7-12-13-15-6-3-13-4-20-3-29 7-69 46-76 77-2 6-1 14 2 20 3 6 9 10 15 12 5 2 9 4 12 8 3 3 5 7 6 12 1 5 1 9 0 14-1 4-4 8-7 12l-41 41c-6 5-13 8-20 8-8 0-15-3-20-8l-28-28c-28-30 3-108 72-177 69-69 147-102 177-72l28 28c5 5 8 12 8 19 0 8-3 15-8 20l-41 42z m-99 528c-99 0-196-29-278-84-82-55-146-133-184-225-38-91-48-192-28-288 19-97 67-187 136-257 70-70 160-117 257-136 96-20 197-10 288 28 92 38 170 102 225 184 55 82 84 179 84 278 0 133-53 260-146 354-94 93-221 146-354 146z m0-763c-51 0-102 15-145 43l-101-32 33 98c-28 39-45 85-49 134-4 48 6 96 28 140 22 43 55 79 97 104 41 26 89 39 137 39 70 0 137-28 186-77 49-49 77-116 77-186 0-70-28-137-77-186-49-49-116-77-186-77z" horiz-adv-x="1000" />

<glyph glyph-name="store-locator" unicode="&#xe81a;" d="M214 850c-57 0-109-34-132-87l-79-184c-3-6-3-10-3-15v-49c0-50 30-94 72-115v-420c0-70 58-128 129-128h406c19 0 35 16 35 35 0 20-16 36-35 36h-406c-32 0-57 25-57 57v408c30 4 57 18 77 39 24-25 57-40 93-40 37 0 69 15 93 40 23-25 56-40 93-40 36 0 69 15 92 40 24-25 57-40 93-40 37 0 70 15 93 40 23-25 56-40 93-40 70 0 128 57 128 128v42c2 8 1 15-2 22l-79 184c-23 53-75 87-133 87h-571z m-143-321h115v-14c0-32-25-57-57-57-33 0-58 25-58 57v14z m186 0h114v-14c0-32-25-57-57-57-32 0-57 25-57 57v14z m186 0h114v-14c0-32-25-57-57-57-33 0-57 25-57 57v14z m185 0h114v-14c0-32-25-57-57-57-32 0-57 25-57 57v14z m186 0h114v-14c0-32-25-57-57-57-32 0-57 25-57 57v14z m-7-196c-106 0-193-89-193-196 0-170 173-281 173-281 6-4 13-6 20-6 7 0 14 2 20 6 0 0 172 111 172 281 0 107-86 196-192 196z m-2-144c1 0 1 0 2 0 7 0 13-1 19-4 6-3 12-6 17-11 5-5 8-11 11-17 2-6 4-13 4-20 0-7-2-13-4-20-3-6-6-12-11-17-5-4-11-8-17-11-6-2-12-4-19-4-7 0-13 2-20 4-6 3-11 7-16 11-5 5-9 11-11 17-3 7-4 13-4 20 0 14 5 27 14 36 10 10 22 16 35 16z m-555 91c-10 0-19-4-25-11-7-6-11-15-11-25v-178c0-10 4-19 11-25 6-7 15-11 25-11h212c10 0 19 4 25 11 7 6 11 15 11 25v178c0 10-4 19-11 25-6 7-15 11-25 11h-212z" horiz-adv-x="1000" />

<glyph glyph-name="payment" unicode="&#xe81b;" d="M0-70v569c0 2 1 3 2 5 3 20 13 38 28 51 15 13 33 21 53 22 23 0 47 0 70 1 7 1 14 2 20 6 114 68 228 137 342 204 35 25 73 46 112 62h25l14-4c23-8 43-25 54-47 39-71 79-141 117-213 2-3 4-5 7-7 3-2 6-3 10-4 8-2 16-5 23-8 15-8 27-20 36-35 8-15 12-32 11-49 0-42 0-85 0-128 0-2 0-5 2-7 1-2 3-4 5-5 12-5 21-14 27-25 7-10 10-23 10-35 0-46 0-91 0-137 0-12-3-25-10-35-6-11-16-19-27-25-2 0-4-2-5-4-2-2-2-5-2-7 0-42 0-84 0-126 0-15-3-30-9-44-7-17-19-31-34-41-15-9-32-14-50-13h-746c-12 1-24 4-35 9-12 6-21 14-29 24-11 13-18 29-21 46z m879 421c0 3 0 4 0 6v129c0 4 0 8-1 12-3 10-9 19-17 25-8 7-18 10-29 9h-747c-8-1-16-3-22-8-7-5-12-12-15-19-3-9-4-18-4-27 0-175 0-351 0-527 0-5 1-10 1-15 1-8 4-16 9-22 5-6 12-11 20-14 7-2 15-3 24-3h410c107 0 215 0 322 0 7 0 13 1 20 3 6 2 12 6 17 11 4 5 8 11 10 17 3 7 3 14 3 21-1 39 0 79 0 119 0 3 0 7 0 10h-12c-39 0-79 0-118 0-34 2-66 16-90 41-24 25-37 58-38 93-1 35 12 68 34 94 23 26 55 42 89 44 40 0 82 0 124 0l10 1z m-58-227h77c18 0 27 9 27 27 0 42 0 85 0 128 0 18-9 26-26 26-53 0-106 0-160-1-23-2-44-13-59-31-15-18-23-41-21-65 1-24 12-46 29-62 18-15 41-23 64-22h69z m-567 454h10c22 0 44 0 65 0 6 0 12 2 17 5 108 64 216 129 323 193l9 6c-3 5-7 10-12 14-5 3-11 6-16 7-6 2-12 2-18 0-6-1-12-3-16-7l-354-213-8-5z m447 164l-270-162c3-2 6-3 9-3 21 0 41 0 63 0 6 1 13 2 18 6 65 38 129 76 193 115 2 1 5 3 8 5l-21 39z m43-79l-142-84h189l-47 84z m21-500c-6 0-12 1-18 4-5 2-11 6-15 10-4 5-8 10-10 16-3 6-4 12-4 19 1 12 6 23 15 32 9 8 20 13 32 13 12 0 23-5 32-13 9-9 14-20 15-32 0-7-1-13-4-19-2-6-5-11-10-15-4-5-9-9-15-11-5-2-11-4-18-4z" horiz-adv-x="968" />

<glyph glyph-name="location" unicode="&#xe81c;" d="M383 674c-113 0-205-92-205-205 0-113 92-205 205-205 113 0 205 92 205 205 0 113-92 205-205 205z m0-351c-80 0-146 66-146 146 0 77 63 147 146 147 71 0 147-58 147-147 0-81-67-146-147-146z m88 146c0 20-7 39-18 54l-41-13v42c-9 3-19 5-29 5-10 0-20-2-29-5v-42l-41 13c-11-15-18-34-18-54 0-1 0-1 0-2l41-13-25-35c11-16 28-28 47-34l25 34 25-34c20 6 36 18 48 34l-25 35 40 13c0 1 0 1 0 2z m-88 381c-99 0-383-72-383-392 0-180 209-438 314-549h-165c-16 0-29-14-29-30 0-16 13-29 29-29h469c16 0 29 13 29 29 0 16-13 30-29 30h-167c100 109 313 368 313 560 0 210-171 381-381 381z m0-644c-145 0-263 118-263 263 0 146 118 264 263 264 146 0 264-118 264-264 0-145-118-263-264-263z" horiz-adv-x="813" />

<glyph glyph-name="tyre-search" unicode="&#xe81d;" d="M105 539c5-16 9-32 15-48 12-30 31-56 54-78 24-21 53-37 83-45 59-20 120-33 181-39 43-5 84-7 123-10-46-6-92-9-138-8-86-2-171 9-254 32-42 11-81 30-116 56-6 5-13 11-18 18-10 10-15 23-15 36 0 14 5 27 15 36 19 22 43 39 70 50z m283 167c114 40 238 40 352 2-114-39-238-40-352-2z m375-329l2 12c2 10 3 19 5 29 10 53 32 103 64 147l-13-4c-71-20-143-30-217-32-96-4-191 5-284 29-47 10-91 28-131 54-17 12-32 26-48 39 0-1-1-3-1-4-5-26-6-52-2-78 8-79 45-136 121-164 69-24 140-39 212-45 94-8 188-4 281 14l11 2 0 1z m756-492c-18 0-35 6-49 17-4 4-9 8-13 12l-7 8-145 145c-36-23-77-39-119-45-18-3-35-4-53-4-68 0-134 22-188 63-34 25-63 56-85 92-22 36-37 76-43 118 0 5-2 11-3 17l-1 9v48l2 13c1 8 2 17 4 26 13 62 43 120 88 165 44 45 101 76 163 89 22 4 44 7 67 7 46 0 91-11 133-30 62-29 114-77 147-137 22-40 35-84 39-130 5-64-9-128-40-184l157-158c12-10 20-24 24-39 4-16 4-32-1-47-5-16-16-30-29-40-14-10-31-15-48-15z m-384 641c-49 0-95-20-130-54-34-35-54-82-54-131 0-48 20-95 54-130 35-35 81-54 130-54 49 0 96 19 130 54 35 34 54 81 54 130 1 49-19 96-53 130-34 35-81 55-130 55l-1 20 0-20z m-368-237c0 6-2 13-2 19v8 3 17c-89-36-184-56-280-59-91-6-183 2-272 21-76 18-151 40-208 102-2-16-5-30-5-45 0-47 11-93 33-134 7-16 18-29 32-38 34-21 71-37 110-47 76-21 155-32 234-32 84-3 167 6 248 25 44 10 87 27 126 51 5 3 10 6 14 10-14 32-24 65-30 99z m47-130c-2-1-3-2-5-4-39-25-82-44-127-55-86-23-175-34-264-31h-81v-2c47-3 94-7 140-9 70-2 139 4 207 17 51 9 101 25 148 47l5 2c-8 12-16 23-23 35z m98-109c-19 15-36 30-52 48-13-7-25-14-38-19-82-33-170-51-258-55-60-4-119-2-178 4-58 5-116 16-171 34-46 13-88 35-124 66-7 4-13 8-20 11-2-13-3-23-4-34 0-42 8-84 25-123 6-16 16-31 29-41 27-21 57-37 89-48 64-21 131-35 198-39l47-4h106c3 1 6 1 9 2 46 2 91 9 136 20 49 10 96 27 140 50 25 14 44 36 56 62 8 19 14 40 18 61l-8 5z m-24 572c21 18 44 35 68 48l3 4c8 9 11 20 11 32 0 11-3 23-11 32-7 10-17 19-27 27-24 18-50 31-78 40-94 31-192 46-290 45-64 0-127-6-189-18-51-9-101-25-148-47-22-10-42-26-58-45-7-9-12-21-12-33 0-12 5-24 12-33 8-10 17-19 27-26 25-18 52-31 81-40 89-30 183-45 277-45 73-1 145 6 216 22 41 8 80 20 118 37z m-619 86c2-2 4-3 6-5 4-2 7-6 8-11 1-4 0-9-2-13-3-4-7-7-11-8-5-1-10 0-14 3-8 4-15 10-20 17-6 8-9 16-10 26 0 7 2 14 6 20 3 6 8 11 14 15 19 13 39 24 60 34 25 10 50 18 76 25 2 2 4 2 7 2 3 0 5 0 8-1 2-1 4-2 6-4 2-2 3-4 4-7 3-11-3-19-17-23-35-9-69-21-101-38-7-4-14-8-20-13-10-8-10-12-1-19h1z m50-72c-2 0-4 0-6 1-3 1-5 2-6 3-2 2-3 4-4 6-1 2-1 4-1 7-1 2 0 4 1 6 0 3 2 5 3 6 2 2 4 3 6 4 2 1 5 1 7 1 5 0 9-1 12-5 4-3 5-7 6-12-1-5-3-9-6-12-3-3-8-5-13-5l1 0z m259 7c-65-2-129 7-191 26-9 3-19 7-28 11-6 2-10 6-14 10-3 5-5 11-5 17 0 6 2 12 5 17 4 5 9 9 14 11 35 15 71 25 108 30 60 8 121 9 181 1 41-4 81-14 119-31 6-1 11-5 15-10 4-6 6-12 5-18 0-7-2-13-6-18-3-5-9-9-15-10-60-25-124-37-188-36z" horiz-adv-x="1615" />

<glyph glyph-name="data" unicode="&#xe81e;" d="M575-141c-30 25-61 49-90 74-12 10-23 22-32 34-3 4-7 7-11 9-5 2-10 3-15 2-53-4-106-3-159 1-56 4-111 15-165 31-25 8-49 19-71 35-10 7-19 16-24 27-6 11-8 24-8 36 0 128 0 257 0 385 0 77 0 155 0 232 0 15 6 29 16 39 20 22 46 38 74 47 50 17 101 28 154 33 20 2 43 4 64 6h97l41-4c58-4 115-15 170-33 25-8 49-20 70-37 9-7 16-16 20-26 5-10 7-21 6-33 0-68 0-136 0-203 0-63 0-126 0-189 0-9 3-13 11-14 25-6 49-12 74-17 8-2 12-5 13-13 7-101-20-201-79-284-40-52-88-97-143-133l-4-4-9-1z m-551 821c0-55 0-107 0-160-1-7 1-15 4-21 3-6 7-12 13-16 12-9 25-17 39-23 67-28 139-43 211-45 58-4 115-3 173 4 50 4 99 15 146 32 20 9 40 19 58 31 7 3 12 9 15 15 4 7 6 14 5 22 0 52 0 104 0 156 0 1 0 2 0 3-19-11-38-21-58-30-66-24-135-38-204-41-70-5-140-3-209 7-67 10-135 23-193 66z m315 147c-24-2-66-3-108-8-49-5-96-17-142-35-20-7-38-18-53-32-4-3-7-7-9-11-2-4-3-9-3-13 0-5 1-9 3-13 2-5 5-8 9-11 11-10 23-19 36-26 63-27 130-43 198-46 55-5 111-5 166 0 55 3 110 13 163 29 27 8 52 21 74 38 5 4 9 9 12 14 3 6 4 12 4 18-2 6-4 12-7 17-4 5-9 9-14 12-21 16-45 27-70 34-79 25-160 32-259 33z m349-362c-31-23-66-40-104-48-74-19-150-28-226-27-65-1-130 6-193 19-51 7-99 27-141 56 0-3 0-6 0-8 0-45 0-91 0-136 0-7 1-13 4-20 3-6 8-12 13-16 18-14 37-25 59-32 67-22 137-35 207-37 15 0 29 0 44 0v8c0 18 0 36 0 53 0 13 3 15 15 17l30 6c-27 2-54 0-81 2-27 2-59 5-88 7-2 0-3 0-5 1-1 0-3 1-4 3-1 1-2 3-2 4-1 2-1 4 0 5 1 8 6 11 14 10 8-1 21-2 30-3 64-6 128-6 191 0 22-1 44 6 63 18 17 14 35 27 52 40 13 9 16 8 28 0 22-17 45-33 68-49 9-5 17-10 27-14l-1 141z m-664-199v-11c0-50 0-99 0-149-1-7 1-14 4-21 3-6 8-12 14-16 15-11 31-20 47-27 48-19 99-31 150-36 61-7 122-9 183-5 0 0 1 0 0 0-15 28-29 56-42 84-1 3-3 5-5 7-3 1-6 2-9 2-46 2-93 5-139 7-2 0-4 1-5 1-2 1-4 2-5 3-1 1-2 3-2 4-1 2-1 4-1 5 0 8 6 12 15 11l113-7c8 0 16 0 24 0l-15 72h-6c-59 1-117 6-175 17-52 8-103 28-146 59z m349-28h-1c2-12 3-23 4-35 3-43 14-85 32-125 38-76 95-142 167-189 5-3 7-1 11 2 21 17 44 33 64 52 45 40 81 89 105 144 23 56 34 116 31 176 0 6-2 8-8 10-29 6-58 14-86 23-36 15-69 35-98 59-15 11-15 11-29 0-47-39-103-66-162-79-10-2-24-2-28-8-4-5-2-20-2-30z m-17 266l-129 10c-2 0-4 0-5 1-2 0-3 1-5 2-1 2-2 3-2 5-1 1-1 3-1 5 0 7 6 11 15 10 60-7 120-9 180-6 67 2 134 13 198 34 5 2 10 2 15 0 2-1 3-3 4-5 1-2 1-4 1-6-1-2-2-4-4-6-1-2-3-3-5-4-22-7-44-14-67-19-64-13-130-20-195-21z m-214 32c0-9-4-19-11-26-7-7-16-11-26-11-10 0-19 4-26 11-7 7-11 17-11 26 0 10 4 20 11 27 7 7 16 11 26 11 10 0 19-4 26-11 7-7 11-17 11-27z m-37 15c-2 0-3 0-5-1-2-1-4-1-5-3-1-1-2-2-3-4-1-2-1-4-1-6 0-1 0-3 0-5 1-2 2-3 3-5 1-1 3-2 5-3 1-1 3-1 5-1 2-1 4 0 6 0 2 1 4 2 5 3 2 1 3 3 4 4 1 2 1 4 1 6 0 2 0 4-1 6-1 2-2 3-3 5-1 1-3 2-5 3-2 0-4 1-6 1z m37-222c0-5-1-10-2-14-2-5-5-9-9-13-3-3-8-6-12-8-5-1-10-2-15-2-5 0-10 1-14 3-5 2-9 5-12 9-4 3-6 7-8 12-2 5-3 10-2 14 0 5 0 10 2 15 2 5 5 9 8 13 4 3 8 6 13 8 5 1 10 2 15 2 5 0 10-1 14-3 5-2 9-5 12-8 4-4 7-8 8-13 2-5 3-10 2-15z m-23 0c0 2 0 4-1 6-1 2-2 3-3 5-2 1-3 2-5 3-2 0-4 1-6 1-1 0-3-1-5-1-2-1-3-2-4-4-2-1-3-3-3-4-1-2-1-4-1-6 0-2 0-4 1-5 1-2 2-4 3-5 1-1 3-3 5-3 2-1 3-1 5-1 2 0 4 0 6 1 2 1 3 2 5 4 1 1 2 3 3 5 0 2 0 4 0 6v-2z m23-205c0-7-2-14-7-20-4-6-10-10-17-13-6-3-14-3-21-2-7 2-14 5-19 11-5 5-8 12-10 19-1 7 0 14 3 21 3 7 7 13 13 17 7 4 14 6 21 6 5 0 10-1 15-3 4-2 9-5 12-8 4-4 6-8 8-13 2-5 3-10 2-15z m-37-13c2 0 4 0 5 1 2 0 4 1 5 3 1 1 2 2 3 4 1 2 1 4 1 6 0 2 0 4-1 5 0 2-1 4-3 6-1 1-3 2-4 3-2 1-4 1-6 1-2 0-4 0-6-1-2-1-3-2-5-3-1-2-2-4-2-6-1-1-1-3-1-5 0-2 0-4 1-6 0-2 1-3 3-5 1-1 3-2 5-3 1 0 3 0 5 0z m288 115v6c0 21 0 21 20 25 54 13 104 36 148 68 3 2 6 4 9 7 3 2 6 4 10 4 4 0 7-2 10-4 31-24 65-43 101-57 20-8 40-14 61-19 11-3 14-5 14-17 0-41-7-82-20-120-29-82-84-153-156-202-3-2-6-3-9-3-4 0-7 1-10 3-88 58-149 149-171 252-4 19-5 38-8 57l1 0z m349 0c-1 2-3 8-6 9-53 13-103 36-148 69-2 2-5 3-8 3-4 0-7-1-9-3-44-33-95-57-149-69-5-1-6-4-5-8 1-11 2-21 3-31 7-50 25-98 51-142 26-43 61-81 102-111 1-1 2-2 3-2 1-1 2-1 4-1 1 0 2 0 3 1 1 0 2 1 3 2 20 20 45 37 64 59 55 62 87 141 92 224h0z m-187-130l78 77c3 2 5 6 8 7 2 0 5 0 7 0 2-1 5-1 7-3 2-2 2-9 2-13 0-5-3-4-5-6l-81-82c-10-10-16-10-26 0l-38 38c-7 8-8 14-3 19 6 6 12 5 20-2 10-12 20-24 31-35z" horiz-adv-x="811" />

<glyph glyph-name="vehicel" unicode="&#xe81f;" d="M667 722l8-24 9 24c4 9 10 18 18 26 7 7 16 13 26 17l24 9-24 9c-10 4-19 9-26 17-8 7-14 16-18 26l-8 24-9-24c-4-10-10-19-18-26-7-8-16-13-26-17l-24-9 24-9c10-4 19-10 26-17 8-8 14-17 18-26z m165-88l7-18 7 18c3 8 7 14 13 20 6 6 13 10 20 13l18 7-18 7c-7 2-14 7-20 12-6 6-10 13-13 20l-7 19-7-19c-2-7-7-14-13-20-5-5-12-10-20-12l-18-7 18-7c8-3 15-7 20-13 6-6 11-12 13-20z m102 100l7-18 6 18c3 8 8 15 13 20 6 6 13 10 20 13l19 7-19 7c-7 2-14 7-20 13-5 5-10 12-13 20l-6 18-7-18c-3-8-7-15-13-20-6-6-13-11-20-13l-19-7 19-7c7-3 14-7 20-13 5-5 10-12 13-20z m-91-817v-45c0-3 1-6 2-9 1-2 3-5 5-7 2-2 4-3 7-4 3-2 6-2 8-2h85c6 0 11 2 15 6 4 4 7 10 7 16v86c-14-14-31-25-49-32-19-7-38-10-58-9h-22z m-816 42v-87c0-6 3-12 7-16 4-4 9-6 15-6h85c5 0 11 2 15 6 4 4 6 10 6 16v45h-20c-20-1-40 2-58 9-19 8-36 19-50 33z m1 88c0-62 43-98 107-98h730c64 0 107 36 107 98v18h-944v-18z m954 398l-54 9c-4 1-9 0-13-2-3-2-6-5-8-9l-17-38-7 10-47 111c-8 18-20 34-35 46-16 12-34 20-54 24-82 12-164 18-247 18-83 0-165-6-247-19-20-3-38-11-54-23-15-12-27-28-35-46l-47-111-7-10-17 38c-1 4-5 7-8 9-4 2-9 3-13 2l-54-9c-5-1-10-4-13-8-3-3-5-8-5-13v-11c0-5 2-9 5-13 3-4 7-7 12-8l74-16-36-54c-18-27-27-59-27-92v-133h944v133c0 33-9 65-27 92l-36 54 74 16c5 2 9 4 12 8 3 4 5 8 5 13v11c0 5-2 10-5 14-3 3-8 6-13 7z m-788 69c6 13 14 24 25 33 12 9 25 14 39 17 80 12 161 18 242 17 81 1 162-5 242-17 14-3 27-8 39-17 11-9 19-20 25-33l36-86h-684l36 86z m-69-312c-6 1-12 4-17 8-4 4-8 10-9 16-2 7-3 15-3 22 2 20 8 29 21 29 0 0 85-5 96-9 11-3 55-86 55-86l-143 20z m543-32l-169-10-167 9-43 90c0 0 150-13 211-13 61 0 211 13 211 13l-43-89z m233 56c-1-6-5-12-9-16-5-4-11-7-17-8l-143-20c0 0 44 83 55 86 12 4 96 9 96 9 13 0 19-9 21-29 0-7-1-15-3-22z" horiz-adv-x="1000" />

<glyph glyph-name="tyre-size" unicode="&#xe820;" d="M451 850c-2-3-2-7-2-11 1-3 2-7 4-10 2-3 3-6 3-10 0-3-1-6-2-9-2-4-4-6-7-8-3-2-6-3-10-3-23 1-27 36-25 51-102-5-198-46-273-116 2-3 4-6 7-8 3-2 6-4 9-5 5-1 10-4 12-8 3-4 4-9 4-14-9-31-49-7-59 8-69-76-108-173-112-275 7-2 15-2 21 2 4 3 9 4 14 3 5-1 9-4 12-8 3-4 4-9 3-14-1-5-3-9-7-12-13-9-28-12-43-10 5-102 46-199 115-274 4 2 6 4 9 7 2 3 4 6 5 10 0 2 1 4 2 7 2 2 3 3 5 5 2 1 5 2 7 3 3 0 5 0 8 0 31-8 7-49-8-59 75-68 172-108 274-112 2 7 1 15-2 21-3 4-4 9-3 14 1 5 4 9 8 12 4 3 9 4 14 3 5 0 9-3 12-7 8-13 12-28 9-43 43 2 84 11 124 25 0 42 0 119 0 160-187-113-437 30-434 250-3 220 247 364 434 251 0 26 7 51 23 73 15 21 36 37 61 46-64 40-137 62-212 65z m128-425l-14 1c-7 1-13 4-18 8-5 4-8 9-10 16-2 6-2 13 0 19 1 6 5 12 10 16l32 28v107c-21 15-43 27-68 35l-47-111c-3-6-7-11-13-15-5-3-12-5-18-5-7 0-13 2-18 6-6 3-10 9-12 15l-47 109c-50-16-94-48-125-91l90-80c5-4 8-10 10-16 2-6 1-13-1-19-2-6-6-12-11-16-5-4-11-6-18-7l-118-10c0-53 17-105 48-148l103 62c6 3 12 5 19 4 6 0 13-3 18-7 5-3 9-9 11-15 2-6 3-13 1-19l-26-116c50-17 104-17 154 0l-26 118c-1 6-1 12 2 19 2 6 6 11 11 14 6 4 12 6 18 6 7 1 13-1 19-4l44-27c0 28 0 96 0 123z m-145-72c-17 0-32 7-44 19-11 11-17 27-17 43 0 16 6 32 17 44 12 11 27 18 44 18 16 0 31-7 43-18 11-12 18-28 18-44 0-16-7-32-18-43-12-12-27-19-43-19z m419 77c10-3 43-15 53-18-1 1 94 77 94 78v149l-71-58c-15-14-36-8-53-1l-35 12c-3 1-5 2-7 4-2 2-4 4-5 6-1 3-1 5-1 8 0 3 0 5 1 8 1 2 3 4 5 6 2 2 4 3 6 4 3 1 5 1 8 1 2 0 5-1 7-2l50-17 93 76c-4 19-15 36-30 48-15 12-34 19-54 19h-212c-11 0-23-2-33-7-11-4-21-11-29-20-8-8-14-18-18-29-4-10-6-22-5-34 0-12 0-36 0-48 29-25 65-54 94-78 10 4 43 15 53 18 5 2 10 2 14-1 5-2 8-6 10-11 1-4 1-10-1-14-2-5-6-8-11-10l-11-3c-23-7-56-27-77-8 0 0-64 52-71 58-1-11 0-135 0-149 27-22 68-56 94-78l23 8c8 2 33 14 41 11 4-1 7-4 10-7 2-3 4-7 4-11 0-4-1-8-4-11-2-4-5-6-9-7-7-3-45-16-52-18-22-9-40 9-56 22l-51 42c0-45-1-105 0-149 27-23 94-78 94-78 8 3 45 16 53 18 5 2 10 2 14-1 5-2 8-6 10-10 1-5 1-10-1-15-2-4-6-8-11-9-73-25-64-35-127 20l-32 26c0-32 0-116 0-149 19-16 73-60 94-77l53 17c5 2 10 2 14-1 5-2 8-6 10-10 1-5 1-10-1-15-2-4-6-8-11-9l-52-18c-6-3-13-3-19-2-7 1-12 4-17 8l-71 58v-36c0-23 9-45 25-61 16-16 37-25 60-25h212c23 0 45 9 61 25 16 16 25 38 25 61v109l-71-58c-7-6-15-9-24-9-22 5-43 12-64 20-5 2-9 6-11 10-2 5-2 10-1 14 2 5 5 9 10 11 4 2 9 3 14 1l52-18 95 78v149l-71-58c-5-4-11-7-17-8-6-1-13-1-19 1-8 3-46 16-52 18-5 2-9 5-11 10-2 4-3 10-1 14 2 5 5 9 9 11 5 2 10 3 15 1 10-3 42-14 52-18l95 78v149l-71-58c-17-16-43-4-62 2l-26 9c-5 2-9 5-11 10-2 4-3 10-1 14 2 5 5 9 9 11 5 2 10 3 15 1z" horiz-adv-x="1000" />

<glyph glyph-name="delivery" unicode="&#xe821;" d="M0 149c5 6 11 10 17 13 7 2 14 3 21 3 70 0 141 0 212 0h10c4 0 7-1 10-2 4-1 7-3 9-5 3-3 5-6 6-9 1-3 2-6 2-10 0-3-1-7-2-10-1-3-3-6-6-8-2-2-5-4-8-5-4-1-7-2-10-2-29 0-57 0-85 0h-21c0-17 0-33 0-48 0-2 6-6 10-6 41 0 83 0 125 0 4 0 10 6 13 11 12 28 32 51 58 67 25 17 54 25 85 25 30 0 59-8 85-25 25-16 45-39 58-67 4-9 8-13 19-13 162 0 324 0 486 0h13v18c0 55 0 111 0 166-1 4 0 7 1 10 1 4 3 7 5 10 2 2 5 4 8 6 3 1 7 2 10 2 4 0 7-1 11-2 3-2 6-4 8-6 2-3 4-6 5-10 1-3 2-6 1-10v-12c0-52 0-104 0-156 1-5 2-11 5-16 4 4 9 8 12 13 12 28 32 51 57 67 25 17 55 25 85 25 30 1 60-8 86-24 25-17 45-40 57-68 1-5 4-8 8-11 4-2 8-3 13-2 16 0 32 0 49 0v109h-23c-11-1-22 1-33 5-10 4-19 10-27 18-8 8-14 17-18 28-4 10-5 21-4 32 0 16 0 31 0 47 0 3 0 7 1 10 2 3 4 6 6 8 3 3 6 5 9 6 3 1 7 1 10 1h74c-4 15-13 29-25 39-12 10-27 15-43 16-97 0-194 0-291 0-2 0-4-1-6-2 0-9 0-18 0-27 0-6-3-12-7-17-5-4-11-6-17-6-3-1-6 0-10 1-3 1-5 3-8 5-2 2-4 5-5 8-2 3-2 6-3 9 0 5 0 9 0 14v438h-953v-435c0-5 0-10 0-15 0-3 0-6-1-9-2-3-3-6-6-8-2-3-5-4-8-6-3-1-6-1-9-1-3-1-6 0-9 1-3 1-6 3-9 5-2 3-4 5-5 8-1 3-2 6-2 9 0 5 0 9 0 13v427c-2 8-1 16 2 24 2 8 7 15 12 21 6 6 13 11 21 13 8 3 16 4 25 2h932c8 2 16 1 24-1 8-3 15-7 21-13 5-5 10-12 12-20 3-8 4-16 3-24v-46h17 163c15 1 29-2 43-7 13-5 26-13 36-23 10-10 18-22 23-36 6-13 8-28 8-42 0-34 0-36-19-48 13-52 26-103 39-155 1-2 2-4 4-5 2-2 4-3 6-4 30-7 57-24 75-48 19-25 28-56 26-86v-249c0-25-8-34-34-34h-70c0-24-6-47-16-69-10-21-25-40-44-55-28-23-64-35-101-34-82 0-137 56-155 157h-555c0-25-6-49-17-70-11-22-27-41-47-56-30-24-69-35-107-31-39 4-76 22-102 51-27 29-41 67-41 107h-127c-8-1-16 0-23 3-8 2-14 7-20 12-5 6-9 12-12 20-3 7-3 15-3 23v48c-24 0-48 0-71 0-7-1-14 0-20 3-6 3-11 8-14 14l0 18z m1158 438v-160h257c1 3 1 5 0 7-11 47-23 94-33 140-3 10-7 14-16 13-51 0-101 0-152 0h-56z m-711-474c-14 1-28-2-41-7-13-6-25-13-35-23-9-10-17-22-23-35-5-13-8-27-8-41 0-28 11-55 31-75 19-20 46-31 74-32 28 0 56 11 76 31 20 20 31 47 31 76 0 14-3 27-8 40-5 13-13 25-22 35-10 10-22 18-34 23-13 6-27 8-41 8z m870-213c28 0 55 12 75 32 20 20 32 47 32 75 0 28-11 56-31 76-20 20-48 31-76 31-28 0-55-11-75-31-20-20-32-48-32-76 1-28 12-55 32-75 20-20 47-32 75-32z m-159 741h239c0 7-1 14-4 21-3 7-7 13-13 18-5 5-11 9-18 12-7 2-15 3-22 3-57 0-113 0-168 0h-13l-1-54z m371-422v52h-54c-5-47 7-60 54-52l0 0z m-926 164l212 214c4 4 8 7 12 10 2 2 5 4 8 5 3 1 6 1 9 1 3 0 6-1 9-3 3-1 5-3 7-6 5-4 8-10 8-16 0-6-2-13-6-17-3-4-6-7-9-10l-223-223c-20-20-30-20-50 0-40 40-80 80-119 121-4 3-7 8-8 12-2 5-3 10-3 15 3 21 27 26 43 10 34-34 67-67 99-99 4-4 8-9 11-14z m239-269h-172c-6-1-12-1-17 0-6 1-11 3-14 7-4 4-6 10-6 15-1 5 1 11 4 15 3 5 8 8 13 10 5 1 11 2 17 2h352c4 1 8 0 12-1 4-1 8-3 11-6 3-2 5-6 7-10 1-3 2-8 1-12 0-7-9-14-16-19-6-2-12-3-18-2l-174 1z m-606 107h-151c-21 0-32 8-32 24 0 17 11 25 34 25h303c11 0 22-3 26-14 2-4 3-8 3-12 0-4-1-8-3-12-7-7-16-11-26-11-53 0-103 0-154 0z m262-213c0-11-2-21-8-29-6-9-14-15-23-19-9-4-20-6-30-4-10 2-19 7-26 14-8 7-13 17-15 27-2 10-1 20 3 30 4 9 11 17 19 23 9 6 19 9 29 9 13-1 26-6 36-15 9-10 15-23 15-36z m819-53c-14 1-26 6-36 16-9 9-15 22-15 36 0 13 5 27 15 36 9 10 22 15 36 15 14 0 27-5 37-15 9-9 15-23 15-36-1-14-6-27-16-36-10-10-23-15-36-16z" horiz-adv-x="1579" />

<glyph glyph-name="tyre-brand" unicode="&#xe822;" d="M591 155v-115c44 13 83 35 117 64l-97 63-20-12z m117 440c-34 29-73 51-117 64v-115l20-12 97 63z m-416-491c34-29 73-51 117-64v115l-21 12-96-63z m117 440v115c-44-13-83-35-117-64l96-63 21 12z m-123-163l-94 63c-10-30-14-62-14-95 0-32 4-64 14-94l94 63v63h0z m214 9c-22 0-41-18-41-41 0-22 19-40 41-40 22 0 41 18 41 40 0 23-19 41-41 41z m214-9v-63l94-63c10 30 14 62 14 94 0 33-4 65-14 95l-94-63z m84 371c-4-1-4-8 0-9l21-7c31-11 56-36 67-67l7-21c1-2 3-3 5-3 1 0 3 1 4 3l7 21c11 31 36 56 67 67l21 7c4 1 4 8 0 9l-21 7c-31 11-56 36-67 67l-7 21c-1 2-3 3-4 3-2 0-4-1-5-3l-7-21c-11-31-36-56-67-67l-21-7z m157-402c0 16 13 29 29 29h16c-4 82-26 151-69 218-10-6-21-9-33-9-27 0-51 17-60 43l-7 20c-4 14-15 24-29 29l-20 7c-25 9-42 33-42 60 0 13 4 25 11 36-68 42-140 63-222 67v-16c0-16-13-29-29-29-16 0-29 13-29 29v16c-113-7-219-50-304-126l11-11c12-11 12-30 0-41-5-6-13-9-20-9-8 0-15 3-21 9l-11 11c-76-85-119-191-126-304h16c16 0 29-13 29-29 0-16-13-29-29-29h-16c7-113 50-219 126-304l11 11c11 12 30 12 41 0 12-11 12-30 0-41l-11-11c85-76 191-120 304-126v16c0 16 13 29 29 29 16 0 29-13 29-29v-16c113 6 219 50 304 126l-11 11c-12 11-12 30 0 41 11 12 30 12 41 0l11-11c76 85 119 191 126 304h-16c-16 0-29 13-29 29z m-104-149c-58-138-199-233-351-232-216-1-381 178-381 380 0 215 177 382 381 381 215 1 382-177 381-381 0-52-11-102-30-148z m-196 101v95c0 10 5 19 13 24l118 78c-10 19-22 37-36 54l-121-80c-5-3-11-5-17-5-5 0-10 2-14 4l-51 29c-9 6-14 15-14 26v143c-11 1-22 2-33 2-11 0-22-1-33-2v-143c0-11-5-20-14-26l-51-29c-4-2-9-4-15-4-5 0-11 2-16 5l-121 80c-14-17-26-35-36-54l118-78c8-5 13-14 13-24v-95c0-10-5-19-13-24l-118-78c10-19 22-37 36-54l121 80c10 6 22 6 31 1l51-29c9-6 14-15 14-26v-143c11-1 22-2 33-2 11 0 22 1 33 2v143c0 11 5 20 14 26l51 29c9 5 21 5 31-1l121-80c14 17 26 35 36 54l-118 78c-8 5-13 14-13 24z m-155-52c-55 0-99 45-99 99 0 55 44 99 99 99 55 0 99-44 99-99 0-54-44-99-99-99z" horiz-adv-x="1000" />

<glyph glyph-name="ev" unicode="&#xe823;" d="M39 850c-21 0-39-18-39-40v-210c0-22 18-40 39-40h138c22 0 40 18 40 40v90h167v-40h-39c-22 0-40-18-40-40v-78c-34-16-59-51-59-92v-290c0-55 44-100 99-100h39v-40h-167v90c0 22-18 40-40 40h-138c-21 0-39-18-39-40v-210c0-22 18-40 39-40h138c22 0 40 18 40 40v80h167v-40c0-11 9-20 20-20 11 0 20 9 20 20v40h167v-80c0-22 18-40 39-40h138c22 0 40 18 40 40v210c0 22-18 40-40 40h-138c-21 0-39-18-39-40v-90h-167v40h39c54 0 98 45 98 100v290c0 41-24 76-59 92v78c0 22-17 40-39 40h-39v40h167v-90c0-22 18-40 39-40h138c22 0 40 18 40 40v210c0 22-18 40-40 40h-138c-21 0-39-18-39-40v-80h-374v80c0 22-18 40-40 40h-138z m424-240v-70h-118v70h118z m-35-238c4 11-1 22-11 27-10 4-21-1-25-11l-33-82c-7-16 5-34 23-34h12l-21-54c-5-11 0-22 10-26 10-5 22 0 26 10l30 75c7 17-5 35-23 35h-12l24 60z" horiz-adv-x="808" />

<glyph glyph-name="user" unicode="&#xe824;" d="M411 368c66 0 123 24 170 71 47 47 71 104 71 170 0 66-24 124-71 171-47 46-104 70-170 70-66 0-124-24-170-71-47-46-71-104-71-170 0-66 24-123 71-170 46-47 104-71 170-71z m421-287c-1 20-4 41-8 63-4 23-9 44-15 64-7 20-16 40-26 59-12 20-25 37-40 51-15 15-34 27-56 36-22 9-47 13-73 13-10 0-20-4-39-17-11-7-25-16-41-26-13-8-30-16-52-23-22-7-43-11-65-11-21 0-43 4-64 11-22 7-40 15-53 23-15 10-29 19-41 26-19 13-29 17-39 17-26 0-50-4-72-13-22-9-41-21-57-36-15-14-28-31-39-51-11-19-20-39-26-59-7-20-12-41-16-64-4-22-7-43-8-63-1-19-2-39-2-59 0-52 17-95 49-126 33-30 75-46 127-46h482c52 0 95 16 127 46 33 31 49 74 49 126 0 20 0 40-2 59z" horiz-adv-x="850" />

<glyph glyph-name="price-tag" unicode="&#xe825;" d="M555 850c0 0 1-1 2-2 12-3 23-11 30-22 7-11 10-24 8-37 0-19-6-38-15-55-16-29-33-59-50-88-2-4-4-7-7-11l76-24 47-15c8-2 15-6 22-12 6-5 11-12 14-19 12-26 25-52 37-78 4-10 2-18-6-22-9-4-16 0-21 10-12 25-23 51-36 75-3 8-9 14-17 17-33 12-67 22-102 34 2-5 3-8 4-10 24-52 48-104 72-156 5-9 7-19 7-28 0-10-2-20-6-29-46-111-92-223-139-334-1-3-2-6-2-9 0-3 1-6 2-8 17-36 33-71 50-106 1-5 4-9 7-12 3-4 7-6 11-8 5-1 9-2 14-2 4 1 9 2 13 5l289 135c5 2 9 4 12 7 3 4 6 8 7 12 2 5 2 9 2 14-1 5-3 9-5 13-50 107-100 213-150 319-6 14-4 22 5 26 9 4 15 0 22-13 49-107 99-213 149-319 5-8 7-16 8-25 1-8 0-17-3-25-3-8-8-16-14-22-6-6-14-11-22-14-96-45-192-90-289-135-7-3-15-6-23-6-8-1-17 0-24 3-8 3-15 8-21 13-6 6-11 13-14 20-12 27-24 53-37 80-1 3-3 6-5 10-4-9-8-17-11-25-10-22-19-45-28-67-3-8-7-16-13-22-5-6-12-11-20-14-8-3-16-5-25-4-8 0-16 2-24 6l-172 71c-11 4-15 12-11 20 3 9 12 11 22 7l169-70c24-10 37-4 47 20 65 157 130 313 195 470 3 5 4 11 4 18 0 6-1 12-4 17-27 59-54 117-82 175-2 7-7 14-12 19-5 5-11 9-18 12-2-12-4-23-4-35 0-2 3-5 5-7 7-7 13-16 16-26 2-10 1-20-2-30-3-8-9-14-15-20-7-5-15-8-23-10-8-1-17 0-25 3-8 2-15 7-20 14-5 6-9 14-11 22-1 8-1 17 2 25 3 8 7 15 14 21 6 5 13 9 22 11 6 1 8 4 8 10 1 6 2 16 3 25-4-1-8-2-11-3-61-23-121-47-182-70-4-1-9-4-12-8-4-3-6-7-8-12-67-159-133-317-198-475-2-4-3-9-4-14 0-4 1-9 3-13 1-5 4-9 8-12 3-3 8-5 12-6 17-7 34-14 51-21 10-4 14-11 11-20-3-9-12-11-23-7-18 8-36 14-54 23-7 2-14 7-19 12-6 6-11 12-14 20-3 7-4 15-4 23 0 8 2 15 5 23 66 160 133 320 199 480 3 8 8 15 14 21 6 5 13 10 21 13l185 71c2 0 3 1 5 1 20 0 20 14 24 30 6 32 13 64 21 96 5 20 16 37 32 50 8 6 17 11 25 15h24z m-57-199c1 1 2 2 3 4 19 32 38 65 55 98 6 13 9 27 10 41 1 5 0 10-2 15-3 4-7 8-11 10-5 2-10 3-16 1-5-1-9-3-12-8-9-9-16-20-21-31-13-40-22-80-26-121l11-5c3-1 6-3 9-4z m-54-82c-3 0-6 0-8-1-2-1-5-2-7-4-1-2-3-4-4-6-1-3-2-5-2-8 0-2 1-5 2-8 1-2 2-4 4-6 2-2 4-4 7-5 2-1 5-1 8-1 4 1 7 4 10 7 2 4 4 8 4 12 0 5-2 9-4 12-3 4-6 6-10 8v0z m366-484c-3-3-6-9-10-11-6 0-12 2-17 5-2 0-3 5-4 8l-87 184c-1 3-2 5-3 8-1 2-1 3-2 5 0 2 1 4 1 5 1 2 2 3 3 5 1 1 3 2 5 3 3 1 6 2 9 1 4-1 7-3 9-5 1-2 2-5 3-7 30-63 59-125 88-187 1-4 3-8 5-14z m-169 178c5 0 9-5 12-12l67-143 22-47c5-10 2-18-6-22-8-4-16 0-20 9-30 64-60 128-90 191-2 3-3 6-3 9-1 3 0 6 2 8 1 3 4 5 6 6 3 2 6 2 10 1z m-249-139c0-5 2-12 0-15-4-4-9-7-15-8-3 0-6 2-9 3l-187 80-7 4c-2 1-4 2-5 3-1 1-2 3-2 5-1 1-1 3-1 5 0 2 0 3 1 5 1 3 3 6 6 8 3 1 7 2 10 1 3-1 5-2 7-3l191-82c2-1 6-3 11-6z m-245 21c4 3 10 2 17 0l145-62 47-20c11-5 14-12 11-21-4-8-12-11-22-6l-194 81c-2 1-5 3-7 5-2 2-3 5-4 8 0 2 0 5 1 8 1 3 3 5 6 7z" horiz-adv-x="909" />

</font>
</defs>
</svg>
