<svg width="84" height="72" viewBox="0 0 84 72" fill="none" xmlns="http://www.w3.org/2000/svg">
<path d="M81.271 1.30005C81.7239 1.30005 82.109 1.48357 82.3921 1.82837C82.7387 2.11166 82.9233 2.49824 82.9233 2.95239V67.8479C82.9233 68.3184 82.7284 68.7293 82.3921 69.0657C82.0898 69.3679 81.698 69.5002 81.271 69.5002H67.6392C67.211 69.5002 66.8176 69.3685 66.4751 69.1116L66.4175 69.0696L66.3745 69.012C66.1177 68.6695 65.9868 68.276 65.9868 67.8479V17.0891C65.9852 17.0865 65.9818 17.0842 65.979 17.0803L56.6235 19.2766L56.2407 19.3733L56.1802 19.3879H56.1187C55.7244 19.3879 55.3478 19.2624 55.0845 18.9407C54.8388 18.6404 54.7567 18.246 54.7554 17.842L54.563 7.76196V7.7522C54.563 7.35586 54.6534 6.98493 54.8589 6.66528C55.0647 6.34538 55.3638 6.11156 55.7241 5.95142L55.7271 5.94946L65.6147 1.63013L65.6274 1.62427L65.6392 1.62036C66.1953 1.41181 66.7358 1.30005 67.2554 1.30005H81.271Z" stroke="#D9D9D9"/>
<path d="M25.3599 0.531982C32.8142 0.531982 38.7725 2.6082 43.1744 6.81128C47.5814 10.9552 49.7642 16.602 49.7642 23.6882V47.1121C49.7642 54.3237 47.5834 60.0952 43.1802 64.3669L43.1773 64.3699C38.7751 68.5748 32.8158 70.6521 25.3599 70.6521C17.9044 70.6521 11.9755 68.5746 7.63629 64.3669L7.63336 64.364C3.2954 60.0918 1.14803 54.3215 1.14801 47.1121V23.6882C1.14801 16.5418 3.29645 10.8639 7.63922 6.71851C11.9788 2.57628 17.9065 0.531998 25.3599 0.531982ZM25.3599 15.1638C23.1112 15.1638 21.3649 15.8876 20.065 17.3054L20.0572 17.3132C18.7617 18.6676 18.0836 20.5783 18.0836 23.1121V47.9763C18.0836 50.5104 18.7307 52.459 19.9703 53.8796C21.2651 55.228 23.0412 55.9236 25.3599 55.9236C27.6838 55.9236 29.4628 55.2251 30.7584 53.8708L30.7593 53.8699C32.1222 52.4477 32.8276 50.5028 32.8277 47.9763V23.1121C32.8277 20.5843 32.1215 18.6763 30.7662 17.321L30.7584 17.3142L30.7515 17.3054C29.4543 15.8904 27.6773 15.1638 25.3599 15.1638Z" stroke="#D9D9D9"/>
</svg>
