<svg width="107" height="72" viewBox="0 0 107 72" fill="none" xmlns="http://www.w3.org/2000/svg">
<g opacity="0.5">
<path d="M80.5117 0.5C85.5027 0.500059 89.9021 1.44033 93.6953 3.33691H93.6943C97.4748 5.16315 100.364 7.68365 102.339 10.9043C104.376 14.0583 105.395 17.545 105.396 21.3516C105.396 24.06 104.734 26.7286 103.423 29.3516C102.183 31.9597 100.332 34.6819 97.8818 37.5186L97.877 37.5244C95.2987 40.425 91.1866 44.4048 85.5547 49.4609L85.5557 49.4619L81.7393 53.0117H104.127C104.674 53.0117 105.166 53.1711 105.537 53.542C105.908 53.913 106.067 54.4049 106.067 54.9521V67.5283C106.067 68.0753 105.908 68.5666 105.537 68.9375C105.166 69.3085 104.674 69.4678 104.127 69.4678H58.0469C57.4998 69.4677 57.0086 69.3084 56.6377 68.9375C56.2668 68.5666 56.1075 68.0754 56.1074 67.5283V55.7197C56.1075 54.8774 56.4212 54.1618 57.0459 53.6152L57.0479 53.6143C59.9167 51.1279 62.787 48.4174 65.6582 45.4824L65.6621 45.4785C68.606 42.5346 70.4615 40.6781 71.2295 39.9102H71.2305L71.2549 39.8857C71.2716 39.869 71.2966 39.8431 71.3301 39.8096C71.3971 39.7426 71.498 39.6427 71.6318 39.5088L77.666 33.4746C80.5362 30.6682 82.6732 28.2749 84.0889 26.293C85.5197 24.2897 86.1551 22.7848 86.1553 21.7363C86.1553 20.3446 85.6422 19.2383 84.6074 18.376L84.6006 18.3711L84.5947 18.3652C83.5491 17.436 82.202 16.9561 80.5117 16.9561C78.7519 16.9561 77.3736 17.4385 76.3311 18.3652L76.3252 18.3711L76.3193 18.376C75.2948 19.2298 74.7715 20.3939 74.7715 21.9277V23.8477C74.7715 24.3949 74.6121 24.8868 74.2412 25.2578C73.8702 25.6288 73.3783 25.7881 72.8311 25.7881H57.4717C56.9245 25.7881 56.4325 25.6288 56.0615 25.2578C55.6905 24.8868 55.5312 24.3949 55.5312 23.8477V19.0303L55.5322 19.0127C55.795 15.2687 57.0467 12.0018 59.291 9.22949V9.22852C61.5884 6.40599 64.5717 4.24583 68.2256 2.74512L68.2285 2.74414C71.9427 1.24549 76.0396 0.5 80.5117 0.5Z" stroke="#D9D9D9"/>
<path d="M25.5762 0.5C33.2859 0.500032 39.4365 2.63999 43.9668 6.97168C48.5022 11.2441 50.748 17.0828 50.748 24.4238V46.3115C50.748 53.7781 48.5041 59.7423 43.9727 64.1426L43.9697 64.1455C39.4391 68.4791 33.2875 70.6201 25.5762 70.6201C17.8648 70.6201 11.7132 68.479 7.18262 64.1455L7.17969 64.1426C2.70976 59.804 0.5 53.8383 0.5 46.3115V24.4238C0.500034 17.085 2.71243 11.2476 7.18262 6.97461L7.6123 6.5752C12.0994 2.50972 18.1057 0.5 25.5762 0.5ZM25.5762 16.9561C23.6487 16.9561 22.1969 17.5826 21.1553 18.7979L21.1475 18.8066C20.1028 19.9675 19.5479 21.6251 19.5479 23.8477V47.2725C19.5479 49.4878 20.0994 51.1811 21.1475 52.4092C22.1867 53.5639 23.6406 54.1641 25.5762 54.1641C27.5116 54.164 28.9647 53.5638 30.0039 52.4092L30.0049 52.4082C31.1169 51.1791 31.7001 49.487 31.7002 47.2725V23.8477C31.7001 21.6317 31.1169 19.9778 30.0137 18.8164L30.0049 18.8066L29.9961 18.7979C28.9545 17.5827 27.5036 16.9561 25.5762 16.9561Z" stroke="#D9D9D9"/>
</g>
</svg>
