<svg width="113" height="72" viewBox="0 0 113 72" fill="none" xmlns="http://www.w3.org/2000/svg">
<path opacity="0.5" d="M25.5762 0.5C33.2859 0.500032 39.4365 2.63999 43.9668 6.97168C48.5022 11.2441 50.748 17.0828 50.748 24.4238V46.3115C50.748 53.7781 48.5041 59.7423 43.9727 64.1426L43.9697 64.1455C39.4391 68.4791 33.2875 70.6201 25.5762 70.6201C17.8648 70.6201 11.7132 68.479 7.18262 64.1455L7.17969 64.1426C2.70977 59.804 0.5 53.8383 0.5 46.3115V24.4238C0.500034 17.085 2.71243 11.2476 7.18262 6.97461L7.6123 6.5752C12.0994 2.50972 18.1057 0.5 25.5762 0.5ZM89.1514 1.26758C89.7659 1.2676 90.3213 1.46709 90.6357 1.99121C90.9373 2.49403 90.8955 3.08601 90.6758 3.67188L90.6719 3.68262L90.667 3.69238L76.7988 36.1162H86.6357V26.6318C86.6358 26.0847 86.7951 25.5936 87.166 25.2227C87.537 24.8517 88.028 24.6924 88.5752 24.6924H103.743C104.29 24.6924 104.781 24.8518 105.152 25.2227C105.523 25.5936 105.684 26.0847 105.684 26.6318V36.1162H109.6C110.147 36.1163 110.638 36.2756 111.009 36.6465C111.38 37.0174 111.539 37.5086 111.539 38.0557V51.1123C111.539 51.6594 111.38 52.1506 111.009 52.5215C110.638 52.8924 110.147 53.0517 109.6 53.0518H105.684V67.5283C105.684 68.0754 105.523 68.5666 105.152 68.9375C104.781 69.3083 104.29 69.4678 103.743 69.4678H88.5752C88.028 69.4678 87.537 69.3084 87.166 68.9375C86.7951 68.5666 86.6358 68.0754 86.6357 67.5283V53.0518H56.7031C56.156 53.0517 55.6649 52.8924 55.2939 52.5215C54.923 52.1506 54.7637 51.6594 54.7637 51.1123V40.9355C54.7637 40.2269 54.9057 39.5499 55.1904 38.9092L70.8359 2.62598C70.996 2.20064 71.2546 1.85132 71.624 1.6123C71.997 1.37106 72.4426 1.26758 72.9277 1.26758H89.1514ZM25.5762 16.9561C23.6487 16.9561 22.1969 17.5826 21.1553 18.7979L21.1475 18.8066C20.1028 19.9675 19.5479 21.6251 19.5479 23.8477V47.2725C19.5479 49.4878 20.0994 51.1811 21.1475 52.4092C22.1867 53.5639 23.6406 54.1641 25.5762 54.1641C27.5116 54.164 28.9647 53.5638 30.0039 52.4092L30.0049 52.4082C31.1169 51.1791 31.7001 49.487 31.7002 47.2725V23.8477C31.7001 21.6317 31.1169 19.9778 30.0137 18.8164L30.0049 18.8066L29.9961 18.7979C28.9545 17.5827 27.5036 16.9561 25.5762 16.9561Z" stroke="#D9D9D9"/>
</svg>
