<svg width="105" height="72" viewBox="0 0 105 72" fill="none" xmlns="http://www.w3.org/2000/svg">
<path opacity="0.5" d="M78.0439 17.5977L78.0557 17.6348M78.0439 17.5977L78.3037 17.5117M78.0439 17.5977L78.0557 17.6348M78.0439 17.5977L78.3037 17.5117M78.0557 17.6348L78.3037 17.5117M78.0557 17.6348L78.3037 17.5117M25.5762 0.5C33.2859 0.500032 39.4365 2.63999 43.9668 6.97168C48.5022 11.2441 50.748 17.0828 50.748 24.4238V46.3115C50.748 53.7781 48.5041 59.7423 43.9727 64.1426L43.9697 64.1455C39.4391 68.4791 33.2875 70.6201 25.5762 70.6201C17.8648 70.6201 11.7132 68.479 7.18262 64.1455L7.17969 64.1426C2.70977 59.804 0.5 53.8383 0.5 46.3115V24.4238C0.500034 17.085 2.71243 11.2476 7.18262 6.97461L7.6123 6.5752C12.0994 2.50972 18.1057 0.5 25.5762 0.5ZM101.343 1.26758C101.89 1.26758 102.382 1.42785 102.753 1.79883C103.124 2.16979 103.283 2.6609 103.283 3.20801V17.3203C103.283 18.2774 102.942 19.0572 102.203 19.5537L102.204 19.5547L92.0664 26.5947C96.8632 28.138 100.335 31.4285 102.474 36.417L102.712 36.9844C103.862 39.8377 104.436 42.9166 104.436 46.2158C104.436 49.5502 103.749 52.8789 102.382 56.1982C100.613 60.5211 97.6949 63.961 93.6416 66.5107L93.6367 66.5146C89.5804 69.0008 84.8789 70.2363 79.5508 70.2363C74.3458 70.2363 69.6777 68.9656 65.5605 66.417L65.5566 66.415C61.5037 63.8655 58.5241 60.3954 56.6279 56.0146V56.0137C55.5114 53.5792 54.8624 50.7033 54.668 47.3975L54.667 47.3828V47.3682C54.667 46.8111 54.807 46.3014 55.1738 45.9346C55.5407 45.5677 56.0504 45.4277 56.6074 45.4277H71.9668C72.4968 45.4277 72.9798 45.5615 73.3525 45.8877C73.7246 46.2133 73.9228 46.6744 73.998 47.2012L73.999 47.2041C74.2507 49.0284 74.654 50.3974 75.1855 51.3438L75.3652 51.6406C76.2944 53.0734 77.6386 53.7802 79.4551 53.7803C81.394 53.7803 82.8316 52.9733 83.8281 51.332C84.7324 49.7599 85.1953 47.8686 85.1953 45.6396C85.1953 43.3391 84.7603 41.4128 83.916 39.8398C82.8515 38.0717 81.3499 37.2119 79.3594 37.2119C78.7056 37.2119 77.9618 37.4287 77.1201 37.9082C76.3104 38.4069 75.1466 39.2241 73.6221 40.3672C73.2729 40.6963 72.8399 40.8603 72.3516 40.8604C71.7096 40.8604 71.2158 40.5273 70.8867 39.9766L63.3027 29.2246L63.292 29.209L63.2822 29.1934C63.0515 28.8087 62.9229 28.4003 62.9229 27.9756C62.923 27.3278 63.2622 26.8309 63.8223 26.502V26.501L77.3125 17.7236H58.5273C57.9802 17.7236 57.4891 17.5642 57.1182 17.1934C56.7472 16.8224 56.5869 16.3313 56.5869 15.7842V3.20801C56.5869 2.66077 56.7472 2.16982 57.1182 1.79883C57.4891 1.42787 57.9801 1.26758 58.5273 1.26758H101.343ZM25.5762 16.9561C23.6487 16.9561 22.1969 17.5826 21.1553 18.7979L21.1475 18.8066C20.1028 19.9675 19.5479 21.6251 19.5479 23.8477V47.2725C19.5479 49.4878 20.0994 51.1811 21.1475 52.4092C22.1867 53.5639 23.6406 54.1641 25.5762 54.1641C27.5116 54.164 28.9647 53.5638 30.0039 52.4092L30.0049 52.4082C31.1169 51.1791 31.7001 49.487 31.7002 47.2725V23.8477C31.7001 21.6317 31.1169 19.9778 30.0137 18.8164L30.0049 18.8066L29.9961 18.7979C28.9545 17.5827 27.5036 16.9561 25.5762 16.9561Z" stroke="#D9D9D9"/>
</svg>
