<svg id="Layer_1" data-name="Layer 1" xmlns="http://www.w3.org/2000/svg" viewBox="0 0 549.02 89.06"><defs><style>.cls-1{fill:#234fa2;}</style></defs><title>logo-without-quickpit</title><path class="cls-1" d="M7.77,73.82a41.85,41.85,0,0,1-3.06-3.71c1,1.28,2.05,2.45,3.05,3.7ZM27.58,85.69l-.06,0,.19,0-.21-.08.35.08-.21-.11c.34.07.69.14,1,.23A33.79,33.79,0,0,0,32,86.7c.47.12.95.22,1.43.3a34.52,34.52,0,0,0,4,.41l-1.45-.08c-.77,0-1.91-.16-3.3-.37l-1-.18c-.66-.12-1.35-.26-2.08-.44s-2-.51-2.3-.64l.19,0-.17-.07.1,0-.33-.12.45.12M33,87l.86.12h0c-.32-.06-.65-.1-1-.15l-.51-.08h0s.3.06.62.11m-2.95-.48.48.1-.14,0,.28.06-.08,0c.58.12,1,.2,1.87.33s1.52.21,2.28.29l.47,0,.71,0,.44,0,.3,0h.48l.66,0,.67,0h.11l-1.12,0-1.45-.08c-1.24-.08-2.23-.2-3.3-.37l-1-.18-1.31-.23.19,0-.3,0,.27.06-.21,0,.22,0-.49-.09M15.19,50.36c.21.53.41,1,.6,1.48a20,20,0,0,0,4.51,7.09,1.47,1.47,0,0,0-.41,1c-.48,0-.55,0-.51.44-.55.41-.55.41-.46,1-.62,0-.62,0-.75.59l-.52,0c-.18.64-.18.64-.3.7A17.52,17.52,0,0,1,11.93,56a16.67,16.67,0,0,1-.83-2.1,11.07,11.07,0,0,1-.28-1.22l.14-.13a30.16,30.16,0,0,1,4.23-2.15m-1,6.38a1,1,0,0,0,.55.79.32.32,0,0,0,.16,0c.35,0,.57-.43.33-1a.71.71,0,0,0-.23-.3.64.64,0,0,0-.42-.19c-.25,0-.43.25-.39.65m8.28-9.64a4.85,4.85,0,0,1,.81,2c0,.1.07.21.11.31a20.57,20.57,0,0,0,4.14,6.37c-.23.41-.35.64-.6,1.11-.56.11-.56.11-.56.43l-.68.44c0,.47,0,.47,0,.55a.28.28,0,0,1-.15,0l-.15,0-.15,0a.24.24,0,0,0-.16,0c-.19.13-.24.25-.31.59l-.59,0c-.19.43-.32.7-.55.7s-.81-.47-1.93-1.7A19,19,0,0,1,18,52.26c-.16-.4-.29-.78-.39-1.12a13.69,13.69,0,0,1-.4-1.7l.17-.11a28.21,28.21,0,0,1,5.06-2.23m-1.17,7.3a.52.52,0,0,0,.21,0,.69.69,0,0,0,.51-1,1,1,0,0,0-.21-.31.66.66,0,0,0-.47-.22c-.3,0-.56.27-.56.7a1,1,0,0,0,.52.79m55-29.94c0,.08.08.16.13.24-.05-.08-.09-.16-.13-.24m-3.09-4.81c-.44-.59-.89-1.17-1.36-1.74a10.76,10.76,0,0,1,.67.95c.25.37.52.73.78,1.08.39.52.79,1,1.16,1.57.7,1,1.21,1.83,1.84,2.95a42.59,42.59,0,0,0-3-4.65l-.12-.16m-1.36-1.74h0Zm6.75,12,0,0a3,3,0,0,1,.18.72c-2.33-4.14-2.33-4.14-3.84-6.47-.77-1.18-1.23-1.87-1.49-2.28-.36-.57-.37-.6-.37-.67l-.21-1.67.55.69a28.88,28.88,0,0,1,5.22,9.64M75.82,25c.23.45.43.69.48.69s-.11-.47-.36-.88-.33-.46-.34-.46h0c-.07,0,.11.39.24.65m-3-2.77.36.5c1.62,2.26,4.61,6.61,4.75,8.2l-.07,0A3.24,3.24,0,0,0,78,32.3c-.11.05-.11.05-.18.65L77.7,33c0,.69,0,.69,0,.73-.43-.57-.77-1-4.21-6.7-.59-1-.95-1.59-1.26-2.14l-.43-.79a1.09,1.09,0,0,0,0-.17,15.69,15.69,0,0,1,1-1.74m2.08,5.71c.08.22.3.59.51.64h0c.14,0,.13-.41-.18-1-.18-.31-.3-.41-.41-.41l-.08,0a2.36,2.36,0,0,0,.13.72M4.65,56.85a.7.7,0,0,1,.13.17c.1.16.19.33.28.5.49.93.86,1.91,1.4,2.81a22.59,22.59,0,0,0,2.65,3.58c.77.84.77.84.8,1.59,0,.07,0,.17,0,.25H9.68c.05.54.05.54-.19.72.09.17.15.3.26.53l-.41,0c0,.16.06.29.1.5l-.28,0c0,.21.15.4.07.61l-.06,0A21.17,21.17,0,0,1,4,62a22.1,22.1,0,0,1-1.15-2.28,2.22,2.22,0,0,1-.26-.85,5.51,5.51,0,0,1,2.1-2.06m.84,6s.19.52.56.63h.07c.24,0,.14-.55-.08-.94a.76.76,0,0,0-.61-.41,1.56,1.56,0,0,0,.06.71m34-22.54c.21.13.21.13.61,1.21q.3.81.6,1.5a26.64,26.64,0,0,0,4.1,6.39c-.5.36-.5.36-.74,1l-.56.07c-.34.57-.34.57-1,.83,0,.22,0,.44,0,.66h-.82l-.42.63-.66,0c-.45.68-.45.68-.65.75a16,16,0,0,1-5.65-7.35c-.1-.24-.18-.47-.26-.7a14.53,14.53,0,0,1-.67-2.73l.21-.11a51,51,0,0,1,6-2.24m-1.82,7.48a.76.76,0,0,0,.32.08.78.78,0,0,0,.69-1,1.2,1.2,0,0,0-.12-.21.78.78,0,0,0-.64-.35.73.73,0,0,0-.72.69.79.79,0,0,0,.47.84M9.18,53.54c.13.38.27.73.41,1.08a21.47,21.47,0,0,0,4.79,7.28,1.32,1.32,0,0,0-.23,1c-.12.07-.29,0-.39.15s.12.29,0,.43,0,.06-.17.1a.83.83,0,0,0-.21.1c.14.49.14.49.13.59a.22.22,0,0,1-.13,0h-.13a.2.2,0,0,0-.17.07c-.05.06-.06.19-.07.47l-.4,0c0,.32,0,.48-.08.75a19,19,0,0,1-5.42-6.54,18.72,18.72,0,0,1-1-2.31c-.08-.23-.18-.49-.29-.79a1,1,0,0,1,.1-.18,21,21,0,0,1,3.28-2.23M9,59.82a1,1,0,0,0,.59.77l.12,0c.3,0,.37-.46.12-1a.86.86,0,0,0-.3-.35.53.53,0,0,0-.29-.11c-.24,0-.31.31-.24.64M30.71,43.63c.37.84.68,1.71,1,2.57a16.85,16.85,0,0,0,1.05,2.29,23.13,23.13,0,0,0,3,4.17,1.94,1.94,0,0,0-.68,1.08c-.57,0-.7,0-.73.47-.8.43-.8.43-.8,1h-.77l-.37.63h-.56l-.61.86a17.53,17.53,0,0,1-5.79-7.82c-.07-.18-.13-.36-.19-.53a13.24,13.24,0,0,1-.51-2.3l.33-.22a53.2,53.2,0,0,1,5.56-2.24M29,51.16a.65.65,0,0,0,.27.05.73.73,0,0,0,.62-1,1,1,0,0,0-.17-.26.71.71,0,0,0-.55-.27.67.67,0,0,0-.65.67.83.83,0,0,0,.48.84M1.77,59.88h.12l.33.67a27.73,27.73,0,0,0,2.67,4.35c.7.93,1.6,1.68,2.28,2.62.17.23.07.52.17.76a.28.28,0,0,1,0,.13l-.11.06c0,.2.24.47,0,.61l.37.59H7.34c.18.43.18.43.17.5l-.12,0a2,2,0,0,0,.22.52l0,.07a24.24,24.24,0,0,1-5-5.89,26.59,26.59,0,0,1-1.39-2.53A5,5,0,0,1,1,61.9v0a2.57,2.57,0,0,1,.18-.82,7.28,7.28,0,0,1,.6-1.18m1.94,5.85c.1.19.33.55.54.6h0c.15,0-.06-.54-.29-.9A.71.71,0,0,0,3.49,65a2.5,2.5,0,0,0,.22.69M62.54,30.87h.07c.39.76.71,1.4,1,1.95a49.6,49.6,0,0,0,3.94,6.55c-.29.31-.29.31-.43,1-.52.29-.52.29-.54.55l-.54.42L66,42c-.58,0-.58,0-.86.64l-.49.08a2.35,2.35,0,0,0-.2.46c-.06.16-.16.24-.28.24-1.14,0-4.48-6.28-4.92-7.28-.12-.26-.21-.47-.29-.66a22.65,22.65,0,0,1-.9-2.56l.1-.06s3.64-2,4.37-2m-.33,7a.53.53,0,0,0,.23,0c.41,0,.57-.58.41-1a.85.85,0,0,0-.17-.26.69.69,0,0,0-.48-.25c-.27,0-.49.25-.49.68a.87.87,0,0,0,.5.82m-14-.86c.5,1.16.88,2,1.21,2.77a33.38,33.38,0,0,0,3.81,6.33c-.26.31-.35.74-.66,1-.15.14-.37,0-.52.15s-.1.39-.28.51-.49.21-.72.35c0,.21,0,.42,0,.64l-.77,0c-.13.21-.26.42-.4.63l-.63.06c-.52.64-.63.76-.72.76h-.07a10.85,10.85,0,0,1-1.61-1.56,20.32,20.32,0,0,1-3.65-5.89c-.08-.19-.15-.38-.21-.55a11.4,11.4,0,0,1-.76-2.81c.07,0,.16-.13.23-.17s0,0,5.76-2.25m-1.66,7.47a.71.71,0,0,0,.31.08.77.77,0,0,0,.66-1.07,2.39,2.39,0,0,0-.12-.22.78.78,0,0,0-.6-.31.72.72,0,0,0-.7.7.84.84,0,0,0,.45.82M71,25h0a9.09,9.09,0,0,1,.6.89c1.33,2,4.39,6.88,4.43,6.94A2.68,2.68,0,0,1,76,34l-.16,0c0,.62,0,.62-.24.81.05.28.08.45.12.72a.53.53,0,0,0-.23-.07c-.16,0-.2.18-.16.61l-.34.06c-.13.73-.13.73-.22.77a44.45,44.45,0,0,1-4.45-7c-.38-.7-.66-1.24-.88-1.66a5.49,5.49,0,0,1-.6-1.34A23.62,23.62,0,0,1,71,25m1.13,5.81a1.11,1.11,0,0,0,.54.78h.09c.28,0,.24-.61.06-1a1.15,1.15,0,0,0-.36-.44.35.35,0,0,0-.17-.06c-.21,0-.23.36-.16.67M.92,62.84l.25.42a34.92,34.92,0,0,0,2.54,4.06c.75,1,1.63,1.91,2.44,2.88,0,0,0,.06,0,.09a2.21,2.21,0,0,0,.31.56c.07.11.06.14,0,.2a2.91,2.91,0,0,0,.66,1.12H7.05a3.12,3.12,0,0,1,.31.48l0,0a3.31,3.31,0,0,1,.37.55A27.29,27.29,0,0,1,3,67.6l0-.07c-.14-.22-.27-.42-.38-.61-.73-1.18-1.12-1.93-1.2-2.08A3.83,3.83,0,0,1,.9,63a.43.43,0,0,1,0-.11m2.75,5.49c.16.25.46.68.54.68h0a3.73,3.73,0,0,0-.5-.85,1.65,1.65,0,0,0-.35-.41h0a2.58,2.58,0,0,0,.31.58m64-40.53c.29.53.57,1,.81,1.44A60.43,60.43,0,0,0,72.62,36c-.23,1-.23,1-.31,1.16-.51.06-.37.63-.67.85,0,.15,0,.37,0,.63a.24.24,0,0,1-.16,0h-.14a.22.22,0,0,0-.18.07c-.13.15-.07.37-.2.53s-.25,0-.33.12l-.06.07c-.1.17-.1.38-.18.55a.11.11,0,0,1-.11.09c-.66,0-3.38-4.4-4.7-7-.14-.3-.36-.75-.58-1.23a10.24,10.24,0,0,1-.76-2,17,17,0,0,1,3.39-2.1m0,6.05a.93.93,0,0,0,.53.79.32.32,0,0,0,.16,0c.33,0,.44-.53.24-1a.81.81,0,0,0-.28-.35.53.53,0,0,0-.31-.13c-.25,0-.38.29-.34.67M56,33.92a21.85,21.85,0,0,1,1.09,2.27l.09.21A35.09,35.09,0,0,0,61,42.72a1.94,1.94,0,0,0-.36.33.78.78,0,0,0-.16.35c0,.47-.62.47-.76.85,0,.12,0,.12-.56.44-.1.06-.1.06-.14.68-.7.05-.7.05-1,.68a2.43,2.43,0,0,0-.65.09c-.37.71-.37.71-.56.77-.48-.39-3-2.58-5.14-7.57-.06-.15-.11-.29-.17-.42a19.09,19.09,0,0,1-.84-2.74l.16-.11A40.11,40.11,0,0,1,56,33.92m-1.14,7.17a.62.62,0,0,0,.31.08.74.74,0,0,0,.58-1.05.76.76,0,0,0-.16-.26.72.72,0,0,0-.54-.27.65.65,0,0,0-.61.69.82.82,0,0,0,.42.81M77.75,60c.94-2.51.94-2.51,1-2.51l.06,0,0,.09,0,0c.08-.16.1-.19.18-.33a.61.61,0,0,0,0,.12c.08-.08.08-.08.24-.42a2.56,2.56,0,0,0-.06.44.64.64,0,0,1,.14-.2,2.07,2.07,0,0,1,0,.21l.14-.32c-.28,2-3.61,10.06-5.41,11l.84-1.65A65.66,65.66,0,0,0,77.75,60m-1.07,3.69h0a2.58,2.58,0,0,0,.52-.92c.13-.32.13-.41.12-.44h0c-.06,0-.25.35-.37.6a2.15,2.15,0,0,0-.27.76M25.23,83.29c-.06-.08-.06-.08-.07-.13l.19,0,.07,0c0-.06-.07-.11-.1-.16.39.18.39.18.46.18a.16.16,0,0,1,0-.09,1.2,1.2,0,0,0,.27.08h.05a.61.61,0,0,1,0-.06l0,0a1.37,1.37,0,0,0,.43.13h.06l.08,0c.51.31,1,.68,1.49,1,.21.13.66.39,1.17.66,1.19.61,2.49.94,3.69,1.53.24.12.44.31.67.43-.46-.1-1-.22-1.78-.43a26.05,26.05,0,0,1-5.55-2.23,15.68,15.68,0,0,1-1.5-.92l0,0a1.86,1.86,0,0,0,.34.07m4.16,2.12a3.94,3.94,0,0,0,.72.24h0a2.18,2.18,0,0,0-.58-.3,2,2,0,0,0-.51-.17h0s.24.16.37.22M74.27,62.48c.84-1.92.84-1.92,1-1.94l.12.17c.08,0,.08,0,.34-.33.06.06.09.09.13.09s.16-.09.4-.31c0,.12,0,.24,0,.36.17-.15.2-.18.25-.18h0a1.14,1.14,0,0,1,.07.19c.18-.23.18-.23.25-.27,0,.26,0,.26.2.3a59.15,59.15,0,0,1-3.87,8.28,13.27,13.27,0,0,1-2.74,1.88h0c.17-.41.28-.64.71-1.54,1.29-2.65,1.49-3.11,3.07-6.7m-1,4a.05.05,0,0,0,0,0c.14,0,.46-.38.67-.88a.72.72,0,0,0,.07-.37s0-.06-.06-.06-.31.21-.5.56-.27.64-.23.72M26.2,81.84a1.28,1.28,0,0,0,0-.19,1.22,1.22,0,0,0,.29.06c.09,0,.09-.06.1-.21a2,2,0,0,0,.44.23c.06,0,.08-.07.15-.07l.32.06,0,0a.61.61,0,0,1,0-.13l.08,0c.19.08.41,0,.58.15a8.31,8.31,0,0,1,.92,1,18.25,18.25,0,0,0,4,2.87,3.3,3.3,0,0,1-.22.61c-.61-.22-.9-.34-1.33-.52a19.52,19.52,0,0,1-4.71-2.81c-.19-.16-1.13-.95-1.11-1.11h.05a1.79,1.79,0,0,1,.4.11m3.34,2.46a1.67,1.67,0,0,0,.67.31h0c.09,0-.08-.2-.36-.36a1.24,1.24,0,0,0-.49-.21h0c-.11,0,0,.15.17.27M80.12,55.6l-.14.53c0-.19.1-.36.14-.53m.09-.35-.09.35.09-.35m-.76,2.65c-.24.78-.51,1.54-.8,2.3.23-.61.45-1.22.66-1.84,0-.15.09-.3.14-.46m.76-2.65.21-.86-.21.86m-.74,2.59a.14.14,0,0,1,0,.06.14.14,0,0,0,0-.06m-.88,2.5.06-.14-.06.14m-.18.45.18-.45-.18.45m0,0-.25.63.25-.63M80,56.13c-.16.58-.33,1.14-.51,1.71.13-.39.25-.78.36-1.18l.15-.53m.44-1.74Zm-55,30.05a.68.68,0,0,0,.22,0,1.07,1.07,0,0,0-.19-.15l.47.18a.31.31,0,0,1-.05-.1l.25.07L26,84.37c1.61.54,3.14,1.31,4.77,1.8a37.26,37.26,0,0,0,4.95,1.1c-.52,0-1.14-.12-2.05-.27-.55-.08-1.09-.18-1.63-.3a33.79,33.79,0,0,1-3.36-.88c-.48-.16-1-.32-1.41-.49s-1.73-.69-1.92-.82a.9.9,0,0,1,.31.07l-.22-.14m5,1.83a6.52,6.52,0,0,0,.82.19h0c-.06,0-.64-.19-.76-.23L30,86.11h0a3.74,3.74,0,0,0,.47.16M69,65.9a17.86,17.86,0,0,1,1.14-2.31.22.22,0,0,1,.16-.11.29.29,0,0,1,.15.06c.06.05.1.08.15.08s.17-.08.43-.3c.1.07.16.11.22.11s.23-.11.53-.38c0,.19,0,.29,0,.43a1,1,0,0,1,.39-.19c.07,0,.11.06.19.16l.33-.29c.12.28.12.28.38.32-1.68,3.8-3.6,7.63-3.87,8a28.87,28.87,0,0,1-3.5,1.75c.2-.52.33-.84.62-1.5,0,0,1.51-3.34,2.67-5.81m-.4,3.23a.11.11,0,0,0,.1.06c.22,0,.63-.47.76-.82a.67.67,0,0,0,.06-.33c0-.07-.06-.11-.12-.11s-.41.2-.64.58-.21.52-.16.62m-5.49-.77c.85-1.81.9-1.86,1-2a.53.53,0,0,1,.19-.09h0a.33.33,0,0,1,.17.07.27.27,0,0,0,.16.08h0c.18,0,.25-.24.44-.26h0s.06,0,.07,0a.28.28,0,0,0,.18.1c.13,0,.3-.14.6-.44,0,.14,0,.26.09.45a1.73,1.73,0,0,1,.52-.19c.09,0,.13,0,.22.15.33-.22.33-.22.38-.23.13.22.13.22.52.25-.34.74-3.35,7.27-3.59,7.56a27.44,27.44,0,0,1-4,1.61l.54-1.54c.74-2,1.47-3.66,2.35-5.53m-.21,3.22a.2.2,0,0,0,.19.13,1.13,1.13,0,0,0,.76-.63c.11-.33.11-.33.1-.36s0-.06-.3-.22a3.73,3.73,0,0,0-.66.67.54.54,0,0,0-.09.41M56.45,71c.69-1.61.89-2.09,1.16-2.09a.4.4,0,0,1,.22.07.31.31,0,0,0,.18,0c.22,0,.38-.22.59-.23h0a.28.28,0,0,1,.15.06.25.25,0,0,0,.14.06H59a1.4,1.4,0,0,0,.57-.42l.16.43a2.9,2.9,0,0,1,.63-.14c.09,0,.11,0,.15.12l.47-.24a.72.72,0,0,0,.66.26c-.78,1.62-1.22,2.65-2.07,4.75s-1,2.37-1,2.37-3.23,1.23-4.12,1.51a4.23,4.23,0,0,1,.27-1.45A36.77,36.77,0,0,1,56.45,71M56.68,74c0,.09.2.11.3.11h.09a1.16,1.16,0,0,0,.65-.73.35.35,0,0,0,0-.2c0-.13-.19-.16-.3-.16h-.11a1.6,1.6,0,0,0-.55.5.62.62,0,0,0-.09.48M28.16,80a1.56,1.56,0,0,1,.46.13c0-.08.08-.16.13-.24a.86.86,0,0,0,.34.1c.13,0,.17-.09.17-.28.43.29.43.29.46.29h0a.23.23,0,0,0,.14-.07.2.2,0,0,1,.13-.08l.06,0a.83.83,0,0,0,.25.08c.06,0,.11,0,.22-.14a1.57,1.57,0,0,0,.71.2,14.65,14.65,0,0,0,3.35,4.44,9.67,9.67,0,0,1-1.19.78,10,10,0,0,1-1-.63,14.46,14.46,0,0,1-3.5-3.25,8.53,8.53,0,0,1-.74-1.15c-.07-.15-.05-.2.05-.2m3,2.95a1,1,0,0,0,.6.36h0c.19,0,.1-.26-.1-.44a.9.9,0,0,0-.45-.24h0c-.17,0-.15.16,0,.32m1-4.76a1,1,0,0,0,.24,0h.09c.13,0,.19-.18.33-.2h0a.34.34,0,0,1,.16,0,.3.3,0,0,0,.16,0h0l.08,0a.71.71,0,0,0,.23-.28l.37.31a1.52,1.52,0,0,1,.42-.16h0a.44.44,0,0,1,.19.07.4.4,0,0,0,.18.07h0l.23-.18a1.58,1.58,0,0,0,.7.18h.16a12,12,0,0,0,1.77,5,12,12,0,0,1-2.2.95,6.05,6.05,0,0,1-.89-.83,11.35,11.35,0,0,1-2.31-3.84,5.8,5.8,0,0,1-.27-1.27h.05a1,1,0,0,1,.24,0m2,3.22a.63.63,0,0,0,.46.42h.07c.25,0,.32-.29.17-.51a.9.9,0,0,0-.22-.2.5.5,0,0,0-.25-.07.25.25,0,0,0-.23.35m15.57-8.11c.49-1.49.67-1.87.93-1.87a.64.64,0,0,1,.24.07.59.59,0,0,0,.23.07l.13,0c.15,0,.26-.23.41-.23a.19.19,0,0,1,.12,0,.56.56,0,0,0,.24.08c.15,0,.3-.12.62-.37l.22.35a2.14,2.14,0,0,1,.52-.12.79.79,0,0,1,.36.14l.41-.25c.16,0,.23.24.4.25h0a.65.65,0,0,0,.4-.18c-.71,1.79-.71,1.79-2.29,6.81a38,38,0,0,1-4,1.38c-.08-.17-.1-.21,0-1.28a22.12,22.12,0,0,1,1.06-4.87m.67,2.84a.34.34,0,0,0,.26.12.88.88,0,0,0,.73-.7.58.58,0,0,0,0-.1.32.32,0,0,0-.33-.23.75.75,0,0,0-.63.46.41.41,0,0,0,0,.45m-6.65-2.33.14,0a.87.87,0,0,0,.39.1h0c.18,0,.27-.2.45-.22h0a.65.65,0,0,1,.2,0,.51.51,0,0,0,.2.06h.05a1.42,1.42,0,0,0,.47-.33l.33.32c.41-.06.6-.09.7-.09a.21.21,0,0,1,.17.06c.16,0,.27-.17.45-.17h0c.13,0,.18.13.29.16a1.79,1.79,0,0,0,.48,0c-.2.84-.44,1.67-.59,2.52-.22,1.2-.32,2.42-.54,3.62a31.75,31.75,0,0,1-3.65,1.23c-.13-.1-.16-.12-.31-1.14a13.66,13.66,0,0,1,.08-4.51c.22-1.25.36-1.73.64-1.73m.48,4.28c0,.12.17.21.35.21a.48.48,0,0,0,.33-.12.58.58,0,0,0,.28-.58c-.06-.15-.26-.2-.6-.24-.35.39-.35.39-.37.45s0,0,0,.28m-7.05-2a.87.87,0,0,1,.28.05,1.45,1.45,0,0,0,.28,0h.1c.15,0,.23-.17.39-.19h0a.58.58,0,0,1,.19,0,.59.59,0,0,0,.19,0l.08,0c.14,0,.18-.09.4-.31l.37.31c.22,0,.41-.13.63-.13h0a.18.18,0,0,1,.13.06.22.22,0,0,0,.13.06h0c.13,0,.2-.16.33-.19h.05a.33.33,0,0,1,.17.09.39.39,0,0,0,.28.12l.34,0a25.67,25.67,0,0,0,.26,5.66l-3.1,1.1a3.13,3.13,0,0,1-.63-1A10.41,10.41,0,0,1,37,77.87a5.85,5.85,0,0,1,.08-1.74h0m1.68,4a.43.43,0,0,0,.23.07.45.45,0,0,0,.41-.59.64.64,0,0,0-.06-.11.52.52,0,0,0-.39-.17.39.39,0,0,0-.42.38.41.41,0,0,0,.23.42m-23.43-.3h0Zm-4.12-3.41c.22.19.21.53.43.72l.41.26.14.09c.36.31,1.06.85,1.07.86.32.24.68.45,1,.69l.64.47c.39.29.69.52.78.6v0a28.72,28.72,0,0,1-3.58-2.57,18.24,18.24,0,0,0,1.62,1.29c2,1.38,2,1.38,2.07,1.5-.21-.13-.5-.31-.87-.56l-.29-.2c-.63-.43-1.42-1-2.36-1.76l0,0a1.7,1.7,0,0,0,.15.22,3.5,3.5,0,0,1-.68-.5l0,0c-.83-.7-1.63-1.42-2.41-2.18a18.71,18.71,0,0,1-2-2.2c1,.9,1,.9,1.09,1,.9.79,1.93,1.4,2.82,2.2m3.37,2.87,0,0ZM14,78.81h0l0,0Zm-.61-.43,0,0h0Zm-4-3.06a3.81,3.81,0,0,0,.78.69h0a7.71,7.71,0,0,0-.8-.82,2.7,2.7,0,0,0-.49-.42,4.35,4.35,0,0,0,.51.56m7.73,4.89h0c.09,0,.22.05.64.31l.13.08.44.27,2.62,1.68a2,2,0,0,1-.18-.46,36.7,36.7,0,0,0,5.86,3.09,2.15,2.15,0,0,0-.34-.05l.08.06a2,2,0,0,0-.42-.12s0,0,.05.05h-.06s0,0,0,0h-.07l0,0H25.8l-.13,0a29.79,29.79,0,0,1-3.58-1.55l-1.91-1.15.43.19-1.74-1L17.73,81c-.22-.14-.67-.43-.64-.57.15.07.29.15.43.23-.33-.22-.46-.34-.47-.42m7,4.12a7.82,7.82,0,0,0,1.07.39h0a4.44,4.44,0,0,0-.89-.42,3.58,3.58,0,0,0-.7-.26h0a3.73,3.73,0,0,0,.54.29m-3.8-2.06-1.92-1.12a15.27,15.27,0,0,0,1.92,1.12m.15.78h0l0,0h0m-.7-.34Zm0,0h0Zm0,0h0l1.4.68.59.27,1.05.48a3.8,3.8,0,0,1-.6-.38,36.78,36.78,0,0,0,6.9,2.47l-.24,0,.1,0-.39-.09.28.08-.1,0,.15,0-.17,0-.21,0a38.47,38.47,0,0,1-7.12-2.55h0a17.41,17.41,0,0,1-2.43-1.22c1.72.91,3.48,1.65,3.55,1.69a23.74,23.74,0,0,1-3.91-1.94l1.16.6Zm6.91,2.89s.86.27,1,.29c-.37-.15-.76-.24-1.13-.35a3.21,3.21,0,0,0-.62-.18l.73.24m-5.26-6.77h0l-.73-.72c0-.07,0-.19-1-.87a3.39,3.39,0,0,1-.89-.92l.2-.37.45.43.06.06v0a2.41,2.41,0,0,0,.8.75,6.78,6.78,0,0,1,1.41,1.42c0,.19,0,.31,0,.52.32-.07.52-.33.82-.43a6.13,6.13,0,0,1,.9,1.28,16.45,16.45,0,0,0,2,2.27l-.08.25a2.46,2.46,0,0,0-.5-.2.06.06,0,0,1,0,0l-.11,0h-.21a.25.25,0,0,0,0,.08l-.54.06H23.8s-.05,0-.36-.23a16.89,16.89,0,0,1-2-1.9c-.1-.13-.1-.13,0-1.09l-2.58-2.07c-.32-.32-.2-.5-.1-.65,2.36,2,2.36,2,2.61,2.3m2.29,2.39a2.12,2.12,0,0,0,1,.59h0c.06,0,.16,0-.09-.38l-.35-.27A2.71,2.71,0,0,0,24,81a1.77,1.77,0,0,0-.38-.08h-.06s0,.14.13.32m-6-2.37c.85.69,1.8,1.26,2.65,1.94-2.45-1.71-2.46-1.72-2.68-1.9a2.75,2.75,0,0,0-.48-.34c-.07.26.24.5.37.6l.18.14.44.3c.54.34.54.34.87.57a7.23,7.23,0,0,1,1.43.88c.27.3.34.74.67,1a23.75,23.75,0,0,0,2.76,1.73l0,0a.52.52,0,0,0,.21.06l.12,0v0l.22,0,0,0,0,0c.07,0,.14,0,.2,0l0,0a3.81,3.81,0,0,1,.48.18c-.15-.29-.15-.29-1.35-1,.39.3.39.3.44.41a3,3,0,0,1-1.42-.78.11.11,0,0,1,.08,0,3.63,3.63,0,0,1,.9.39,24.93,24.93,0,0,1-2.31-1.92c-.38-.36-.43-.41-.54-.44-.09.15-.07.36-.26.45-.11-.06-.11-.06-.23-.27s-.1-.2-.51-.54-.89-.73-1.32-1L18,78.65l-.13-.11a1.86,1.86,0,0,0-.69-.34h0c0,.08-.05.16.54.64m4.49-4.46c.83.84.83.84.92.85h.09l-.21-.2c-.89-.88-.72-1-.22-1.29a24.18,24.18,0,0,1,2.1,2.52c.2.4-.33.56-.33.9h0l1.2-.53c.13.09.13.09.26.53a13.15,13.15,0,0,0,.41,1.25,15.21,15.21,0,0,0,1.1,2.17,3.84,3.84,0,0,0-.29.27c-.43-.21-.47-.23-.55-.23a.18.18,0,0,1-.18.11h-.31s0,.07-.05.08H26a.51.51,0,0,1-.17,0l-.17,0a.34.34,0,0,0-.16,0,.24.24,0,0,1-.18.05h-.37l-.05,0a11.1,11.1,0,0,1-1.45-2.3c0-.13,0-.13.57-1.17A15.94,15.94,0,0,0,22.91,76a7.09,7.09,0,0,1-1.07-1c-.06-.09-.22-.34.28-.55m3.64,5.1s0,0,0,0l.53.49a1.84,1.84,0,0,0,.41.1h0c.08,0,.19,0,.13-.43l-.24-.25-.31-.28a2,2,0,0,0-.41-.07l-.11,0c-.06,0-.05.19,0,.37m-1.58-2.85a3.16,3.16,0,0,0-1-1.33c.38.42.66.89,1,1.33m27-6.76a.47.47,0,0,0,0,.15s0,.09,0,.12a2.32,2.32,0,0,0,.43,0,10.82,10.82,0,0,0,2.83-.34c.13.05.17.11.37.36l1-.44c.14-.37.44-.68.41-1.11a1.77,1.77,0,0,1-.88.45.39.39,0,0,1-.34-.2,1,1,0,0,1,.83-1.3,1.1,1.1,0,0,1,.38.07c.16.31,0,.64,0,1a28.4,28.4,0,0,0,2.34-4.46c-.74.22-1.43.57-2.17.78h0c-.07,0-.11-.06-.15-.11,1.64-1.05,1.85-1.18.86-4a2.72,2.72,0,0,0-.87.23c-.06.77-.06.77-.06.82.23.24.23.32.2.82h.11c.57,0,0,1.09.07,1.59-.09,0-.19,0-.2-.07a7.74,7.74,0,0,1,.09-1.08c0-.45-.3-.83-.28-1.28a.39.39,0,0,1-.19-.07,5.22,5.22,0,0,1-.07-.7,3,3,0,0,0-.93.25,3.21,3.21,0,0,0-.09.77,6.74,6.74,0,0,0,.38,1.15,11.21,11.21,0,0,1,.06,1.3c0,.19.1.37.15.55a17.31,17.31,0,0,0-2.53,1.56,26,26,0,0,0-1.75,3.2M76,58.49c0,.14-.08.28-.12.42L76,59h0a.85.85,0,0,0,.31-.09.73.73,0,0,1,.31-.09.49.49,0,0,1,.22.06c.15-.16.42-.12.57-.29.07,0,.07,0,.09.35.27-.11.53-.22,1-2.2-.42.88-.45.94-.57.94h0c-.16-.27.1-1.78.55-1.78.07.08.12.13,0,.85A30.06,30.06,0,0,0,79.82,52c-.72.83-.72.83-.85.83.56-1.09.68-1.77.46-4.81-.35.5-.44.63-.36,1.64a7.41,7.41,0,0,1-.13,2.69,19.24,19.24,0,0,0,0-3.48l0,.06c-.4.46-.48.56-.22,3.51.06.7.06.7-1,2-.28.35-.41.51-1.72,4.13m3.57-9.19v0ZM44,72.35a.34.34,0,0,0,0,.15.26.26,0,0,0,0,.12l.63.06a.6.6,0,0,0,.24-.05,1.4,1.4,0,0,1,.45-.06H46a1.38,1.38,0,0,0,.34-.12l1.09-.15.41.32.95-.39c.34-1,.34-1,.34-1.07-.44.3-.55.38-.73.41l-.15,0a.62.62,0,0,1-.43-1,.89.89,0,0,1,.77-.42,1,1,0,0,1,.38.08c.4.18.09.62.16.92a24,24,0,0,0,2-4.23,20.17,20.17,0,0,1-2.39.66c1.06-.72,1.06-.72,1.12-1.37A3.93,3.93,0,0,0,49.07,64c-.79.09-1,.11-1,.37a.49.49,0,0,0,0,.17l0,.13a3.55,3.55,0,0,0,.35.77c.22.42.22.42.13.56s0,.07,0,.14.19.36.1.54-.14.24,0,.61c-.07,0-.21-.08-.23-.18l.06-.91c.06-.15.06-.15-.91-2l-.78.15a1,1,0,0,0-.11.73,6.08,6.08,0,0,0,.51,1,5.45,5.45,0,0,1,.2.89,5.17,5.17,0,0,0,.5.81,10.1,10.1,0,0,0-2.63,1.64c-.22.26-1.3,2.92-1.31,2.93M74.23,54.26h0Zm-.13-.77v0h0v0h0ZM71,61.82l0,.09.1,0h0a7.35,7.35,0,0,0,2.09-.38c.08,0,.1.06.15.37.48-.11.73-.17,1.39-2.15-.35.51-.64.94-.81.94s-.12-.06-.15-.21c-.09-.44.26-1.55.69-1.55a.18.18,0,0,1,.1,0c.18.08.17.46.16.81a31,31,0,0,0,1.77-4.57h0a13.15,13.15,0,0,0-1.25.77.26.26,0,0,1,0-.09,2.73,2.73,0,0,0,.62-1.57v0h0v-.08a25.75,25.75,0,0,0-.14-3c-.23.13-.93.53-.58,2,.15.65,0,2.22-.2,2.32A8.22,8.22,0,0,0,75,54.16c0-.73-.18-1.44-.19-2.17-.21.21-.54.29-.63.62a6.42,6.42,0,0,0,0,1.64,17.08,17.08,0,0,1,.42,1.87,15.84,15.84,0,0,0-1.91,1.93S71.37,60.81,71,61.82m10-14Zm-.6,3.49A9.57,9.57,0,0,0,81,49.7,10.28,10.28,0,0,0,81,47.78h0c0-1.88,0-1.88.1-2.22,0,0,0,.06,0,.09a5.32,5.32,0,0,1,.15-1c.07,1.29.06,2,0,2.61v0h0v0h0a15,15,0,0,1-.27,2.27,6.15,6.15,0,0,0,.24-1,34,34,0,0,1-1.39,7.28,3.2,3.2,0,0,0,0-.42c-.06.13-.2.19-.27.31l-.08-.06c-.11.06-.19.16-.31.19a.29.29,0,0,1-.07-.12c0-.11.06-.25.06-.28a35.47,35.47,0,0,1,1.14-4.22m.72-3.38c0,.34,0,.73,0,1.19a9.4,9.4,0,0,0,0-1.19m-.86,6.63a8.64,8.64,0,0,0,.31-1.25c.07-.4.08-.52,0-.58s-.08.18-.21.7a3.84,3.84,0,0,0-.14,1.13m1-7.16ZM38.08,71.88a26.7,26.7,0,0,0-.82,2.85.36.36,0,0,0,0,.1c.06.1.22.14.41.14a3.93,3.93,0,0,0,.71-.09,1,1,0,0,1,.25,0h.27l.28,0h.15c.15,0,.28-.12.43-.14h0l.14,0,.14,0h.07c.13,0,.22-.14.36-.14h0c.12,0,.12,0,.54.31l.88-.36c.27-.89.27-.89.2-1-.15.09-.28.21-.44.31a.68.68,0,0,1-.36.1.69.69,0,0,1-.68-.84.73.73,0,0,1,.75-.51,1.92,1.92,0,0,1,.44.06,1.11,1.11,0,0,1,.28.75.27.27,0,0,0,0,.12s1.49-3.26,1.4-4a9.76,9.76,0,0,1-2.3.71h-.1c.25-.2.58-.3.76-.6a2.67,2.67,0,0,0-.71-2.42.55.55,0,0,0-.47-.29,2.36,2.36,0,0,0-.73.19,1.94,1.94,0,0,0,.43,1.07,1.63,1.63,0,0,1,.33,1.65c-.37-1.63-.4-1.69-.41-1.71s-.22-.08-.3-.18a7.73,7.73,0,0,1-.49-.81,2.71,2.71,0,0,0-.95.26c.1,1.09,1.77,2.88,1.84,3a18.68,18.68,0,0,0-2.39,1.49M58.14,48l0,.11A18.5,18.5,0,0,0,61,50.57a.45.45,0,0,0,.2,0,10,10,0,0,0,1.42-.26A5.79,5.79,0,0,1,64,50.18a7.49,7.49,0,0,0,.2,2.37h0a1.67,1.67,0,0,1,.25,1.7l0-.06c.07.25.11.36.28.36a3.53,3.53,0,0,0,.67-.15,3.58,3.58,0,0,0-.19-2.47,1.73,1.73,0,0,1-.17-1.35s0,0,0,0c-.07-.68-.07-.68-.51-1,.65-.47,1.44-.7,2.06-1.23a25.17,25.17,0,0,0-3.35-3.11c.54,1.42.14,1.81-.28,1.89l-.13,0c-.53,0-1.3-.55-.36-1.9a4,4,0,0,0,.76,0l0,0h0c-.14-.33-.14-.33-.9-1.09l-1,.39a1.72,1.72,0,0,1-.23.89c-.08.14-.25.07-.35.15s0,0-.36.44c-.14.17-.38.13-.54.26s-.26.42-.46.57a1.94,1.94,0,0,1-.33.23,3,3,0,0,0-1,.89M48,58.81h0l0,0v0h0M48.58,60l0,0v0Zm-.09-.4v0h0Zm-7.11-5-.08.08,0,0c.24.49,3.45,2.29,3.47,2.3a1.15,1.15,0,0,0,.33,0,3.91,3.91,0,0,0,.62-.07s1.88-.31,2.36-.31h0a2.09,2.09,0,0,1,0,1,2.63,2.63,0,0,0-.07,1c.07.34.39.56.47.9.22.1.25.14.11.39.13.39.18.56,0,.85.16.24.24.38.4.38s.38-.13.8-.41a4.37,4.37,0,0,0,.08-1.22,1.45,1.45,0,0,0-.18-.5,4.59,4.59,0,0,1-.55-1.2c-.15-.58-.12-1.18-.25-1.76.87-.43,1.8-.69,2.65-1.13a45,45,0,0,0-4.07-3c0,.49.5.94.09,1.45a.94.94,0,0,1-.74.42,1,1,0,0,1-.63-.24c-.12-.13-.13-.15-.33-.79.34-.57.38-.63.65-.78a.73.73,0,0,1,.35-.07h.58v0c-.13-.27-.13-.27-1.05-1l-1.22.37,0,.14a1.28,1.28,0,0,1-.27.72c-.11.12-.29.05-.42.14s-.3.35-.5.47-.56.2-.75.44A5,5,0,0,1,42,54a4.11,4.11,0,0,0-.63.56m7.22,6.3,0,0v0Zm1.46-9.56-.08.11c.24.5,2.85,2.48,3.57,2.48h0c.06,0,.14,0,.89-.15A12.68,12.68,0,0,1,56,53.44a.41.41,0,0,1,.32.13,5.32,5.32,0,0,0,0,1.48l0,.14c.11.4.39.71.5,1.09.17.54,0,1.13.23,1.66l.93-.21a11.47,11.47,0,0,0,0-1.66,6.91,6.91,0,0,0-.47-1c-.2-.55-.06-1.15-.21-1.72a4,4,0,0,0-.21-.47c.76-.41,1.6-.68,2.35-1.12a31.59,31.59,0,0,0-3.75-3.08c.64,1.62-.1,1.85-.58,1.85a2.13,2.13,0,0,1-.35,0,1,1,0,0,1-.38-1.27.83.83,0,0,1,.76-.56h.18l.14,0a.42.42,0,0,0,.21,0l.05,0c-.19-.35-.19-.35-1-1.06l-1.1.37-.32.9c-.17.15-.46,0-.59.28a.77.77,0,0,1-.48.43c-.63.16-.92.78-1.47,1a1.94,1.94,0,0,0-.79.66M65.72,44.1c1.86-1.87,1.86-1.87,2.18-2,0-.28.06-.5.1-.85l.83-.38c.83,1,1.35,1.57,2.54,2.88.75.83,1.08,1.21,1.09,1.24.09.23-.06.33-1.58,1.23.1.16.3.16.43.28s.12.26.12.55a4.31,4.31,0,0,0,.37,1.87.78.78,0,0,0,0,.14c.39,1.15,0,2.11-.47,2.11a.34.34,0,0,1-.16,0,11.54,11.54,0,0,0-.33-2,3.7,3.7,0,0,1-.26-1.59,1.52,1.52,0,0,0-.1-.66l-.24,0h0a17,17,0,0,1-2.12.39.65.65,0,0,1-.29-.07,16.25,16.25,0,0,1-2.51-2.32l-.07-.08.07-.14a2.23,2.23,0,0,1,.38-.54m3-.66a.54.54,0,0,0,.5.36.42.42,0,0,0,.17,0c.25-.09.3-.21.51-.75l-.28-1L69,41.84c-.36.63-.36.63-.37.94a1.58,1.58,0,0,0,.12.66m9.45-14.89h0v0Zm1.1,2.93c-.28-.82-.57-1.62-.9-2.42a16.45,16.45,0,0,1,.76,2.54c0,.06,0,.13.06.18.28.76.61,1.5.84,2.28-.22-.86-.48-1.72-.76-2.58m-1.09-2.91c.07.19.14.35.19.49-.06-.17-.13-.33-.19-.49M70.35,55.83v0h0l0,0Zm.15.75v0h0ZM65,64.7l0,.09H65l.25,0a12.45,12.45,0,0,0,2.41-.39c.1,0,.12.06.24.36.74-.11.74-.11,1.62-2.08-.29.36-.47.57-.74.88-1.18,0-.09-1.4-.08-1.41a.6.6,0,0,1,.41-.24c.24,0,.35.32.35.49s0,.26,0,.29a39,39,0,0,0,2.12-4.47,12.73,12.73,0,0,1-1.77.79c.37-.39.37-.39.67-2.43-.15-.13-.15-.24-.15-.75-.16-.09-.16-.09-.12-1.37a1.3,1.3,0,0,0-.86.61h0a3.28,3.28,0,0,0,.1,1.48A2.91,2.91,0,0,1,68.14,60c-1,.74-1.84,1.37-3.16,4.67M60.12,64a15.38,15.38,0,0,1,2.48-1.69c.28-1.63.31-1.84,0-2.57a2.12,2.12,0,0,1,0-1.64l.78-.23c.09.68.28,1.34.37,2a6,6,0,0,1,0,1,.38.38,0,0,1,0,.1v0h0v0h0a9.87,9.87,0,0,1-.33,1.18c.7-.24,1.35-.58,2.05-.83-.1.35-3,5.84-3,5.88a3.9,3.9,0,0,1-.93.39c-.08-.13-.21-.34-.29-.34h0a14,14,0,0,1-2.84.36h-.11l-.14,0,0-.08c.37-.92,1.89-3.47,1.9-3.49M62,66.28a.35.35,0,0,0,.28.13c.39,0,.87-.54.91-1a.6.6,0,0,0-.06-.35.35.35,0,0,0-.33-.23c-.3,0-.67.34-.85.79a.69.69,0,0,0,0,.71m-42.6-3.43a.48.48,0,0,0,.23-.19.25.25,0,0,0,0-.09c.13-.36.51-.49.73-.77s.44-.23.57-.46,0-.48.05-.71l.9-.31a50.46,50.46,0,0,0,5.25,3.61c-.57.58-1.42.62-2,1.09l.57.11c.17.3.26.48.42.77v-.05c0,.49,0,.6.47.91h0c.79,1.28.79,1.28.8,1.48s0,.1-.64.6c-.06-.08-.14-.16-.2-.25-.17-.24-.21-.56-.39-.8a9.69,9.69,0,0,1-.87-1.05c-.23-.4-.32-.87-.51-1.29h0a17.73,17.73,0,0,0-2.12.31,2.86,2.86,0,0,1-.46.06.93.93,0,0,1-.24,0,19.39,19.39,0,0,1-3.15-2c-.07-.13-.07-.13,0-.27a1.18,1.18,0,0,1,.62-.68m3.14,0a1.16,1.16,0,0,0,.33.06.52.52,0,0,0,.47-.27.82.82,0,0,0-.05-1c-.16-.29-.32-.43-.84-.43h-.26l-.3.5,0,.07c.13.46.3.89.69,1m-6.15,10h0l0,0,0,0m.58.65,0,0s0,0,0,0m-6.59-4.49a.29.29,0,0,0,.07.17,30.05,30.05,0,0,0,2.77,1.83l.1,0a5.41,5.41,0,0,0,.86-.21,2,2,0,0,1,.67-.08c.58,1,.95,1.56.95,1.56a7.75,7.75,0,0,1,1,.89c.31.44.52.57.66.57a.26.26,0,0,0,.23-.2c-.49-.8-1.26-1.37-1.78-2.16-.31-.37-.55-.8-.88-1.16,1.11-.84,1.11-.84,1-.94l-3.33-2.2c-.06.42.59.69.28,1.16a.3.3,0,0,1-.26.14.85.85,0,0,1-.6-.4,1.1,1.1,0,0,1-.29-1.1l.17,0a1.61,1.61,0,0,1,.68.23h0a9.56,9.56,0,0,0-1.31-1.08l-.53.29c0,.12.09.32.17.6a.22.22,0,0,1,0,.14c0,.1-.18.05-.22.14s.12.34-.06.42-.16.07-.21.71a.7.7,0,0,0-.19.69m5.11,1.7h0a.06.06,0,0,0,0,0Zm.32,1.6h0l0,0m-2-6v.15a19.52,19.52,0,0,0,3,1.91.63.63,0,0,0,.22,0,5.69,5.69,0,0,0,.92-.18,6,6,0,0,1,1-.16,12.29,12.29,0,0,0,.83,1.45c.42.6.95,1.1,1.37,1.68.6-.36.6-.36.39-.76a1.38,1.38,0,0,0-.14-.23c-.26-.38-.64-.66-.92-1s-.39-.86-.68-1.24a1.79,1.79,0,0,0-.5-.38,8,8,0,0,0,1.63-.9,23.88,23.88,0,0,0-3.67-2.36c.2.65.32,1.08.05,1.3a.44.44,0,0,1-.22.06c-.18,0-.47-.11-.84-.64-.19-.27-.19-.27,0-.94a1.15,1.15,0,0,1,.26,0,1.57,1.57,0,0,1,.75.24h0a6.26,6.26,0,0,0-1.35-1.14l-.78.31c.2.71.12.84-.24.89-.07.13,0,.3-.11.41s-.29.08-.38.22,0,.42-.21.57a.87.87,0,0,0-.44.75m19-8.7a.74.74,0,0,1,0,.14A25.2,25.2,0,0,0,36.29,60h.17a11.94,11.94,0,0,0,1.65-.23,5.92,5.92,0,0,1,1.08-.14l.47,0c0,1,0,1.24-.35,1.78a5.15,5.15,0,0,1,1,2.62c1.06-.27,1.06-.51,1-1A1.79,1.79,0,0,0,41,61.84a3.78,3.78,0,0,1-.74-2.65l2.87-1.11a43,43,0,0,0-4.44-3c.78,1.6,0,1.8-.52,1.8a1.09,1.09,0,0,1-.26,0,1,1,0,0,1-.72-1.11.91.91,0,0,1,.87-.65h.27a.74.74,0,0,0,.34-.05l0,0a4.55,4.55,0,0,0-1.16-1l-1.19.35c-.25.79-.25.79-.29.84s-.36,0-.52.16-.19.33-.35.44l-.09,0c-.16.08-.36,0-.52.16a.1.1,0,0,0,0,0,1.18,1.18,0,0,1-.38.47c-.32.25-.71.38-1,.62a1.1,1.1,0,0,0-.39.46M78.41,34.49v.24a.57.57,0,0,0,0,.13c0,.06,1.36,2.35,1.36,2.36s0,0,.08,0,.14-.09.4-.37h.08c.14.73.24,1.47.35,2.2A12.93,12.93,0,0,1,81,40.82l.09.36a4.11,4.11,0,0,0,0-1.33c0-.12,0-.25-.05-.3-.11-.72-.29-1.44-.43-2.16a11.59,11.59,0,0,1-.25-1.17,6.14,6.14,0,0,0,0-1,14,14,0,0,0-1.11-2.68,2.45,2.45,0,0,0,.12.42s.3.91.15,1.1a4.11,4.11,0,0,1-.55-1.74s0,0,0,0a1.56,1.56,0,0,1,.23.25,10,10,0,0,0-.62-1.21c-.1.29-.1.29.06,1.65a9.26,9.26,0,0,1-.21,1.57m-51.2,39c.34.39.34.39.89,1.67-1.22,1.24-1.22,1.24-1.24,1.34A8.83,8.83,0,0,0,27.55,79l0,.06.51,0a.31.31,0,0,0,.15,0,.59.59,0,0,1,.28-.06H29c.11,0,.18-.11.28-.12h.06l.14,0h.23a.37.37,0,0,0,.17-.1,2.4,2.4,0,0,1,.55.26c.19-.12.31-.2.51-.31-.25-.83-.25-.83-.26-.84a1,1,0,0,1-.58.31c-.21,0-.44-.16-.75-.63.08-.36.1-.49.32-.49a2.07,2.07,0,0,1,.44.08c.39.08.36.5.58.72,0-.21,0-.21,0-.22-.05-.63-.18-1.25-.2-1.89-.05-1.28-.05-1.28-.09-1.36a7.16,7.16,0,0,0-.86.33,2.66,2.66,0,0,1-.73.27h-.09a1,1,0,0,0,0-.76A7.31,7.31,0,0,0,26.89,72l-.48.42c0,.14,0,.14.8,1M8.54,68.75a32.82,32.82,0,0,0,4,2.89,1.1,1.1,0,0,1,.26.15c.13.14.13.14-.49,1a10.11,10.11,0,0,0,1.91,2c1.44,1.24,1.22,1.29.9,1.36-.53-.54-1.17-1-1.69-1.52,0,0-.39-.49-1.06-1.45H12.2a.62.62,0,0,0-.3,0,5.78,5.78,0,0,1-.61.22h0a19.87,19.87,0,0,1-2.53-1.74.24.24,0,0,1-.09-.11c-.14-.41-.08-.86-.24-1.27h.06c.08-.2-.15-.43.06-.61,0-.14,0-.14-.32-.73l.33-.27m.69,1.41s.5.82.91.86h0c.19,0,.25-.28-.26-.9-.21-.26-.42-.48-.42-.48a.4.4,0,0,0-.15,0l-.24,0a.94.94,0,0,0,.13.6m24.4,2.15v0Zm-1.9,2.13s-.13,2.16-.08,2.41a.5.5,0,0,0,.05.13c.1.13.1.13.55.13h0a6,6,0,0,0,.61-.15h0a.76.76,0,0,1,.21,0,1.38,1.38,0,0,0,.2,0h.14a8.05,8.05,0,0,1,1-.13,1.14,1.14,0,0,1,.63.22l.72-.34c0-.85,0-.85,0-.91s-.23.19-.35.28a.53.53,0,0,1-.32.1.79.79,0,0,1-.77-.77.52.52,0,0,1,.59-.49,1.55,1.55,0,0,1,.39.06,1.25,1.25,0,0,1,.42.71.47.47,0,0,0,.05.1s.81-3.11.62-3.75a14.45,14.45,0,0,1-2,.63.14.14,0,0,1-.09,0c.37-.44.46-.54.18-1.36a5.15,5.15,0,0,0-1.24-1.73c-.52.22-.58.25-.75.52l.94,1.21c.17.34.07.74.22,1.09a.3.3,0,0,1,0,.29c-.07.23-.07.23-1.27,1-.44.29-.57.37-.65.71M13.31,77.33h0l0,0,0,0m1,.82Zm0,0h0ZM7.36,71.3A29.85,29.85,0,0,0,11,74a1.09,1.09,0,0,1,.23.14c.18.17.17.2.12.4-.14.57-.14.57.78,1.45a9,9,0,0,0,1,.82c.39.33.92.76,1.31,1,.09.09.17.19.26.29a.25.25,0,0,1,.05.22,3.55,3.55,0,0,1-.39-.2c-.17-.16-.4-.34-.64-.53a3.93,3.93,0,0,0-.38-.31c-.72-.51-1.15-1.33-1.88-1.85a.33.33,0,0,0-.11,0,.11.11,0,0,0-.08,0c-.1,0-.11.17-.2.23h0a12.77,12.77,0,0,1-2.32-1.62L8.58,74a12.7,12.7,0,0,1-.88-1.66s0,0,0,0a4.24,4.24,0,0,0-.47-.72l.09-.25m7,6.82h0l0,0h0l0,0v0Zm-6-5.44s.6.74.87.76h0c.12,0,0-.34-.52-.88l-.41-.42A.72.72,0,0,0,8,72.07H8a1.69,1.69,0,0,0,.34.62M25.43,60.29c1.26-1,1.26-1,1.68-1.25l.07,0c.14-.11.15-.32.29-.43s.34,0,.46-.15a4.34,4.34,0,0,0,.22-.82l1.09-.35,1.1,1h0c.07,0,3.49,2.21,4.35,2.85a23.23,23.23,0,0,0-2.8,1.35c.23,1.47.23,1.5.54,1.91.79,1.06.79,1.06.86,1.63s.08.57-.81.94c-.74-1.83-.74-1.83-1.2-2.12h0c-.12-.45-.12-.45.14-.6s.19-.32.18-.55,0-.12,0-.94l-.5,0a4.59,4.59,0,0,0-.9.12,13.57,13.57,0,0,1-1.51.22.64.64,0,0,1-.2,0,21.12,21.12,0,0,1-3.36-2.16s0-.08,0-.11a.86.86,0,0,1,.3-.41M29.89,60c.44,0,.76-.52.76-.53.14-.32.14-.32-.34-1.27-1,.13-1,.14-1.4.79.34.78.69,1,1,1M79,42.87ZM75.72,38a.24.24,0,0,0,0,.08l0,.07a27.52,27.52,0,0,0,1.86,2.39l.07,0a3.16,3.16,0,0,0,.69-.31.62.62,0,0,1,.43-.1h0a28.86,28.86,0,0,0,.54,4.31c.2-.32.29-.49.29-.49a16.41,16.41,0,0,0-.47-2.86C79,39.55,79,39.55,79.29,39s.3-.56.28-.7a23,23,0,0,0-1.67-2.72A8.37,8.37,0,0,1,78,37.19h0c-.71,0-.59-1.77-.58-1.79a.16.16,0,0,1,.11,0h.07l.34.25c-.07-.12-.27-.47-.79-1.26-.15.15-.24.22-.39.35a2.53,2.53,0,0,1,.07.81.17.17,0,0,1,0,.07l-.45.79A8,8,0,0,1,75.72,38m.53,9.22h0v0s0,0,0,0ZM72,40.35c.26-.16.19-.49.34-.7s.28-.13.37-.26a.11.11,0,0,0,0-.06c.06-.1,0-.23.05-.34s.24-.1.33-.2.06-.06.07-.87l.62-.36L77,41.66a3.25,3.25,0,0,1-.67.7,3,3,0,0,0-.7.73A7,7,0,0,0,76,45.78l.07.12,0,0c.26,1.72.26,1.72-.37,2,0-.09-.53-2.26-.53-2.28s0-.07.11-.34.13-.32.13-1.75h-.18a1.17,1.17,0,0,0-.46.07,8.25,8.25,0,0,1-1.13.33l-.07,0a27.11,27.11,0,0,1-2.27-2.41.56.56,0,0,1-.05-.08s.05-.11.07-.17c.29-.61.45-.74.69-.88m2.23.06a.31.31,0,0,0,.18.05c.29,0,.53-.37.28-1.26-.06-.17-.1-.29-.18-.5l-.44-.14a1.42,1.42,0,0,0-.28.84s.09.82.44,1M11.64,75.14c-.18,0-.18,0-.21.06s0,.07.16.22c.51.54.76.76,1,1l.56.45c.39.33.92.76,1.31,1,.19.15.34.27.42.32s.12-.12.05-.19a21.28,21.28,0,0,0-1.8-1.53,12.08,12.08,0,0,1-1.47-1.34M65.09,50.5l0,.11,0,0h0a19.3,19.3,0,0,1,.63,2.09,7.93,7.93,0,0,1,0,1.56.86.86,0,0,0,.27,0c.32,0,.63-.23.69-1a3,3,0,0,0-.22-1.68,4.85,4.85,0,0,1-.36-1.91,1.23,1.23,0,0,0-.43-.1c-.33,0-.42.31-.6,1m-5.85,4.42,0,0,0,0h0Zm.24,1.24h0v0Zm-1.83-2.7a3.17,3.17,0,0,0,.07,1.18c.12.45.42.82.52,1.27s0,1,.11,1.5c1.7-.18.9-2.49.81-2.58a1.73,1.73,0,0,1-.31-1.76h0L58.71,53a.71.71,0,0,0-.35-.11,1.75,1.75,0,0,0-.64.21l-.07.4m-40.51,28,.64.38-.64-.38m-.32-.19-.66-.42.66.42m.32.19-.32-.19.32.19M40.55,59.61a3.29,3.29,0,0,0,.18,1.31c.19.47.6.81.77,1.29.11.31,0,.65.18,1v0a.34.34,0,0,0,.23.17A3.87,3.87,0,0,0,42.7,63c.08-.06.07-.22.09-.32a2.78,2.78,0,0,0-.41-1.59h0a1.17,1.17,0,0,1-.48-1.34h0l-.27-.52c-.85,0-.85,0-1.07.2,0,.06,0,.14,0,.2m-25.74,15h0l0,0,0,0Zm.86.92h0l0,0,0,0m-1.49-1.46h0l0,0,0,0ZM13.86,73l0,0Zm-.72-.2.26.38a4.16,4.16,0,0,0,.86.94,2,2,0,0,1,.47.41.6.6,0,0,1,.08.08c.06.06.15.07.21.13s.06.13.11.19l0,0a7.4,7.4,0,0,0,.73.75.3.3,0,0,0,.15.05c.13,0,.25-.09.2-.21a9.33,9.33,0,0,0-1.67-1.79,2.72,2.72,0,0,1-.72-.77v0s0,0-.05-.05l-.31-.33c-.26,0-.26,0-.38.15m2,2.15v0l0,0,0,0m.55.63h0l0,0h0l0,0ZM14.2,74.11h0l0,0v0Zm.92.83,0,0,0,0v0ZM12.9,72.81a.61.61,0,0,0-.33.1l.26.38a6,6,0,0,0,.66.8c.43.41.91.76,1.33,1.18.16.16.3.34.47.49l.24.21h.05c.06,0,.19,0,.2-.11s-.06-.24-.29-.46-.24-.32-.37-.46l-.29-.29-.05,0c-.07,0-1-.79-1-.8a12.64,12.64,0,0,0-.92-1m1.91,1.82,0,0h0l0,0Zm.6,5.21h0m-2.09-1.49h0l0,0,0,0m.65.46h0l0,0,0,0m-2-1.64h0c0,.06,0,.06.08.15l.21.18c.36.31,1.06.85,1.07.86.32.24.68.45,1,.69l.64.47c.44.32.45.33.5.34h0s-.05-.2-1.89-1.49a6.77,6.77,0,0,1-.87-.65l0,0c-.62-.5-.71-.57-.76-.57m.16.25Zm0,0,0,0,0,0M73,49.27h0v0h0Zm0,1h0v0Zm-.37-2.64v0h0l0,0Zm-.89-1.3-.09,0a12.22,12.22,0,0,0,.08,1.62c.1.45.34.85.41,1.3s0,1,.08,1.54h.11a.65.65,0,0,0,.67-.55c.06-.22-.07-.42-.06-.63a3.18,3.18,0,0,0,.08-.33s-.11-.85-.12-.85a1.47,1.47,0,0,1-.26-.81c-.17,0-.18-.28-.19-.67a1.63,1.63,0,0,0-.14-.8l-.57.15m1.16,2.09v0h0v0m3-5.27a.53.53,0,0,0,0,.33,10.87,10.87,0,0,0,.16,1.71c0,.25.08.4.16.75l0,0,0,.07a1.77,1.77,0,0,1,.17,1.16.51.51,0,0,0,.11.44h0c.1,0,.36,0,.43-.25a4.81,4.81,0,0,0-.19-2.09,4,4,0,0,1-.26-1.79h0a.19.19,0,0,1,0-.08c-.07-.32-.19-.41-.29-.41a.47.47,0,0,0-.29.17m.45,4.09v0M11.9,75l-.19.11c.08.1.2.23.29.32a6.35,6.35,0,0,0,.6.6l2.45,2c.08-.18-.16-.41-.23-.48-.93-.91-2-1.69-2.92-2.57M49.32,56.43a3.57,3.57,0,0,0,.06,1.37,1.94,1.94,0,0,0,.31.63,2.08,2.08,0,0,1,.38.77,4.91,4.91,0,0,1,.06.86,4.67,4.67,0,0,0,.14.5l.94-.58a3,3,0,0,0,0-1.12,13.77,13.77,0,0,0-.68-1.46c-.11-.32,0-.66-.09-1,0-.12,0-.12-.22-.37l-.91.16,0,.22m-33.39,15h0v0h0Zm-.46-.69v0h0v0Zm0,0a2.42,2.42,0,0,0,.25.31c.12.15.15.36.29.5.36.37.76.7,1.12,1.08a6.29,6.29,0,0,1,.59.74l.09.12a.35.35,0,0,0,.21.08.46.46,0,0,0,.34-.22,7.14,7.14,0,0,0-.54-.84A18,18,0,0,1,16.42,71a4.76,4.76,0,0,0-.44-.65.68.68,0,0,0-.19,0,.3.3,0,0,0-.31.18.36.36,0,0,0,0,.1s0,.09,0,.12m61-27.4a.45.45,0,0,0,0,.2c.11.51.2,1,.32,1.53.06.23.15.46.19.7,0,0,.06.44.09,1.44l.16,0c.38,0,.37-.4.36-1.06a5.17,5.17,0,0,0-.09-1c-.06-.35-.2-.67-.28-1s-.09-.67-.15-1L77,42.71l-.42.16c0,.16-.07.31-.1.46m0,.1h0v0ZM32.71,62.21a1.13,1.13,0,0,0-.6.18,3.89,3.89,0,0,0,.33,1.54c.22.47.65.78.87,1.25.12.26.06.55.21.8a.34.34,0,0,0,.21.15l.76-.38A1.72,1.72,0,0,0,34,64.23a3,3,0,0,1-.53-.75c-.17-.39-.2-.82-.34-1.22a2.48,2.48,0,0,0-.42,0M73,50.24v0h0v0Zm-.34-2.62h0l0,0h0Zm.24.76h0v0h0Zm-.24-.77a.45.45,0,0,1,.15.19.19.19,0,0,0,0,.07,3,3,0,0,1,.08.46c0,.15.14.24.18.39s-.05.54,0,.81a1.25,1.25,0,0,1-.07.69l.1.08h.07c.25,0,.49-.31.58-.45a5.19,5.19,0,0,0,.07-.61,3.42,3.42,0,0,0-.26-1.81,1.85,1.85,0,0,1-.18-.92v0h0s0,0,0-.07c-.06-.3-.08-.41-.11-.57-.49.13-.49.13-.6.27s-.06.08,0,1.44m.73-1.1v0ZM73,49.24h0v.06s0,0,0,0ZM77.15,43a6.06,6.06,0,0,0,.08.79c.09.5.28,1,.36,1.47s.06,1.12.13,1.68h.09c.25,0,.85-.36-.25-4.38-.13,0-.42,0-.41.43M75.93,53.77c0,.19-.13.35-.14.54a6.1,6.1,0,0,0,0,.74c.5-.43.6-.69.62-.8a5.64,5.64,0,0,0,.06-2,8.44,8.44,0,0,1-.07-1.55c-.35.09-.37.09-.48.24a3.44,3.44,0,0,0-.15,1.17c0,.22.06.56.08.7a3.37,3.37,0,0,1,.06.94m-.15.55v0h0v0h0ZM16.71,70.12l-.5.14a2,2,0,0,0,.11.26,3.86,3.86,0,0,0,.43.71c.26.32.59.57.87.87a4.57,4.57,0,0,1,.71.92c.07.12.07.12.09.14l.17.17a.37.37,0,0,0,.17,0,.39.39,0,0,0,.34-.22A6.67,6.67,0,0,0,18.37,72c-.26-.34-.61-.58-.89-.89s-.35-.55-.56-.79l-.21-.19m6,.43h0v0Zm-.92-1.36h0m-1.36-1.5a.53.53,0,0,0-.42.2l0,.16a3.76,3.76,0,0,0,.54,1.09c.28.38.63.69.9,1.07L22,71c.49-.11.49-.11.63-.43-.38-.55-.65-1-.8-1.18a1,1,0,0,0-.12-.17c-.05,0-.13,0-.19-.1a.82.82,0,0,1-.19-.21,6.48,6.48,0,0,1-.55-.94c0-.06-.08-.14-.11-.21a1.48,1.48,0,0,0-.32,0m1.22-.18-.6.09a2.46,2.46,0,0,0,0,.28,2.19,2.19,0,0,0,.36.77l.39.56,0,0h0a2,2,0,0,1,.92,1.33v0c.21.13.3.19.43.19a2,2,0,0,0,.49-.11,3.93,3.93,0,0,0-.45-1.16c-.45-.69-1-1.29-1.54-1.94m57.53-27.3c.06.63.09.81.15,1.18s.25,1,.34,1.46A10.63,10.63,0,0,1,79.76,44l.29-.22a8,8,0,0,0-.1-1.36s-.33-1.7-.56-2.8c-.3.13-.3.13-.25.63M70.56,57.33a4.3,4.3,0,0,0-.12,1.08l.75-.64a7.5,7.5,0,0,0,.2-.92,2.85,2.85,0,0,0,0-.75c0-.37-.17-.71-.21-1.07s0-.46,0-.68a.44.44,0,0,0-.08-.15l-.58.21c0,.11-.08.25-.1.36a3.45,3.45,0,0,0-.06,1c0,.18.15.31.16.49v.36c.14.07.13.24,0,.75m0-.72v0h0Zm-.18-.78h0l0,0h0Zm10.46-18h0v0Zm-.12-.62h0v0Zm.41,2.26h0v0h0v0m-.62-3.21a.61.61,0,0,0,0,.45c.23,1.22.23,1.22.27,1.42a18.06,18.06,0,0,1,.38,2.21c0-.19,0-.19,0-.86h0s0-.07,0-.1c-.2-1.34-.6-3.09-.6-3.11M81,38.61a.08.08,0,0,0,0,0v0Zm-.62,1.62h0Zm-.26-1.07-.19.1a3.29,3.29,0,0,0,0,.41,6.6,6.6,0,0,0,.09.68,21.2,21.2,0,0,1,.49,3c.25-.3.25-.3.14-1.32-.08-.79-.55-2.86-.56-2.87M59.27,54.93h0l0,0Zm-.27-2-.13.11c.14.63.26,1.18.35,1.64,0,.07,0,.17.05.23s.28.31.32.53a1.25,1.25,0,0,1-.09.69h0l0,.07c0,.18.1.36.16.54l.87-.52a3.5,3.5,0,0,0,.12-.66,2.13,2.13,0,0,0-.28-1.26,2.7,2.7,0,0,1-.27-.62c-.1-.35-.1-.7-.18-1-.6.05-.68.06-.94.29m-.16.13h0l0,0v0ZM17.61,70a1.45,1.45,0,0,0-.57.16,1.34,1.34,0,0,0,.07.18,1.77,1.77,0,0,0,.29.5c.31.39.71.69,1,1.07s.42.68.68,1c.11.13.23.24.34.36l.29-.43c-.12-.31-.19-.48-.28-.73v0c-.31-.39-.5-.63-.78-1l0,0A3.82,3.82,0,0,1,17.61,70M63.76,58a1.29,1.29,0,0,0-.06.5A11.27,11.27,0,0,0,64,59.74a1.61,1.61,0,0,1-.12,1,.26.26,0,0,0,0,.17c0,.19.06.32.1.55.87-.46.88-.51,1-1.32s.1-.78-.36-2.57h0c-.59,0-.77.19-.81.35m0,2.91v0h0l0,0h0Zm15.7-9.19c.64-.54.52-2.45.4-4.48a1,1,0,0,0-.33.7,9.07,9.07,0,0,0,0,1.48,6.88,6.88,0,0,1-.07,2.3m0-2.36v0ZM25.39,75.74ZM22.9,73.68a2.36,2.36,0,0,0,.42.64,4.65,4.65,0,0,0,.45.47,6.13,6.13,0,0,1,.56.57c.24.3.44.64.69.94l.37-.56a4.75,4.75,0,0,0-1.08-1.33,2.72,2.72,0,0,1-.43-.49l-.47-.6c-.2,0-.57.07-.51.36M81.09,39.47h0v0h0v0ZM81,38.61h0v0m.14.9Zm-.29-1.68h0v0h0v0m-.3-1.74a6.9,6.9,0,0,0,.18,1.16h0v-.06l0,.08c.3,1.51.3,1.51.47,2.77A9.26,9.26,0,0,0,81,38.75s0,.07,0,.1,0,.21,0,.33c0-.11,0-.22,0-.33a.77.77,0,0,0,0-.15c0-.36-.12-.75-.18-1.11s-.09-.44-.13-.66-.07-.36-.11-.54a1.2,1.2,0,0,0-.09-.3m.58,3.09c0-.12,0-.22,0-.33,0,.11,0,.22,0,.33M21,76.89v0h0l0,0h0Zm-1.28-1.14a.7.7,0,0,0-.46.12l.26.49a.25.25,0,0,1,0,.07v0c.42.35.87.66,1.28,1s.65.67,1,1a.94.94,0,0,0,.13-.46c-.32-.34-.62-.7-.95-1,0,0-.11,0-.16-.09a1.82,1.82,0,0,1-.39-.35.6.6,0,0,1-.08-.08h0c-.25-.15-.25-.15-.66-.64m-6.35,0,0,0,0,0Zm-1.18-.63c.24.27.47.47.57.57.4.35.84.66,1.24,1s.6.54.9.8c.07-.17,0-.38-.24-.61,0,0-1.29-1.13-1.32-1.14a6.91,6.91,0,0,1-1-.92c-.18,0-.35,0-.11.29m2.47,1.77h0l0,0h0ZM66.39,49.8a3,3,0,0,0,0,.89c.09.47.38.86.46,1.33a4,4,0,0,1,0,1.16.64.64,0,0,0,0,.24.25.25,0,0,0,.14.18l.68-.52a3.43,3.43,0,0,0,.13-.87c0-.42,0-.42-.37-1.55-.11-.35-.14-.73-.22-1.08a1.27,1.27,0,0,0-.12-.26l-.71.14c0,.1,0,.24,0,.34M19.74,82.71h0Zm.68.33h0l0,0,0,0M19,82.24,18.44,82c0,.07.11.11.41.28l.92.48c.46.21.91.44,1.37.67l.59.27.4.17c-.21-.12-.25-.14-1.89-1-.54-.26-1.07-.54-1.23-.62m.7.46h0ZM79.56,39.94c.06.55.09.73.13,1a3.09,3.09,0,0,0,.11.48c.22.74.22,1.51.39,2.26.26-.24.26-.24.15-1.39-.09-1-.41-1.9-.56-2.86-.28,0-.27.16-.22.56M26.62,66.79h0l0,0h0l0,0Zm0-1.87a.8.8,0,0,0-.53.16c0,.15,0,.41,0,.72v0l.06.12.45.81s.08,0,.12.06a1.67,1.67,0,0,1,.36.33,3.56,3.56,0,0,1,.55,1c.57,0,.66,0,.86-.19a1.62,1.62,0,0,0-.17-.75,3.17,3.17,0,0,0-.62-.84,3,3,0,0,1-.42-.57c-.15-.29-.2-.62-.35-.92l-.35,0M81.34,47.36Zm0,0v0h0v0h0m0,.93a15,15,0,0,0,.14-1.83s0-1.68,0-2.77c0,.86,0,.86,0,1s0,.48,0,.6a23.4,23.4,0,0,1,0,3m.12-4v0ZM27.28,71.83a.35.35,0,0,0-.05.08,2,2,0,0,0,.14.33h0a7.61,7.61,0,0,0,.82.93,1.57,1.57,0,0,1,.45.95.21.21,0,0,0,0,.14l.29.3c.36-.2.48-.28.56-.59h0a3.93,3.93,0,0,0-.45-1c0-.06,0-.06-.55-.63a4.57,4.57,0,0,1-.69-1,1,1,0,0,0-.57.41m1.37,2.4h0v0h0ZM13.87,73h0l0,0v0Zm.22-.52-.31.05c0,.13,0,.21.08.43a.28.28,0,0,0,.08.11c.42.42.89.77,1.3,1.18s.59.7.92,1l.13.1c.27-.12.26-.28-.05-.7a7.57,7.57,0,0,0-.88-1,9.63,9.63,0,0,1-1.27-1.24M29.54,74Zm.5-1.59v0h0l0,0m-.52-.58v0h0Zm-1.36-.68a1.84,1.84,0,0,0,0,.31c.18,1,1.57,1.33,1.36,2.54l0,0c.91-.41.91-.41.47-1.55-.24-.1-.29-.18-.51-.58-.28-.06-.44-.43-.51-.65a1.1,1.1,0,0,0-.25-.45l-.61.4m-13.89,8.4-.3-.21,0,0c.55.4,1.12.79,1.7,1.17s1.11.71,1.65,1l-.69-.44.06,0c-1.09-.67-1.81-1.15-2.06-1.33l-.33-.24-.07,0m8.48-12.17a.77.77,0,0,0-.7.22s0,0,0,.07a1.64,1.64,0,0,0,.21.5,3.1,3.1,0,0,0,.42.5c.5.5.5.5,1.17,1.88.58,0,.6,0,.75-.23-.32-1.08-.32-1.08-1.86-2.94m28-11.2a10.51,10.51,0,0,0,.06,1.12,5.13,5.13,0,0,0,.48.86,3.21,3.21,0,0,1,.31,1.33.48.48,0,0,0,0,.12c0,.07.09.1.13.15l.89-.53c.09-1,.1-1-.27-1.63a2.89,2.89,0,0,1-.46-1.68l-.37,0a1.09,1.09,0,0,0-.63.18l-.14.11m-8.34,4.9h0l0,0v0h0Zm-.46-1.38,0,.06v0l0,0Zm0-.06a.34.34,0,0,0,0,.24c.43,1.21.43,1.21.52,1.27a.92.92,0,0,1,.4.58,4.39,4.39,0,0,0,.18.69.4.4,0,0,0,.29.22l.8-.5a1.72,1.72,0,0,0,0-.82c-.15-.44-.5-.77-.68-1.19s-.12-.61-.25-.89L43.08,59l-.91.13c-.08.17-.15.34-.22.51M81.09,39.18c0-.12,0-.22,0-.33,0,.11,0,.22,0,.33M81,38.75v0a.59.59,0,0,1,0,.14s0-.07,0-.1m-.48-2.68a2,2,0,0,0,0-.24c0,.14,0,.29.08.43a.51.51,0,0,0,0,.13c0,.18.07.36.11.54s.09.43.13.66.07.38.1.61a.88.88,0,0,0,0-.17c-.11-.66-.23-1.31-.37-2M81,38.7c0-.18,0-.35-.08-.5,0,.17.06.34.08.51ZM17.26,80.21l.43.31.13.08.44.27c.64.39,1.79,1.09,2,1.18a1.62,1.62,0,0,0-.54-.48c-.83-.55-1.69-1-2.52-1.57-.13.07-.14.08,0,.21m.3-2.24-.19.12.22.24a1.41,1.41,0,0,0,.23.21l.13.11.61.43c.18.12.36.23.53.36.32.24.62.51.95.75h0a.84.84,0,0,0,.23.12c-.08-.34-.08-.34-.49-.7S18,78.23,17.56,78M77.83,42.41l0,0a7.76,7.76,0,0,0,.09,1c.09.42.25.83.31,1.26s.08,1.07.14,1.6a1.54,1.54,0,0,0,.44-1.08c0-.13-.21-1.62-.25-1.8s-.09-.13-.11-.19a8.5,8.5,0,0,0-.25-.9l-.32.14m.93,2.75h0v0Zm-.25-1.82v0h0v0ZM33.66,69.46a.54.54,0,0,0,.05.22,7.18,7.18,0,0,0,.7.92,1.84,1.84,0,0,1,.34.92,1,1,0,0,0,.1.36.53.53,0,0,0,.22.21l.68-.46a2.88,2.88,0,0,0-.22-1.14,1.59,1.59,0,0,0-.36-.51c-.07-.06-.07-.06-.38-.53h0L34.47,69c-.56.21-.79.31-.81.51m-20.9,8.28h0l0,0h0C15,79.34,15,79.34,15.16,79.45a2.83,2.83,0,0,0-.32-.37L14,78.41A23,23,0,0,0,12.1,77h0c-.13,0,0,.11.66.72m22.7-14Zm0,0h0m-1-1.75-.95.17a3.21,3.21,0,0,0,.25,1.31c.21.42.57.73.8,1.14,0,.07,0,.07.37.81.58-.14.78-.19,1-.55-.18-.43-.18-.43-.49-1.13l-.06,0c-.34-.12-.63-.83-.67-1s0-.31-.1-.45a2.32,2.32,0,0,0-.19-.31M36,64.86h0v0Zm-5.1,1.76v0Zm-2.28-2a1.33,1.33,0,0,0,0,.29,1.12,1.12,0,0,0,.12.41c.22.4.58.69.83,1.06a2.46,2.46,0,0,1,.39,1,.24.24,0,0,0,0,.09l.11.16a.52.52,0,0,0,.27.06,1.1,1.1,0,0,0,.59-.2c0-.34,0-.54,0-.88h0a19.78,19.78,0,0,0-1.48-2.17l-.79.18m7.39.21v0h0ZM35,62a1.06,1.06,0,0,0-.12.1,3.12,3.12,0,0,0,.2.85c.13.27.29.52.43.79l0,0h0A.91.91,0,0,1,36,64.85a.8.8,0,0,0,.47.21,2.23,2.23,0,0,0,.69-.21l.15-.41s0,0,0,0a2.87,2.87,0,0,0-.24-.57l-.24-.59,0,0,0,0c-.26-.15-.26-.15-.92-1.41h-.23A1.08,1.08,0,0,0,35,62m2.31,2.39h0v0M80.22,39.3c0,.32.1.63.13,1v0h0A10.17,10.17,0,0,1,80.77,43c.18-.66.25-1.3-.4-4-.13,0-.18.08-.15.34M30.85,66.66v0h0v0h0Zm-1-2a.46.46,0,0,0,.06.26,4,4,0,0,0,.52.66c.44.53.61.72.47,1.08l.48.92a2.44,2.44,0,0,0,.79-.47,5.56,5.56,0,0,0-.24-1.21,2.12,2.12,0,0,0-.19-.36c-.08-.13-.21-.23-.3-.36a1.85,1.85,0,0,1-.15-.39h0l-.68-.45h0s-.72,0-.8.31m-1.95.1a1.09,1.09,0,0,0-.59.2,1.78,1.78,0,0,1,.06.34,1.59,1.59,0,0,0,.15.56,2,2,0,0,0,.15.2A3.92,3.92,0,0,1,28.8,68a2,2,0,0,0,.94-.17c-.21-.9-.27-1.18-.66-1.59a2.82,2.82,0,0,1-.85-1.42,1.41,1.41,0,0,0-.37-.06M81.42,44.29h0v0h0Zm0,2.37v0h0Zm0,.57a.76.76,0,0,0,0-.17c0-.72.06-1.43.06-2.14h0v-.13c0-.46,0-1.48,0-1.54s0,.06,0,1v.16a27,27,0,0,1,0,2.79M37.3,64.39v0h0Zm-1-2.48a1.15,1.15,0,0,0,.11.52,5.23,5.23,0,0,1,.41.82l0,0,.09.06a.88.88,0,0,1,.41,1.07c.1.15.19.31.29.47l.95-.21c.1-1.08.1-1.08-1.25-3-.24.07-.5,0-.74.11s-.22.18-.23.22M34.8,69.45Zm0,0Zm0-.08v.09l.15.1A2,2,0,0,1,35.89,71a.38.38,0,0,0,.3.4l.65-.43a1.74,1.74,0,0,0-.06-.84,8.55,8.55,0,0,0-.7-1,5.33,5.33,0,0,1-.43-.92l-.8.42,0,.74m6.64-2.69-.1.08a1.27,1.27,0,0,0,.08.39A9.19,9.19,0,0,1,42,68a11.35,11.35,0,0,1,.32,1.43c.62-.19.84-.28,1-.76v0a2,2,0,0,0-.13-.81c-.22-.56-.6-1-.83-1.61a2.5,2.5,0,0,0-.87.41m1.83,2v0h0Zm-.61-2.61c-.14.28.24.88.38,1.11.54.86.42,1.19.24,1.48h.1s1.11-.08,1.15-.83c0-.39,0-.39-1-2.29a2,2,0,0,0-.89.52M73.37,46.44a.34.34,0,0,0,0,.24A5.82,5.82,0,0,1,74,49.53c.65-.34.66-.68.66-1.25a3.43,3.43,0,0,0-.11-1l-.42-1.45L74,45.68l-.41.13c0,.16-.13.39-.22.63m0,.1h0v0h0Zm3.25,4.28a3.39,3.39,0,0,0,0,.79c0,.41.12.8.13,1.21s-.06.93-.08,1.4c.55-.68.55-.68.63-1.19a15.43,15.43,0,0,0-.11-2.54l-.14,0a.46.46,0,0,0-.39.35m.65.92,0,0ZM36,68.08v.09a1.45,1.45,0,0,0,.13.63,2.6,2.6,0,0,0,.4.61,4.46,4.46,0,0,1,.35.5c.13.22.21.48.33.71.55-.13.86-.48.85-.68s-.17-.52-.88-1.43h0c-.07-.18,0-.39-.13-.57a.5.5,0,0,0-.21-.23h0a2.4,2.4,0,0,0-.47.12,2.76,2.76,0,0,0-.36.26M67.5,49.57a2,2,0,0,0,0,.6,2.33,2.33,0,0,0,.17.48,3.46,3.46,0,0,1,.35,1.54,1.41,1.41,0,0,0,.08.6l.7-.56.21-.92h0v0L69,50.88c-.19-.12-.21-.22-.29-.79-.16-.08-.2-.19-.25-.54s-.14-.42-.14-.42a1.41,1.41,0,0,0-.22,0,.51.51,0,0,0-.56.46M69,50.86v0h0l0,0Zm-.29-.78h0l0,0ZM18.4,69.78l-.5.14a.78.78,0,0,0,.05.14,1.85,1.85,0,0,0,.2.36,6.33,6.33,0,0,1,.57.69l0,0a1.55,1.55,0,0,1,.78,1v0l.47.55.4-.42a5.37,5.37,0,0,0-1.93-2.4m11.12,2h0l0,0h0Zm1-.44,0,0s0,0,0,0m-.41,1v0h0l0,0m-.44-1.93a.9.9,0,0,0-.51.17,1.23,1.23,0,0,0,0,.27,2.13,2.13,0,0,0,.32.76c.09.15.26.21.36.33a2.12,2.12,0,0,1,.24.38c.17,0,.25.15.34.46a.42.42,0,0,0,.31.36l.53-.41a1.72,1.72,0,0,0-.14-.6,1.62,1.62,0,0,0-.17-.23c-.13-.15-.13-.15-.43-.55-.07-.09-.19-.14-.26-.23s-.16-.42-.29-.6l0,0a.58.58,0,0,0-.28-.06M14.7,79.79l1.37.89q.3.19.6.42l.06,0c-1.09-.67-1.81-1.15-2.06-1.33l-.33-.24-.07,0a3.45,3.45,0,0,1-.46-.36l.53.37.36.25m1,.65h0l0,0Zm-.39-.25h0l0,0Zm-.63-.42h0Zm9.2-12.64-.75.1s0,.11,0,.15a1,1,0,0,0,.15.38c.27.42.68.73.95,1.15a6.61,6.61,0,0,1,.56,1.23c.78-.26.72-.48.59-.9-.2-.65-.48-1-1.51-2.11M80,47.61a4.18,4.18,0,0,0,0,.51c0,.42.08.85.08,1.27A13.86,13.86,0,0,1,80,50.8c.35-.66.53-1,.28-3.92-.22.11-.22.11-.26.73M25.4,75.75h0Zm-1.65-2.29a3.07,3.07,0,0,0,.81,1c.81.75.83,1.07.84,1.26l.07-.07c.3-.22.55-.41.45-.62a1.91,1.91,0,0,0-.35-.53c-.43-.5-.9-1-1.34-1.45a1.79,1.79,0,0,0-.44.16.2.2,0,0,0,0,.23M37.9,61.57l-.08,0a.92.92,0,0,0,.08.4c.16.36.48.63.63,1A13.12,13.12,0,0,1,39,64.55l1-.15a2.74,2.74,0,0,0-.55-2.32c-.35-.49-.48-.67-.77-.67a3.14,3.14,0,0,0-.73.16M54,57.24v0h0l0,0Zm.19.85h0l0,0Zm-.73-2.15h0a.11.11,0,0,1,0,0,.08.08,0,0,0,0,0m.15.57v0h0l0,0m-1.41-.35a1.34,1.34,0,0,0,.05.63c.13.4.44.71.59,1.1a3.78,3.78,0,0,1,.16,1l1-.37.23-.46L54,57.27c-.26-.12-.28-.24-.39-.74-.28-.18-.3-.27-.16-.59-.14-.19-.2-.27-.41-.27a5,5,0,0,0-.75.11,2.38,2.38,0,0,0-.09.38m-3.59,3.77h0v0Zm0,.87h0v-.06l0,0m-.13-1.27v0h0l0,0Zm-1.84-.94-.13.08a1,1,0,0,0,0,.24.55.55,0,0,0,.07.13,5.62,5.62,0,0,1,.65,1.26,2.69,2.69,0,0,1,.12,1.06l.49,0a.56.56,0,0,0,.49-.17c.28-.32.25-.41.21-.55-.13-.38-.11-.51,0-.72,0-.13-.07-.26-.11-.38-.26-.12-.28-.2-.43-.73-.29-.07-.39-.41-.69-.47h-.11a1.35,1.35,0,0,0-.61.23m1.41.22v0h0Zm17-1.28-.11.13c0,.15,0,.3,0,.45,0,.44.24.85.26,1.29a5.71,5.71,0,0,1-.09,1.26c1.12-.59,1.12-.66.94-2.56h0l-.31-.82c-.64.16-.64.16-.73.24M51.17,64.75v0h0Zm-1.61-.85-.12.05c0,.11,0,.21.05.31a1,1,0,0,0,.13.24,3.55,3.55,0,0,1,.37.87,2.61,2.61,0,0,1,0,1.09v0a.86.86,0,0,0,.1.16,2.2,2.2,0,0,0,1-.61s0-.41,0-1.26c-.22-.12-.23-.2-.31-.68-.29-.09-.26-.47-.53-.58l-.76.39m1.28.18h0l0,0ZM20.49,82.91c-.34-.17-1.23-.61-2.14-1.1,0,.09,0,.09.35.27l.27.14,0,0c.16.08.69.36,1.23.62l1.14.56a3.85,3.85,0,0,0-.89-.51m51.05-27.2a4.28,4.28,0,0,1,0,1.41.36.36,0,0,0,0,.15s0,.1,0,.14a1.42,1.42,0,0,0,.83-1.11,9.18,9.18,0,0,0-.31-2.38c-.53.15-.6.19-.69.6a1.24,1.24,0,0,0,0,.31c0,.3.14.58.19.88m-58.9,19-.24.11a.76.76,0,0,0,.11.14,10.35,10.35,0,0,0,.89.86l0,0h0l0,0a5.89,5.89,0,0,1,1.19,1,.31.31,0,0,0,.23.14h.06s.09-.2-.28-.58c-.12-.12-.12-.12-1.95-1.68m2,2.21,0,0h0s0,0,0,0M43.54,59.3a1.5,1.5,0,0,0,.06.59l.06.13c.15.34.43.61.58.95s.14.61.29.89c0,.08.12.09.18.13l.84-.18a2.21,2.21,0,0,0,0-1c0-.05-.08-.22-1-2l-.88.08a2.24,2.24,0,0,0-.08.42m16.75-6.37a1.44,1.44,0,0,0,0,.49c.1.46.37.87.5,1.33A10.11,10.11,0,0,1,61,55.93c1.28-.73,1.29-.77.19-3.56l-.79.23a2,2,0,0,0-.08.33M44,65.52a1.42,1.42,0,0,0,.07.56,2.25,2.25,0,0,0,.29.54,4.06,4.06,0,0,1,.53,1.32,1.74,1.74,0,0,0,.94-.56,1.14,1.14,0,0,0,0-.49c-.08-.27-.23-.51-.32-.77h0c-.46-.31-.29-.89-.52-1.29-.87.41-.92.43-1,.69m1.06-6.42a.79.79,0,0,0,0,.35,1,1,0,0,0,.14.25,3.3,3.3,0,0,1,.73,2l.33,0c.78,0,.79-.27.8-.65a2.14,2.14,0,0,0-.17-.9c-.23-.57-.62-1.05-.86-1.61l-1,.21,0,.37M20.27,75.54l-.41.11.11.2s.34.51.49.57a1.2,1.2,0,0,1,.17.11l.05,0a3.34,3.34,0,0,1,.3.28,2.88,2.88,0,0,0,.34.23,9.32,9.32,0,0,1,.67.73c.38-.24.22-.45,0-.68a4.1,4.1,0,0,0-.35-.39c-.46-.41-.95-.79-1.41-1.2M21,76.89h0l0,0,0,0h0Zm-.62-.5h0l0,0,0,0M58.92,62.75h0v0Zm-1.44-1.44c.09.38.32.72.38,1.12a7.56,7.56,0,0,1,0,1l0,.41c1-.67,1-.67,1.08-1a3.15,3.15,0,0,0-.6-2.19c-.42.06-.57.08-.76.24s-.15.12-.08.51m-42.8,11-.35.18.09.2a2.91,2.91,0,0,0,.21.27c.27.29.59.52.87.79a5.87,5.87,0,0,1,.77.84l.08.1.24.21c.07-.16.11-.26.17-.38a4.06,4.06,0,0,0-.62-.83c-.46-.49-1-.9-1.46-1.38m3.74,9.28h0Zm.45.1c-1-.55-1.09-.63-1.49-.88,0,0,0,.08.25.27s.8.51.82.52l.68.37,1.05.51.43.19-1.74-1M51.2,64.78v0h0Zm-.32-.68h0Zm0,0,.07,0c.19.13.21.27.26.63.19,0,.23.17.18.53s-.05.42.11.57c.91-.39.95-.61.95-.63.06-.79.06-.79-.73-2.44-.7.34-.81.39-.89.63s0,.11,0,.68m2.73-7.55v0h0l0,0m.36.7h0l0,0h0Zm-.47-1.38,0,0c.07.29.1.4.14.6l.08,0a.49.49,0,0,1,.19.21,1.49,1.49,0,0,1,.11.43c0,.16.22.21.27.36a.68.68,0,0,1-.07.5l.18.43h.17a1.21,1.21,0,0,0,.79-.26c.16-1.24.13-1.34-.87-2.81-.7.14-.7.14-.95.45m-.05,0,0,0h0l0,0Zm.71,2.2,0,0h0Zm-36.3,20c.12.12.23.21.29.26.35.28.73.51,1.09.77s.45.39.69.57l.25.17c0-.1.08-.29-.26-.61A20.1,20.1,0,0,0,18,77.8c-.28,0-.14.22-.11.25m.45,2.62Zm-1-.72v0c.66.45,1,.69,1.1.72s.1,0,1.54,1c-.15-.3-.21-.4-2.57-1.81l-.06.12m1,.73s0,0,0,0Zm51-25.59Zm-1,.87a1.12,1.12,0,0,0,0,.46,4.12,4.12,0,0,0,.89,2.32,3.41,3.41,0,0,0,.2-1.79,6.22,6.22,0,0,1-.21-1.06,1.81,1.81,0,0,1,.21-.8c-.94.54-1,.56-1,.87m-15,6.54Zm0,0h0v0Zm-1.14.25a1.16,1.16,0,0,0,0,.49c.11.38.39.69.49,1.07a4.89,4.89,0,0,1,.12.75c.19,0,1.2-.41,1-1.06a4.43,4.43,0,0,0-.28-.64c-.28-.56-.32-.63-.2-.86-.05-.17-.09-.27-.16-.49a5.75,5.75,0,0,0-.86.43,2.49,2.49,0,0,0-.12.31M61.31,59a1.84,1.84,0,0,0,0,.58c0,.31.13.61.18.92l0,0,0,0h0l.3.7.29,0c.14,0,.22.07.45.25a1.82,1.82,0,0,0,.17-.84,11.72,11.72,0,0,0-.31-1.2c0-.27,0-.54,0-.81v0c0-.08,0-.16-.05-.24-.83.32-.92.7-.92.72M12.18,77l.22.21c.14.14.27.24.35.31l2,1.5a2.29,2.29,0,0,0-.49-.56c-.65-.55-1.36-1-2-1.55l-.08.09M80.46,38.88a1.1,1.1,0,0,0,.05.41,1.06,1.06,0,0,0,0,.14,13,13,0,0,1,.34,1.87c.07.59.07.59.09.7a3.26,3.26,0,0,0,0-1.18,12.93,12.93,0,0,0-.31-1.73l-.09-.39c-.12,0-.13,0-.14.18m-1.69,6.29v0h0v.05Zm-.25-1.8v0h0a3.13,3.13,0,0,1,.26,1.13c0,.21,0,.42,0,.64a.78.78,0,0,0,.09.21l0,.08c.41-.78.41-.78.15-2.56v0c0-.09-.09-.18-.12-.27s-.08-.37-.21-.52a.13.13,0,0,0-.1,0,.3.3,0,0,0-.21.14.74.74,0,0,0,0,.14,5.55,5.55,0,0,0,.15,1m-23.42,12-.13.1c0,.08,0,.13,0,.2.12.41.39.74.51,1.15a11.23,11.23,0,0,1,.2,1.38,1.76,1.76,0,0,0,.94-.24A2.9,2.9,0,0,0,56,55.21c-.73.06-.73.06-.88.15M81.47,44.12c0-.09,0-.19,0-.27,0,.18,0,.37,0,.55v-.28m0-1v.2a1.63,1.63,0,0,1,0,.25c0-.17,0-.34,0-.51Zm0,.73a2.44,2.44,0,0,0,0-.28,2.62,2.62,0,0,1,0,.28M53.31,62.5h0l0,0c.3.6.54,1.12.84,1.78l.92-.34v-.43a4.09,4.09,0,0,0-.23-.52,2.87,2.87,0,0,1-.29-1.53h-.18a1.12,1.12,0,0,0-.76.32.25.25,0,0,0,0,.09l-.27.66v0m11.15-8.26h0l0-.06Zm-1.58-2.05a1,1,0,0,0,0,.47,7.19,7.19,0,0,1,.32.76c0,.21.16,1,.23,1.4l.21,0a.73.73,0,0,0,.77-.71c-.08-.55-.16-1-.26-1.59-.3-.12-.23-.5-.46-.66l-.84.25v.06m1.3.32v0h0l0,0Zm5.47-3.57c.56,1.73.57,1.76.52,2.45h.1c.71,0,.72-.42.73-.86a2.72,2.72,0,0,0-.08-.81c-.09-.37-.27-.7-.36-1.07s0-.78-.11-1.17c0-.21-.13-.41-.19-.62a4.36,4.36,0,0,1-.1,1.66l-.44.37-.07,0M13.31,77.34l0,0,0,0Zm1,.81Zm-2-1.31v0l.44.37,1.73,1.3.09,0a0,0,0,0,0,0,0,1.24,1.24,0,0,0-.3-.32c-.17-.16-.4-.34-.64-.53-.55-.43-1.17-.87-1.31-1a.5.5,0,0,0,0,.13m2,1.29,0,0h0Zm0,0ZM61.6,52.48a1.43,1.43,0,0,0,0,.47c.17.76.49,1.47.72,2.2l.73-.16a2.31,2.31,0,0,0,.07-1.2,15.22,15.22,0,0,0-.62-1.58h-.19c-.27,0-.67,0-.71.27M24.33,67.13l-.11.09a8.29,8.29,0,0,1,1.5,2.21c1.07-.43.89-.78-.77-2.77l-.62.47M15.69,80.44l0,0,0,0Zm-.39-.25h0l0,0Zm-.64-.43Zm-.91-.69h0s0,0,.11.1.31.23.49.36l.36.25,1.37.89,0,0c0-.06,0-.06-1-.73-.63-.43-.91-.61-1.32-.9m7.77,4.64Zm0,0-.21-.09c.74.33,1.48.65,2.24.94l.15.06c-.84-.33-1.43-.57-2.18-.91h0Zm-.21-.09-.39-.18.39.18M33.63,72.69h0v0Zm0-.36h0v0Zm-2.25-2a.45.45,0,0,0,.07.27,8,8,0,0,0,2.19,2.08c-.07-.18-.08-.24,0-.35-.18-.36-.25-.76-.46-1.1a9.07,9.07,0,0,0-1-1.22c-.55.07-.74.09-.78.32m14.14-4.2Zm0,0,.09,0c.38.22.37.72.67,1,.67-.33.67-.33.89-.59-.3-.72-.54-1.3-.86-2l-.3,0a.56.56,0,0,0-.63.48c-.08.4.13.76.14,1.15M80.43,46.74s-.06.06-.05.82c0,.38.05.76.06,1.14s0,.7,0,1.18a2.61,2.61,0,0,0,.28-1c0-.8,0-1.59-.07-2.39l-.2.21m-21.51,16,0,0h0Zm.24-.74a1,1,0,0,1-.22.71.34.34,0,0,0,.09.08.37.37,0,0,0,.15,0,1.28,1.28,0,0,0,1-.83c.1-.47,0-.79-.53-2.12a2,2,0,0,0-.8.47l-.11.12c.06.54.38,1,.43,1.54M68.7,50.1h0l0,0h0ZM69,51.32h0v0Zm-.45-2.15c0,.39.08.59.12.92l0,0c.15.15.17.27.23.75.12.08.16.12.12.26s0,.18.08.77c.73-.37.77-.45.79-.73a2.67,2.67,0,0,0-.06-.83c-.13-.51-.38-1-.52-1.47-.56.06-.56.06-.7.19l-.11.11m.4,1.72v0h0l0,0m8.26.85h0v0Zm0-1.2a5.3,5.3,0,0,0,0,1.25c.09.17.1.29.07,1.41.73-.59.64-1.22.37-3.09l-.41.21c0,.07,0,.15,0,.22M61.42,60.48h0Zm-1.36-.88c-.05.47-.05.47,0,.49A18.53,18.53,0,0,0,60.51,62c.65-.36.72-.39.9-.69,0,0,0-.28,0-.86-.17-.11-.36-.24-.37-1.09,0-.2,0-.28-.19-.33l-.69.46-.11.07m14.26-14a3.44,3.44,0,0,0,0,.57c.09.44.29.85.37,1.3s.06.83.11,1.24l.54-.57a4.53,4.53,0,0,0,.07-.68,4.68,4.68,0,0,0-.63-2.05l-.49.19M66.08,57.25c0,.4,0,.61,0,.86l.07.06c.11.14.29.35.19,1.19,0,.24,0,.34.14.41l.7-.55a2.39,2.39,0,0,0,.09-.41,6.81,6.81,0,0,0-.32-2l-.73.4-.1,0M66,58.1ZM14.41,79.42c-.5-.34-.74-.5-1.12-.79a5.29,5.29,0,0,1,.49.43.31.31,0,0,0,.09.07c.46.33,1.82,1.24,2.08,1.39,0-.06,0-.07-.95-.7l-.29-.2-.3-.2m-1.12-.8h0l0,0Zm7.2,4.29,0,0,0,0Zm-.31-.26c-.63-.35-1.29-.67-1.93-1,.07.12.07.13.24.23l.16.09s1.57.84,2.19,1.11a7.52,7.52,0,0,0-.66-.41m17-14.15Zm0-.1s0,.07,0,.1l.05,0h.07c.13,0,.26.18,1.16,1.5l.87-.57c-.36-.63-.69-1.19-1.15-2-.18,0-.37,0-.55.09a.48.48,0,0,0-.27.16s0,.08,0,.11a1.42,1.42,0,0,1-.05.22c0,.13,0,.27-.08.4M72.38,56.3l0,0h0Zm.18-.68a1.15,1.15,0,0,1-.16.65,3.39,3.39,0,0,1,.15.32l.63-.6a3.12,3.12,0,0,0,.09-.43,2.28,2.28,0,0,0,0-.69c0-.43-.19-.85-.26-1.28-.59.23-.59.23-.67.45a1.43,1.43,0,0,0,0,.23c0,.46.22.89.24,1.35M16.37,72.9l0,0h0l0,0Zm.58.65h0s0,0,0,0l0,0Zm-2-1.23s0,0,0,.06l.08.07a5.69,5.69,0,0,0,.52.49,9.17,9.17,0,0,1,.95,1c.25.3.25.3.35.37.35-.24.1-.71.1-.71l-.56-.62c-.06-.06-.16-.08-.23-.14s-.25-.32-.41-.45a1.47,1.47,0,0,0-.45-.17h-.08a.26.26,0,0,0-.25.16m.78,0h0l0,0,0,0m8.88.72,0,.08a2,2,0,0,0,.22.37A14.38,14.38,0,0,1,26.08,75c.51-.14.51-.44.51-.44a1.83,1.83,0,0,0-.44-.64c-.13-.14-.19-.22-.27-.32h0l-.73-.68c-.31,0-.45.06-.54.19m-5.77-3.34-.06,0a1.5,1.5,0,0,0,.19.32c.24.31.54.55.78.86s.49.67.74,1l.46-.36c-.24-.78-.54-1.06-1.52-2a1.3,1.3,0,0,0-.59.11m11.6,1.64h0Zm-.28-1,.31,1,0,0c.37.16.55.43,1,1.15.41-.2.72-.38.64-.65a17.45,17.45,0,0,0-1.1-1.5s0,0-.19-.15l-.62.14-.11,0m.31,1Zm-11.2,9.38c-.63-.47-1.31-.84-2-1.27l.09.26s0,.06.35.28l1.76,1.1c0-.13-.24-.37-.24-.37m.35-2.34h0Zm-1.44-.63a.24.24,0,0,0,.06.08,2.1,2.1,0,0,0,.29.26c.26.2.54.36.8.56l.77.62c.14-.11,0-.38,0-.38a9.11,9.11,0,0,0-1.18-1h0l-.07,0-.28-.17c-.08,0-.13-.11-.22-.13h0c-.05,0-.28,0-.21.19m3.18,5.81h0Zm0,0s-.78-.34-1.79-.84L20,83l.4.2c.81.39,1.52.69,1.75.79L22,83.9a1.27,1.27,0,0,1,.18.06c-.31-.13-.51-.23-.81-.37ZM19,80.2c-.54-.35-1.14-.75-1.77-1.18a.43.43,0,0,0,.12.35,1.58,1.58,0,0,0,.34.26c.53.38,1.1.7,1.64,1.06a1.12,1.12,0,0,0-.21-.41L19,80.2m-6.14-5.56c0,.07,0,.09.25.32s.48.39.72.6l1,.87.18-.21a12.73,12.73,0,0,0-1.88-1.7H13c-.08,0-.2,0-.18.12m54.41-18-.1.15c.08.48.21,1,.29,1.43a6.12,6.12,0,0,1,0,.78c.33-.24.52-.39.83-.63A19.86,19.86,0,0,0,68,56a1.77,1.77,0,0,0-.78.59M25.88,73.55Zm-.31-.72,0,.08c.37.64.37.64.44.67a1.37,1.37,0,0,1,.49.42,1.34,1.34,0,0,0,.27.27c.16.08.34.08.49.15s.16.13.26.17l.08,0,.09,0a1.92,1.92,0,0,0-.38-.78,12.89,12.89,0,0,0-1.08-1.14c-.26,0-.49,0-.62.17m-4,10.88Zm1.42.6c-1.66-.71-2.39-1.06-2.69-1.2l.41.2c.19.1.72.34.92.43.43.18.83.36,1.36.57m-2.35-8.7a1.31,1.31,0,0,0,.18.23c.22.22,1.56,1.36,1.57,1.37.25-.3.28-.34.08-.61A15.69,15.69,0,0,0,21,75.34c-.48.1-.48.1-.38.27m-1.49,6.33h0Zm-.71-.39-.62-.33a2.5,2.5,0,0,0,.46.37l.18.11s.67.37,1.78.92a2.8,2.8,0,0,0-.49-.35l-1.29-.71h0ZM74.21,54.24h0Zm-.91-.72a.7.7,0,0,0,0,.29c.11.65.19,1.18.26,1.83a2.24,2.24,0,0,0,.65-.66s0-.27,0-.73c-.13-.13-.13-.23-.13-.79l0,0h0v0L73.86,53c-.47.37-.47.37-.56.57m-52,21.85v0l1.37,1.21a.51.51,0,0,1,.25-.09l.33,0c-.41-.69-1.13-1.08-1.64-1.67-.33.28-.33.28-.31.46M78,50.06s0,0-.06.06v.18c0,.69.15,1.37.11,2.06l.47-.64a8.31,8.31,0,0,0-.13-2c-.06.06-.2.2-.39.36M19,77.93h0m-.5-.53v.06c.51.47.51.47.58.5a2.63,2.63,0,0,1,.61.46l-.05,0h0l.52.31c0-.12.09-.19.14-.29-.56-.51-1.2-.92-1.78-1.4,0,.08,0,.2-.05.37M81,47.77Zm-.31-1.13a1.57,1.57,0,0,0,0,.27c0,.64.07,1.27.08,1.91.27-.68.27-.68.12-2.59a.59.59,0,0,0-.19.41M13,78.42l0,0h0l0,0m.25.19h0L13,78.42l.27.2ZM35.57,2.12Zm-.08,0h0M27.8,3.27l-.58.21a41.22,41.22,0,0,1,6.4-1.26c.6-.05,1.08-.08,1.48-.09h-.28a26.45,26.45,0,0,0-6.71,1h.08l-.43.14h0m3.93-.83a7.37,7.37,0,0,1,.74-.11l.45-.05-.47.06-.64.09Zm3.37-.31h0M65.92,15.61a11.15,11.15,0,0,0-2.2-1.42c.58.77,1.22,1.5,1.75,2.31a14.16,14.16,0,0,1,1.54,3c.39,1.08.39,1.08.55,1.24s.28.4.45.57l.19.16.27-.33.09-.12.08-.13.17-.24c.06-.09.1-.17.15-.26l.13-.26,0-.06a21.89,21.89,0,0,0-1.47-2.3,20.52,20.52,0,0,0-1.73-2.13m1.5,2.62s0,0,0,0,.32.28.48.5.39.58.35.65h0c-.08,0-.37-.29-.68-.78-.12-.18-.17-.3-.15-.35m.1-1.13c.49.61,1,1.22,1.44,1.85l.37.53a2.09,2.09,0,0,1-.08.23c-.47-.71-1.16-1.64-2.44-3.35a6.3,6.3,0,0,1,.71.74M27,4.13l-.41.26c1.79-.57,3.54-1.27,5.36-1.75a17.59,17.59,0,0,1,2-.39A7.19,7.19,0,0,1,35,2.13a26,26,0,0,0-7.23,1.4h.05c-.25.18-.55.23-.8.41l.1,0a2.4,2.4,0,0,0-.27.16H27M30.39,3a2.14,2.14,0,0,1,.55-.18,4,4,0,0,1,.42-.09h0A1.31,1.31,0,0,1,31,2.8,4.34,4.34,0,0,1,30.4,3h0m5.31-.83h0Zm-.91,0h0m.6,0h0m-.83,0h0m-4.35.41a32.88,32.88,0,0,1,4.35-.41l-.51,0,.76,0h.48l-.47,0a37.78,37.78,0,0,0-5.76.64,11.62,11.62,0,0,1,1.18-.23ZM28.88,5.62c0,.09-.09.14-.08.23s.11,0,.16.07a2.14,2.14,0,0,0-.19.26s0,0,.08,0h.06c.14,0,.13,0,.1.26.21,0,.21,0,.24,0a2.16,2.16,0,0,0,0,.36A16.34,16.34,0,0,0,33,4.15l.88-.88,0,0s-.5-.39-.6-.44c-1.52.69-2.92,1.58-4.38,2.37,0,.15,0,.15-.16.4.05,0,.11,0,.16,0m2.7-1.29A.68.68,0,0,1,32,4.2a.38.38,0,0,1-.07.25.66.66,0,0,1-.44.23h0c-.1,0-.15-.15.1-.35m30.75,9.05A30.23,30.23,0,0,0,59.46,12,20,20,0,0,1,61,14a9.47,9.47,0,0,1,1.58,3.85c0,.15,0,.15.13.24a3.19,3.19,0,0,1,.61.61c.09.12.09.12.15.13a9,9,0,0,1,1,.7l.28.45c.35,0,.35,0,.79.54h.22c.28.29.41.44.66.71.13-.76-.2-2.95-2.3-5.85a13.68,13.68,0,0,0-1.76-2m1.05,2.54c0-.05,0-.07.06-.07s.39.24.58.47.34.47.3.59a.06.06,0,0,1-.06,0c-.14,0-.51-.31-.77-.73-.1-.17-.12-.25-.11-.29M27.22,5h.22c-.17.18-.17.18-.17.22h.13v0c-.16.23-.16.23-.16.25h0c.06,0,.37-.15,4.51-2.19.47-.22,1-.38,1.43-.64.11-.1.2-.21.31-.3-.24,0-5.23,1.3-5.88,2.11h0l0,0-.2.18a.12.12,0,0,1,.05,0s0,0-.32.24m3.37-1.51a1.31,1.31,0,0,1,.4-.13h0c.06,0-.15.15-.18.17a1.44,1.44,0,0,1-.55.22h0c-.05,0,.06-.14.34-.26m5-1.33h0Zm-.23,0h-.54c-.93,0-1.79.07-3,.19h.11c.54-.06,1.77-.17,3.46-.19M58,11.43a34.83,34.83,0,0,0-3.34-1.26c1.54,2.05,2.23,3.2,2.34,5.54a2.56,2.56,0,0,1,.67.55c.14.16.38.16.54.29.92.75.92.75,1.07,1,.4,0,.4,0,.56.17s.17.23.31.3l.09,0h.16a.18.18,0,0,1,.1,0c.27.16.42.43.66.61.25-.92.22-2.55-1.39-5.1A10.47,10.47,0,0,0,58,11.43m.42,2.3a.09.09,0,0,1,.1-.08,1.31,1.31,0,0,1,.64.46.83.83,0,0,1,.25.49.09.09,0,0,1-.1.08,1.41,1.41,0,0,1-.81-.69.48.48,0,0,1-.08-.26M35.76,2.12h0Zm-.19,0h0Zm-.14,0h0m.27,0h0Zm-.24,0h0Zm-.61,5.79c.23.37.37.56.37.56s.2,0,.29.08c.36.33.36.33.49.38l.06.36h.44l.23.33c.35,0,.35,0,.6.33a.25.25,0,0,0,.21.09c.4,0,1-.82,1.22-1.23a3.9,3.9,0,0,0,.74-2.31c0-.36-.06-1.2-.34-1.34s-2.07-.69-2.32-.75a5.94,5.94,0,0,1-2,3.51m2.82-1.12a.1.1,0,0,1,0,0A.31.31,0,0,1,38,6.57a.42.42,0,0,1,.39.3.27.27,0,0,1-.08.33.36.36,0,0,1-.2.06.43.43,0,0,1-.41-.47M53.05,9.56c-.8-.32-2.64-.94-3.35-1.12,0,.1,0,.16.23.41a5.91,5.91,0,0,1,1.19,4.65c.3.2.49.53.81.7l.1,0h.1a.16.16,0,0,1,.12,0c.14.1.24.24.39.34s.33.09.47.21l.28.45h.24c.19,0,.2,0,.25.06.41.39.41.39.5.39.42,0,.58.45.94.56.24-.43.9-2-.7-4.8a7.75,7.75,0,0,0-1.57-1.9m0,2.18a.13.13,0,0,1,.14-.13,1.12,1.12,0,0,1,.63.41c.16.19.24.37.2.47a.13.13,0,0,1-.13.07,1.21,1.21,0,0,1-.8-.63.36.36,0,0,1,0-.19M31.14,6.46a.52.52,0,0,1,.1.46c.24.06.24.06.24.08,0,.22,0,.27.3.3l-.08.35h.39l.08.29c.35,0,.35,0,.42.23s.07.17.17.17.55-.25,1.48-1.14a6.77,6.77,0,0,0,1.43-2A3.42,3.42,0,0,0,36,4.14l-.06,0c-.17-.09-1.27-.53-1.55-.61l-.58.64a15.38,15.38,0,0,1-2.65,2.32m2.81-1a.4.4,0,0,1,.38-.18h.05a.5.5,0,0,1,.13.3.34.34,0,0,1-.29.26h-.1c-.24,0-.27-.24-.17-.4M48,7.89c-.73-.26-2.55-.84-3.21-1,0,.08,0,.12.15.35a4.83,4.83,0,0,1,.25,4.25,1.55,1.55,0,0,1,.33.18c.14.11.19.29.34.39s.33.05.46.15.15.22.26.29.26.06.39.12.08,0,.28.45c.47,0,.47,0,.55.08a1.54,1.54,0,0,0,.34.29c.13.07.28,0,.4.08s.3.37.53.47h0c.42,0,1.28-1.92.16-4.37,0,0-.8-1.58-1.28-1.76m-.3,1.86a.91.91,0,0,1,.61.38s.18.24.13.38a.18.18,0,0,1-.18.11.93.93,0,0,1-.73-.59.25.25,0,0,1,0-.12.17.17,0,0,1,.19-.16m-8-.11c.3.18.3.18.35.24.27.32.29.35.35.35h0c.22,0,.27.23.43.32a3,3,0,0,0,.42.15s.09.22.15.39c.47,0,.47,0,.53.08l.28.27c.12.06.25,0,.37.06s.28.34.48.45h.06c.42,0,1.63-1.75,1-4,0,0-.45-1.41-.85-1.55-.58-.21-2.3-.75-2.86-.87,0,.08,0,.11,0,.3a4.62,4.62,0,0,1-.8,3.78m2.63-1.4c0-.14.34-.16.35-.16h0a2,2,0,0,1,.43.36.33.33,0,0,1,0,.31.3.3,0,0,1-.24.1.42.42,0,0,1-.16,0s-.38-.21-.42-.5V8.24M11.49,19.34c-1.36,2.71-2.91,5.33-4.29,8a21,21,0,0,0,3.19,2,14.09,14.09,0,0,0,1.21-1.81,47.74,47.74,0,0,0,3-6.57,17,17,0,0,0,.49-1.65H15l-.22,0-.23,0a.28.28,0,0,1-.28-.18h0a.34.34,0,0,0-.17.05.55.55,0,0,1-.17.05h-.06c-.12,0-.13-.12-.15-.28L13.55,19l-.39.34c-.13-.11-.2-.16-.29-.16a1.34,1.34,0,0,0-.43.15c0-.08-.08-.17-.13-.25a1.66,1.66,0,0,1-.82.29m0,4.22a.52.52,0,0,1,.22-.06c.21,0,.33.22.23.55a1,1,0,0,1-.64.73h-.08c-.29,0-.4-.37-.11-.85a1.06,1.06,0,0,1,.38-.38m9.57,1a30.93,30.93,0,0,1-2.85,8.62c1.06.86,5.09,2.25,5.13,2.26a10,10,0,0,0,1.22-2.16,20.09,20.09,0,0,0,1.58-6.13c0-.17.16-2.25.1-2.4s-.05-.15-.17-.15a6.76,6.76,0,0,0-.77.13L25,24.39a2.13,2.13,0,0,1-.51.11c-.17,0-.27-.1-.52-.35-.39.35-.42.38-.5.38h0c-.17,0-.29-.15-.46-.16h0a1.74,1.74,0,0,0-.48.15l-.32-.27a1.58,1.58,0,0,1-1,.3m1.56,5a.82.82,0,0,1,.17-.24.76.76,0,0,1,.52-.23.55.55,0,0,1,.53.61.81.81,0,0,1-.77.8c-.43,0-.64-.49-.45-.94m-7.08-7.67A53.88,53.88,0,0,1,12,30.17c.44.4.65.58,4.24,2.24a11.82,11.82,0,0,0,1.28-2.16,26.43,26.43,0,0,0,2.16-6.36c.33-1.57.42-2,.1-2a1.91,1.91,0,0,0-.6.19l-.3-.33a1.92,1.92,0,0,1-.44.1c-.15,0-.22-.09-.4-.33l-.43.38a2.23,2.23,0,0,0-.5-.2h0a1.16,1.16,0,0,1-.32.11c-.08,0-.11-.05-.19-.17l-1,.3m.63,4.79a1.1,1.1,0,0,1,.26-.32.61.61,0,0,1,.37-.14c.27,0,.46.24.41.62a1,1,0,0,1-.6.72.36.36,0,0,1-.14,0c-.37,0-.52-.5-.3-.9M9,16.92c-1.17,1.61-4.39,6.5-5.09,7.63a7.81,7.81,0,0,0,2.15,2c.49-.69.75-1.08,1.17-1.72,1.69-2.66,3-5.14,3.53-6.07.9-1.66.9-1.66.9-1.79a.27.27,0,0,0-.12,0,.48.48,0,0,0-.2.07.4.4,0,0,1-.21.07h0a2.44,2.44,0,0,1-.06-.26,1.66,1.66,0,0,1-.29.08.14.14,0,0,1-.1,0c0-.07,0-.08,0-.26-.39.3-.39.3-.47.32s0-.16-.14-.16h0c-.15,0-.23.13-.36.15a.67.67,0,0,1,0-.24c-.22.13-.52.05-.69.29M8.21,21.4a1.14,1.14,0,0,1-.69.7h0c-.23,0-.22-.36.11-.84A1,1,0,0,1,8,20.9a.27.27,0,0,1,.12,0c.18,0,.18.24.06.53m19.73,6c-.34,3.88-.67,4.76-2.27,8.94.4.25.69.44,4.62,1.92l.13-.05,1.77-.69c.13-.25.25-.51.39-.83a17.88,17.88,0,0,0,1.35-6.73c0-2,0-2.56-.5-2.56a2.38,2.38,0,0,0-.7.19l-.52-.38a1.21,1.21,0,0,1-.54.18c-.23,0-.37-.15-.51-.48l-.57.5a1.86,1.86,0,0,0-.65-.22.91.91,0,0,0-.45.18l-.41-.27a2.19,2.19,0,0,1-1.14.3m2.32,5.2a.92.92,0,0,1,.12-.2.87.87,0,0,1,.6-.26.63.63,0,0,1,.65.65.69.69,0,0,1-.41.71.87.87,0,0,1-.37.09.69.69,0,0,1-.59-1M35.87,30a.45.45,0,0,0,.32.15,3.88,3.88,0,0,0,.89-.25l.45.3a1.43,1.43,0,0,1,.55-.16,2.44,2.44,0,0,1,.64.15l.43-.39c.38.27.52.37.73.37a2.15,2.15,0,0,0,.53-.11l.46.34a3.83,3.83,0,0,1,.69-.11c.55,0,.59.49.71,2.58,0,.26,0,.52,0,.78l-1.81.66-5,1.88-.34.13A19,19,0,0,0,35.87,30M3.12,18.54A3,3,0,0,0,2.21,21l0,0,1.29-1.62c1.23-1.54,2.72-3.37,4.79-5.55.43-.45.88-.9,1.3-1.36h0c-.11.06-.14.08-.17.08h0l.09-.16-.17.08s0,0,.23-.3l-.4.3a.26.26,0,0,1,0-.09l0,0-.2.13.16-.19a39.79,39.79,0,0,0-6,6.22m2.27-2.16c.36-.38.45-.38.45-.38s-.15.32-.32.53c-.31.39-.55.58-.61.58h0c-.1,0,.23-.46.49-.74m.66-1.54c0-.06.34-.37.6-.63l-.54.57-.06.06m4.88-4.37,0,0-.08.06-.06.05.12-.09M7.08,13.79s0,0-.06.07l-.29.27.35-.34m-.43.42,0-.05,0,0,0,0-.06.06m0,.07L7,13.86c1.18-1.08,2.66-2.38,3.85-3.35l.29-.2-.32.24.1-.06-.18.15.13-.06c-.61.62-1.34,1.09-2,1.66A47.37,47.37,0,0,0,4.22,17c-.21.24-.69.81-1.35,1.65a33.74,33.74,0,0,1,3.24-3.84l.5-.5M2.4,21.81a3.2,3.2,0,0,0,.89,1.91c.38-.47.63-.79,1.28-1.69,1.42-2,2.81-3.94,4.25-5.89.79-1.08.79-1.08,1.06-1.48a.13.13,0,0,0-.08,0,.28.28,0,0,0-.13,0,.27.27,0,0,1-.13.05H9.47l0-.17c-.09,0-.16.06-.25.08l0,0a1.32,1.32,0,0,1,.12-.29,3,3,0,0,1-.44.32.45.45,0,0,1,0-.16c-.12,0-.19.12-.3.15a1.29,1.29,0,0,1,.06-.2c-.34.19-.36.2-.51.2a85.22,85.22,0,0,0-5.72,7.2m3.27-3c.29-.34.44-.39.48-.39h0c.13,0,0,.25-.1.5s-.55.67-.69.68h0c-.18,0,0-.44.3-.78M52.29,28.82c-1.33-.88-1.33-.88-1.37-1.09a2.14,2.14,0,0,1,.18-1.95,3,3,0,0,0,.26-1.26,2.78,2.78,0,0,1,.71.13c.26.13.17.48.41.61a4.17,4.17,0,0,1-.4,1,2.36,2.36,0,0,0,0,1.95,5.94,5.94,0,0,1,0-1.52c.09-.32.29-.59.37-.91a3.33,3.33,0,0,0,0-.55h0c0-.14,0-.23.05-.43.87.15,1,.59,1,.77.17.74-.38,1.37-.35,2.09-.07.49-.12.81-.2,1.33l.74.51q-1.56.6-3.12,1.17A21.51,21.51,0,0,1,49.7,28a21,21,0,0,0,2.55.78h0M20.45,5.07l.46-.18L20.76,5,20.53,5l-.08,0m-.59.25c-.82.34-1.53.66-2.13,1l-.22.09c1-.47,1.73-.81,2.4-1.08l-.05,0M21,4.86l-.06,0,.25-.1-.05,0L21,4.86m-1.54.65-.22.1-1.33.61-.13,0c.44-.21.87-.41,1.58-.71l.1,0M12.16,9.58l.13-.1,1.28-.81-1.1.75-.17.12a.85.85,0,0,1-.21.11l.17-.13-.1.06m.16-.12,0,0h0l.05,0m4.56-2.75h0c-1,.55-2.2,1.27-3.3,2,1.4-.92,2.51-1.55,3.26-1.94Zm3.35-1.55.3-.12L20.76,5l.16-.07-.64.26-.37.16L20,5.24Zm-2,1h0l0,0h0Zm-2,1,0,0h0Zm-6.26,4.33a2.94,2.94,0,0,1,.4-.26l0,.12.09,0c0,.05-.05.09-.07.13a.37.37,0,0,1,.15,0h0a.45.45,0,0,0,.06.12.49.49,0,0,0,.25-.12l.11-.1A36.54,36.54,0,0,1,15.17,7.9c.29-.15.58-.3.88-.44s.55-.3,1.25-.67l0,0h0l.8-.4-.19.14a6.84,6.84,0,0,0,.72-.47l-.31.13c.49-.24.5-.26.55-.31a19.25,19.25,0,0,0-1.93,1l.38-.18.11-.06c-.52.27-1.16.62-2.09,1.13l.25-.14L14.85,8a6.8,6.8,0,0,1,.54-.43,35.43,35.43,0,0,0-4.05,2.76c.92-.68,1-.69,1.06-.69h0a9.39,9.39,0,0,1-1.36,1s.23-.24.31-.3a5.36,5.36,0,0,0-1.3,1.13m6.53-4.31h0Zm.34-.28-1.35.75c.5-.3.92-.53,1.35-.75m2.93,6.42h0l0,0h0Zm-.58.5h0m-1.82,1.42c-.29.5-1.41,4.83-1.42,4.88l.59.41c.36-.26.48-.34.61-.35a.39.39,0,0,0,.31.13h.16l.16,0,.13,0c.09,0,.12.14.22.14h0a.69.69,0,0,0,.2,0,.69.69,0,0,1,.2,0h0c.31,0,.59.17.9.17h0c.41,0,.44-.05.52-.16a.47.47,0,0,0,.07-.17s.27-2.64.22-2.87,0-.13-1.12-1.34a.46.46,0,0,1,.1-.23l1.15-1.31c.91-.9.91-.9.94-1a.15.15,0,0,0,0-.16c-.12-.07-.27,0-.4-.1a10.12,10.12,0,0,0-2,2.21c.35-.83.35-.83,1.79-2.18l-.33-.35a3.57,3.57,0,0,0-.73.53c-.14.16-.34.25-.49.4,0,0-.31.44-.84,1.27a4.08,4.08,0,0,1,.32.64s-.05.07-.09.07a1.28,1.28,0,0,1-.35-.16,3.75,3.75,0,0,0-.82-.41h0m.09,2.83h.17c0,.09.06.27.11.45,0,0,0,.05,0,.07-.17.23-.33.45-.47.66l0,0a4.56,4.56,0,0,1-.48.12h-.08c-.18,0-.21-.12-.24-.48,0-.14,0-.14.24-.49a.74.74,0,0,1,.77-.38M22.06,22h.15c.42,0,.66-.53.85-.92l-.27-.51a1.27,1.27,0,0,0-.32,0c-.34,0-.58.19-1,.69a10.85,10.85,0,0,1,.26-3.69h0a2,2,0,0,1,.5.18,3.71,3.71,0,0,0,1,.42.23.23,0,0,0,.15-.07L23,17.52a3.12,3.12,0,0,1,.16-.61c.14-.28.14-.28,1.59-2l.49.41a1.29,1.29,0,0,1-.46.7,2.7,2.7,0,0,0-.92,1.67c1-1.68,1.46-2.2,1.84-2.2a.68.68,0,0,1,.45.23s0,0-.62.91h0a1,1,0,0,0-.21.15L24.1,18.31c1.66,1.31,1.66,1.31,1.73,1.47a28.76,28.76,0,0,1,.32,3.16s0,.06,0,.07-.11.1-.45.1h-.47c-.13,0-.23-.1-.36-.12h-.16l-.27,0h-.27a1,1,0,0,1-.41-.08l-1-.15c-.11,0-.16,0-.65.35l-.76-.42a4.44,4.44,0,0,1,.2-1.49c.32.68.37.79.59.79m7.49-3.63H29.5l.05,0ZM30,17.8l0,0h0Zm-1.13,5.3c-.36,0-.7.38-1,.75a16.7,16.7,0,0,1-.47-3.93c1.95.58,1.95.58,2.09.6L29,20.07a5.58,5.58,0,0,1,.37-1.43c.15-.32.46-.52.62-.84.28,0,.28-.51.55-.51h.09c.19.06.78.29.39.82-.88,1.2-.88,1.2-1,2.16a5.17,5.17,0,0,1,1.55-2.44c.62.42.62.42.66.57A8,8,0,0,1,30.93,20a2.55,2.55,0,0,0-.69.75c2.16,1.38,2.16,1.38,2.27,1.55a14.18,14.18,0,0,1,.88,3.41v.09l-.18,0a4.53,4.53,0,0,1-.52,0h-.17c-.29,0-.55-.15-.84-.17h-.05a1.24,1.24,0,0,0-.27,0,2.06,2.06,0,0,1-.26,0H31a1.78,1.78,0,0,1-.31-.08,1,1,0,0,0-.24-.09l-1-.11a1.61,1.61,0,0,0-.62.39l-1-.47c0-.66,0-1,0-1.56.4.64.73.87,1,.87.51,0,.77-.86.81-1-.26-.44-.51-.61-.75-.61m-10-15.73v0h0c.07,0,.08,0,.18-.07a9.29,9.29,0,0,1,1.63-.92h0a10.07,10.07,0,0,1,2-.92.33.33,0,0,1,.14,0,.33.33,0,0,0,.19.06,11.1,11.1,0,0,0,2.48-.84l.09,0a7.38,7.38,0,0,1,.81-.67c.24-.15.54-.18.72-.43-4,1.15-4.07,1.18-4.28,1.63a9,9,0,0,0-1,.38l-.37.2-1.08.52a6.47,6.47,0,0,0-1.55,1M25,4.44a2.33,2.33,0,0,1,.78-.37,1.8,1.8,0,0,1,.59-.17h.05L26,4.08a4.69,4.69,0,0,1-1,.38h0Zm-4.88,4c.15-.12,2.41-1.64,2.86-1.85,0-.15-.12-.29-.08-.46.49-.24,2.53-1,2.8-1.06-.68.41-.72.44-.73.58h0A2.32,2.32,0,0,0,26.12,5l0,0h0a1.54,1.54,0,0,0-.44.1h0a10.1,10.1,0,0,1,1.12-.44c.08.09.08.09.09.12s-.37.09-.38.33h.05a1.13,1.13,0,0,1-.12.18l0,.06a.43.43,0,0,1,0,.05c0,.08-.12.11-.14.19s0,.27-.05.4a.56.56,0,0,1-.24.16c-.48.22-2,.86-2.23.91l-.12,0c-.2,0-.38-.14-.58-.18H23c-.12,0-.27.11-1.2.75-.42.29-.88.51-1.28.83L19.73,9c-.3-.18.34-.65.35-.65m0,0h0l0,0Zm30.34,6.74c0,1.11.55,1.29.88,1.29a.81.81,0,0,0,.25,0c.24-.12.12-.63,0-.82a1.61,1.61,0,0,0-.56-.41l-.18,0h-.22a.32.32,0,0,1-.13,0l0,0c0-.2,0-.2.35-.71a2.06,2.06,0,0,0,.79.22C52.31,15.9,53.91,16,54.86,17l.06.09c0,.43-1.34,1.75-1.35,1.75a.66.66,0,0,1-.25,0,2.67,2.67,0,0,1-.4,0,10,10,0,0,0-1.56-.25h-.2c.35,1.52.35,1.52.33,1.62h0c-.33.38-.38.83-.21,1.7a1.78,1.78,0,0,1-.31,0c-.58,0-.66-.35-.73-.64a2.39,2.39,0,0,1,0-.81c0-.27.21-.49.26-.75.09-.43-.17-.81-.15-1.23a1.92,1.92,0,0,1,.08-.4,13.21,13.21,0,0,1-2.08-.8,28.66,28.66,0,0,1,2.05-2.15m7,9.16h0l0,0,0,0Zm-.17-.79v0l0,0,0,0Zm.09-1,0,0h0Zm-.11.61h0v0h0Zm-.56-5.55c.1.62.1.62.47,1a.85.85,0,0,0,.55.26.24.24,0,0,0,.26-.17,1.18,1.18,0,0,0-1.3-1.22h0c0-.21,0-.21.22-.73l.79.26c.22.15.26.44.46.6l1,.58s1.7,1.19,1.78,1.27l.13.12s0,0,0,.05a4.66,4.66,0,0,1-1.09,1.83h0s-.24,0-1.5-.26a3.2,3.2,0,0,0-.68,0c.46,1,.68,1.56.68,1.56.06.33-.15.62-.15.95,0,0,0,0,.15,1.2-.71-.12-.71-.12-1-.53l-.18-1.13c.18-.1.16-.23.12-.65.21-.11.26-.14-.26-1.9a21.17,21.17,0,0,1-2-.87,12.55,12.55,0,0,1,1.56-2.32.31.31,0,0,1,0,.16M24.46,8s-.51-.39-.56-.44a16.89,16.89,0,0,1,2.77-1.31c-.11.24-.67.41-.41.66h.11a.93.93,0,0,0,.89-.76l-.1,0a2.46,2.46,0,0,0-.48.11,8.67,8.67,0,0,1,1.05-.51l.28.13c-.21.36-.21.36-.21.38a.23.23,0,0,0,.11,0c0,.07-.05.12,0,.19s.15,0,.18.11a.27.27,0,0,1,0,.13c-.07.26.27.35.25.59a.28.28,0,0,1,0,.09,20.78,20.78,0,0,1-2.45,1.14l-1-.18-.19,0a.49.49,0,0,0-.2,0c-.35.2-.44.61-.7.88a3.23,3.23,0,0,1-.42.35A13.16,13.16,0,0,0,22,10.88l-.22-.37A18.27,18.27,0,0,1,24.46,8M42,25.23c0,.18-.06.2,0,.25s.09.22.13.32a55.74,55.74,0,0,1,1.66,5.38l1,.48.63-.44a16.75,16.75,0,0,0,2.58.41h0l1.28-.46a31.28,31.28,0,0,0-1.4-3.4c-.16-.2-.16-.2-2.54-1.59,0-1.91,0-1.91.3-2.15h0c.5-1.42.5-1.42-.62-1.91l0,.06-.14.7c0,.26-.27.42-.35.66a4.34,4.34,0,0,0-.14.57,5.42,5.42,0,0,0,0,1.89A18.12,18.12,0,0,0,42,25.23m1.65,4a.65.65,0,0,1,.7-.55h0c.39,0,.57.24.84.59l.05.05c-.09.62-.11.79-.38.94a1,1,0,0,1-.42.09.92.92,0,0,1-.58-.21.81.81,0,0,1-.24-.91m.88-5.8h0Zm1.11.58ZM44.19,13h0a3.93,3.93,0,0,0-.06.48.78.78,0,0,0,.81.72.47.47,0,0,0,.34-.12c.15-.16.06-.58-.16-.79s-.29-.29-.93-.29h0c0-.18,0-.18.46-.67a2.64,2.64,0,0,0,.77.21,3.68,3.68,0,0,0,.42.58c.14.1.33,0,.45.18a.8.8,0,0,0,.48.29.52.52,0,0,1,.29.13,2.11,2.11,0,0,0,.85.53,2.38,2.38,0,0,1,.7.47l.1.1A5.77,5.77,0,0,1,47,16.42a.57.57,0,0,1-.24,0c-.18,0-.54-.05-1.54-.18a4.78,4.78,0,0,0-.67-.05h-.22a4.63,4.63,0,0,1,0,1.28c-.09.29-.25.56-.33.86a3.46,3.46,0,0,0-.12.82H43.8c-.73,0-.76-.2-.81-.54a1.51,1.51,0,0,1,.21-1,1.79,1.79,0,0,0,.25-.7c0-.32-.05-.63,0-.94l.45-.18A9.13,9.13,0,0,1,41.78,15a15.09,15.09,0,0,1,2.41-2M15.55,8.32h0Zm-1.7,1.4Zm-3.51,2.54a2.1,2.1,0,0,0-.17.32l0,0c.28,0,1.12-.81,1.26-1.08l-.08,0c-.11,0-.3.12-1.06.77a29.41,29.41,0,0,1,3.49-3,2.14,2.14,0,0,0-.17.48l.13-.08a14.1,14.1,0,0,1,2.49-1.7h0l.94-.53,0,.1L16.5,8l-1.1.67c-.18.11-.46.28-1.22.84a2.15,2.15,0,0,0-.31.23h0a23.69,23.69,0,0,1-3,3.7s-.07.07-.11.07l-.22,0h0c-.08,0-.06-.12-.14-.14h0l-.13,0a.35.35,0,0,1-.14,0h0a.48.48,0,0,0,0-.12l0,0-.14.06s0-.1-.05-.15l-.46.29c.06-.36.06-.36,1-1.23m52.07,7.63s-.89,1.84-1.15,2.44a9.36,9.36,0,0,0,1.06.53,4,4,0,0,1,1,.53,7,7,0,0,1,.47,1.5l.37-.22a7.85,7.85,0,0,1-.35-.91,4.14,4.14,0,0,1,.78.11l.61.13.06,0,.52-.35.23-.18a5.07,5.07,0,0,0,.34-1.27L66.26,22a11.58,11.58,0,0,0-1.84-1.47l-.66-.46a2.42,2.42,0,0,1-.37-.46l-.2-.26-.69-.27a2,2,0,0,0-.11.77h0m0,0c1.54.21,1.21,1.41,1.19,1.42a.39.39,0,0,1-.19.05c-.25,0-.67-.21-1-1.47M10.78,14.68a.17.17,0,0,0,.1,0c.38,0,1.12-.8,1.12-1.17a.15.15,0,0,0-.09,0c-.1,0-.3.17-1.12.85A28.44,28.44,0,0,1,13.61,11a3.4,3.4,0,0,0,.22.6,5.38,5.38,0,0,1,.78-.83s.75-.64,1.43-1.11l.31-.21a1.64,1.64,0,0,1,.65-.3.12.12,0,0,1,.09,0c0,.19-.91.76-.91.77a11.36,11.36,0,0,0-2.1,1.73,6.24,6.24,0,0,0,0,.73.65.65,0,0,1-.05.45l-1.58,2.68,0,0a1,1,0,0,1-.36.1.69.69,0,0,1-.25-.06.54.54,0,0,0-.21-.08h0c-.13,0-.23.08-.35.08s0,0,0,0a.56.56,0,0,1,0-.12l-.11,0h-.15a.16.16,0,0,1-.18-.12,3,3,0,0,0-.52.31c-.06-.14-.1-.22-.15-.37.52-.7.67-.89.72-1,0,.11,0,.22,0,.32m25.64,6.78Zm-.09.75v0h0Zm.09-.75h0s0,0,0-.05a.08.08,0,0,0,0,0h0Zm-2.06,1.06a25,25,0,0,1,2.43.82c-.42-.57-.42-.57-.41-1,0-.28.2-.56,0-.85a5,5,0,0,0,1-1.79c.72.19,1.3.45.59,1.35a2.78,2.78,0,0,0-.48,2.38C40,24.79,40,24.79,40.15,25a16.12,16.12,0,0,1,1.28,3.61s0,.06,0,.09h-.11l-.57,0a2.16,2.16,0,0,1-.47-.06,5.25,5.25,0,0,0-.7-.11h-.22c-.39,0-1.68-.12-1.69-.12s-.18-.15-.3-.15h0c-.17,0-.25.1-.65.4l-1.12-.47-.24-1.65,0,0,.66.84h0c2,0,.95-1.38.93-1.39a.65.65,0,0,0-.49-.25,1.43,1.43,0,0,0-.35.07c-.37.13-.43.6-.79.73-1.2-3.89-1.11-4-1-4.1M18,11.77h0l0,0h0l0,0m-.62.48h0l0,0h0Zm-5.15,5.38.38.4c.34-.24.46-.32.56-.33a.23.23,0,0,0,.22.12h.36c.07,0,.07.13.15.14h0a1,1,0,0,0,.17,0,.47.47,0,0,1,.17,0h0c.27,0,.51.15.77.16h0a.65.65,0,0,0,.31-.08s.06,0,.17-.28l.83-2.57a1,1,0,0,0,0-.17.57.57,0,0,0-.1-.29c-.19-.34-.31-.55-.47-.89a7.87,7.87,0,0,1,2.09-2c.73-.52.37-.65.21-.71l-.52.34-.07,0h0a16.64,16.64,0,0,0-1.53,1.43,1.22,1.22,0,0,1-.42.41,3.16,3.16,0,0,0-.13.31c-.31-.11-.48-.43-.79-.55a34.07,34.07,0,0,0-2.5,4.58M14,16.26a3.6,3.6,0,0,1-.54.62s-.3.08-.41.09h0c-.1,0-.18,0-.08-.54,0,0,.13-.19.29-.38a1.12,1.12,0,0,1,.49-.33.62.62,0,0,1,.18,0c.38,0,.1.56.1.56m18.69-14h0m-1.4.13.77-.08h0l-.74.07m1.44-.13h0l-.63,0h0l1-.08h-.39m0,0H33l1,0c-.69,0-1.35.07-2,.13h.06l.66-.06m.22,0h0m-3.18.36-1.17.18.52-.1Zm.88-.13L32,2.29l-.12,0h-.11l-.9.12.27,0-.36.05-.66.08h0l-.35.05c.45-.08.56-.09.81-.12h.07m-2.54.39.49-.08c-.78.16-1.67.33-2.47.51l.2,0,.21-.05-.62.15.64-.16.13,0-1.1.26c.53-.13,1.57-.39,2.86-.62l-.34.07m-1.7,8.31c-.63.66-.82.86-.88,1.33l.43.34c.5-.77.5-.77.6-.91s.53-.42.71-.71a.68.68,0,0,0,0-.14,3.71,3.71,0,0,1,.37-1c.5.05,1,.24,1.47.24a1.39,1.39,0,0,0,.39,0A19.48,19.48,0,0,0,31.76,9l.07,0,0-.1a.75.75,0,0,0-.46-.44.46.46,0,0,1-.13-.07c-.09-.08-.05-.23-.15-.31s-.21,0-.28-.13,0-.12-.07-.17-.15,0-.2-.08a.11.11,0,0,1,0-.06s0,0,.07-.36l-.47-.16c-.83.48-2.22,1.28-3.39,1.8a1.75,1.75,0,0,0-.24.11s-.11.11,0,.19c.3.23.66.34,1,.56-.63,1.09-.69,1.18-1,1.38ZM29.07,7.9a2.67,2.67,0,0,1,.26-.26.64.64,0,0,1,.2,0l.2,0a.37.37,0,0,1,.13.39.88.88,0,0,1-.67.53h0c-.19,0-.49-.12-.08-.59m2.06-5.5-.27,0-.2,0h.11l.36-.05M29,2.75c.55-.12,1-.19,1.64-.29-.55.09-1.09.21-1.64.29m-6.7,1.69h0Zm-.44.17.24-.09.16-.06h0l.12,0,.09,0L23.63,4,23.81,4,25,3.6l.22-.06h-.05l.06,0h0l.5-.14a35.56,35.56,0,0,1,4.34-.87h0c-.34.05-1.07.16-1.7.29l.6-.07L28,3l-.3.06c-.62.14-1.3.28-2.19.5l.15-.09c-.1,0-2.14.58-4,1.28,0,0,0,0,.26-.13m46,17.24c-.12.13-.24.25-.37.37a2.7,2.7,0,0,1,0-.55l.35.18m-37.68-11c.63.29,1,.47,1.72.76a2.35,2.35,0,0,1-.77,1.8,1.36,1.36,0,0,0-.45,1.09l.64.36a4.55,4.55,0,0,1,1.05-1.69c-.32-.32-.32-.35-.19-1.24l.24,0a3.71,3.71,0,0,1,.8.13,3.52,3.52,0,0,0,.79.13,1.24,1.24,0,0,0,.33,0c.26-.06.51-.12,2.23-1.23l.15-.1a.39.39,0,0,0,0-.15A1.8,1.8,0,0,0,36,10.2c-.36-.18-.41-.22-.55-.44-.25,0-.38-.24-.57-.34s-.19,0-.26-.08-.11-.13-.16-.48l-.64-.18a24.91,24.91,0,0,1-3.71,2.21M33,9.51a2.58,2.58,0,0,1,.14-.23,2.56,2.56,0,0,1,.46-.08h0s.34.19.33.47a.61.61,0,0,1-.41.52.85.85,0,0,1-.23,0c-.29,0-.61-.16-.31-.71M22.3,4.82l1.49-.57h0v0l-.32.11,1.19-.48c.25-.09,1.94-.52,3.09-.76a6.34,6.34,0,0,0-1.53.44c.83-.17,1.62-.47,2.45-.63-.8.28-1.61.52-2.4.83l-.13,0c-2,.59-2.35.68-2.43.68h0s0-.07,0-.1c-.22,0-3.44,1.46-3.62,1.55s-.26.12-.31.12h0a4.15,4.15,0,0,1,.86-.46c.59-.25,1.17-.51,1.76-.74m15.62,9.27h0ZM38.33,11c0,.3-.27.6,0,.9a.6.6,0,0,0,.46.19.71.71,0,0,0,.44-.14s.57-1-.83-1h0c0-.11,0-.11.53-.6l.75.21c.08.16.08.35.22.47s.28.06.4.12.26.29.47.33l1.37.81a1.15,1.15,0,0,1,.32.29l.07.1-.19.18c-1.11,1-1.49,1.3-2.24,1.3A10.21,10.21,0,0,1,38.4,14a.94.94,0,0,0-.22,0,.44.44,0,0,0-.27.09L37.78,14h0l0,0c-.62-.57-1.49-.62-2.18-1A18.4,18.4,0,0,1,38.33,11M57.16,23.16v0Zm.13-.63,0,0h0Zm.06,1.8h0l0,0h0Zm-1.26-3.65c.24,0,.63,0,.79.21a5.12,5.12,0,0,1,.39,1.5v.15c-.16.12-.15.25-.12.63a.15.15,0,0,0-.11.16c0,.11.12.18.12.29a1.47,1.47,0,0,0,0,.41.86.86,0,0,0,.14.27c-.07.28-.07.28-.18.28h0a.79.79,0,0,1-.67-.25,3.29,3.29,0,0,1-.19-2.18,1,1,0,0,0,.06-.44c0-.16-.13-.28-.14-.44s-.06-.45-.08-.59m1.09,2.88h0v0h0Zm-1-2.2Zm7,2.14a5.52,5.52,0,0,1,.44,1.4.17.17,0,0,0,0,.07h0c-.3.17-.59.35-.89.51a2.32,2.32,0,0,1,0-.46,3.54,3.54,0,0,0-.3-1.69c.57.05.61.06.71.17M26,3.32l-.25.08-.5.14L25,3.6,23.81,4l-.14,0,.87-.28c.45-.13.94-.27,1.47-.4m-.74.21h-.06Zm-3,.93h0m.18-.07-.14.06h0l-.07,0-.13,0-.24.09-.11,0a2.18,2.18,0,0,1,.33-.14l.36-.11m-.14.06Zm0,0h0ZM20.15,5.61l.76-.34c.88-.36,2-.76,2.55-.94l.32-.11v0h0l-1.49.57c-.59.23-1.17.49-1.76.74l-.84.36a1.22,1.22,0,0,1,.45-.31m1.7-.78h0Zm0,0h0l0,0m-.75.29h0Zm1.5-.56Zm1.25-.44a22.63,22.63,0,0,0-3.92,1.6l.25-.12.76-.34c.38-.16.72-.28,1.53-.59l1.13-.42c.2-.07.2-.07.25-.13m-1.25.44Zm.53-.19h0l.05,0h0l0,0ZM42,17.12l0,0h0l0,0m-.24,1.09c.27-1.13.27-1.13.32-1.18a.84.84,0,0,0,.23-.4A1.3,1.3,0,0,0,42.2,16v0h0l.08-.15a.36.36,0,0,1,.27-.14,2.55,2.55,0,0,1,.57.14.74.74,0,0,1,0,.14,1.94,1.94,0,0,1,.06,1c-.08.33-.32.59-.39.92A3.63,3.63,0,0,0,42.76,19l-.86-.15-.22-.52,0,0Zm7.6.89a3,3,0,0,0-.08-.59,1.56,1.56,0,0,1,0-.31.8.8,0,0,1,.24,0,.6.6,0,0,1,.6.33,2.44,2.44,0,0,1,.19,1s0,.09,0,.13c0,.34-.23.63-.27,1s.1.63.07.95l0,.18-.19,0a3.15,3.15,0,0,1-.66-.15A5.62,5.62,0,0,1,49,20.36a1.5,1.5,0,0,1,.17-.7,1.21,1.21,0,0,0,.16-.56M25.69,3.4l-.9.24-.25.08L23.67,4h0l-1.11.37h-.06l-.36.11-.11,0a31.49,31.49,0,0,1,4.18-1.26l-.48.13M37.13,15.91l0,0h0Zm-.13.28v0h0l0,0v0Zm-.62-1a1.48,1.48,0,0,0,.37-1s0,0,.15-.46h.21a.91.91,0,0,1,.64.2l0,0h0l0,0c-.12.32-.16.44,0,.67,0,0,0,.06,0,.09-.09.26-.13.36-.22.63-.23.09-.26.2-.36.54-.2.07-.22.11-.12.29l-.19.4h-.25c-.64,0-.63-.26-.62-.55a1.69,1.69,0,0,1,.45-.92m1.12.22,0,0v0h0Zm.22-.71v0h0l0,0v0M20,8.41h0l0,0M20,8a6.14,6.14,0,0,1,.51-.36l1.78-1.09a.65.65,0,0,1,.2-.06s.06,0,.08.1l-.11.09-.57.41c-.43.3-.9.55-1.34.83a2.3,2.3,0,0,0-.5.41.18.18,0,0,1-.08.07l-.33.19c-.2-.16.06-.36.36-.59m22,9.05h0l0,0v0Zm-.92-.69c.07-.2.06-.43.15-.63a.65.65,0,0,1,.1-.15l.62.08.22.29,0,0c-.21,1.06-.21,1.06-.29,1.13a1.06,1.06,0,0,0-.2,1.21l0,0,0,.05-.16.37a1.59,1.59,0,0,1-.87-.25,3.05,3.05,0,0,1,0-1.21,6.18,6.18,0,0,1,.43-.9m1.14-.34h0l0,0h0ZM20.13,6.34s.45-.24,1-.49l.46-.21.22-.11a3.61,3.61,0,0,1,.77-.29h0v0s0,0-.24.15l-.44.22-.37.2-1.08.52-.55.28-.83.47c.2-.28.22-.31,1.08-.76m23,17.12a4.65,4.65,0,0,0,.65-1.78h0c.68,0,.85.25.89.4s.07.24-.14,1.39l0,0c-.35.29-.35.29-.43.93,0,.26,0,.53-.07.79a.49.49,0,0,1-.15.24,1.9,1.9,0,0,1-.92-.58c0-.3,0-.58,0-.88a1,1,0,0,1,.13-.49m4.66-3.05,0,0h0ZM48.1,18h.22c.57,0,.63.15.71.37a1.75,1.75,0,0,1,.1.63c0,.42-.28.78-.32,1.19s.13.66.1,1c0,0,0,0,0,0a.37.37,0,0,1-.19.24l-.56-.34S48,21.09,48,21a1.8,1.8,0,0,1-.13-1.44A2.62,2.62,0,0,0,48.1,18M36.42,21.46Zm0,0Zm0,0v0a0,0,0,0,1,0,0Zm-.34-1.72c.08-.18,0-.39.12-.57v0a.21.21,0,0,1,.17-.08,1.67,1.67,0,0,1,.72.35,2.83,2.83,0,0,1,.07.3,1.14,1.14,0,0,1-.08.49c-.18.39-.56.65-.71,1.06,0,.08.06.15,0,.23a1.36,1.36,0,0,0-.14.35.45.45,0,0,0,0,.12.53.53,0,0,0,.07.26l-.29.46-.84-.53A2.33,2.33,0,0,1,35.26,21c.17-.51.61-.85.81-1.35m.26,2.52h0l0,0h0ZM55,20.56a.67.67,0,0,1,.27,0,.78.78,0,0,1,.47.16l.35.6a.41.41,0,0,0,0,.09l0,0c0,.45-.17.88-.2,1.33a4.06,4.06,0,0,0,.06.91c.07.44.07.44,0,.51-.64-.26-.81-.32-.93-.73a2,2,0,0,1-.1-1.2,2.44,2.44,0,0,0,0-1.58m6.61,2.59c.58.1.6.13.75.47a3.2,3.2,0,0,1,.23.84c0,.37-.07.74-.06,1.11l-.06,0-.75.4c0-.05,0-.11,0-.16,0-.37,0-.81-.1-1.29l0,0,0,0c.27-.46-.06-.92,0-1.38m-36-12.25a1.74,1.74,0,0,0,.65-.81v0l0,0,.28-.33.52.08-.06.18c0,.06-.74,1.15-.75,1.16s-.07,0-.11,0a2,2,0,0,0-.7.72.79.79,0,0,1-.35.33l-.33-.34a2.31,2.31,0,0,1,.81-1m.7.25h0Zm9,3.5a1.87,1.87,0,0,0,.34-.91s0-.06,0-.08a.34.34,0,0,1,.08-.09,1.26,1.26,0,0,1,.74.13v.12a2.07,2.07,0,0,1-.08.83.73.73,0,0,1,0,.09c-.13.29-.39.48-.53.76a1.48,1.48,0,0,0-.19.65c0,.09,0,.09,0,.12a1.27,1.27,0,0,1-.14.17l-.81-.16a5.59,5.59,0,0,1,.17-1,5,5,0,0,1,.48-.65M23,8.76c.21-.16.38-.38.59-.55h0A1.31,1.31,0,0,1,23.84,8l.27.08h.05c-.25.26-.48.55-.75.8s-.47.34-.7.52a5.45,5.45,0,0,0-.82.75.22.22,0,0,1-.06.07.67.67,0,0,1-.12.06c-.34-.18-.25-.27.17-.72A7.67,7.67,0,0,1,23,8.76m7.42,4.1a3.54,3.54,0,0,0,.53-1,.36.36,0,0,1,0-.11.63.63,0,0,1,.11-.12,1.06,1.06,0,0,1,.61.09h0a3.37,3.37,0,0,1-.32,1c-.18.32-.48.55-.69.85a4.73,4.73,0,0,0-.38.65l-.61-.21a1.09,1.09,0,0,1,.14-.65,4.14,4.14,0,0,1,.53-.58m-.85,5.5h0l-.05,0v0Zm-1.13-.22a7.83,7.83,0,0,1,.58-.69,5.36,5.36,0,0,0,.47-.84,2.43,2.43,0,0,1,.67.4l.05,0c-.05.21-.13.49-.19.74l-.07,0a.66.66,0,0,0-.16.11l0,.05a1.2,1.2,0,0,0-.19.33c-.07.15-.25.16-.33.29a1.51,1.51,0,0,0-.19.58,1.19,1.19,0,0,1-.34.69c-.63-.43-.73-.49-.69-.67a7.67,7.67,0,0,1,.43-1.06M30,17.78l0,0h0Zm4.63-4.4c.82.14.82.14.83.32a1.29,1.29,0,0,1-.09.56,1.3,1.3,0,0,1-.25.39,1.7,1.7,0,0,0-.56,1.18s0,0-.14.35a1.15,1.15,0,0,1-.8-.2,1.89,1.89,0,0,1,.56-1.58,1.67,1.67,0,0,0,.45-1m-5.4-.7h0l0,0,0,0m-.54.84h0v0ZM28.83,12l.4-.59.25,0a.53.53,0,0,1,.34.11s.05,0,.06.06a1.52,1.52,0,0,1-.27.6l-.11.16-.2.27c-.14.19-.37.29-.49.5a.85.85,0,0,0-.09.34c0,.07,0,.07-.3.43a1.72,1.72,0,0,1-.65-.2,3.11,3.11,0,0,1,.39-.93,9.19,9.19,0,0,1,.67-.73m.51.65a1.21,1.21,0,0,0,.47-.52l.32-.57v0h.21a.65.65,0,0,1,.42.12,1.36,1.36,0,0,1,0,.2,1.65,1.65,0,0,1-.22.59c-.06.08-.1.14-.18.23a3.93,3.93,0,0,0-.93,1.39l-.64-.13c-.05-.37-.05-.41-.05-.41.45-.79.56-.84.61-.87m-.12.06,0,0h0l0,0m-.49.81h0v0ZM25.87,3.34l-.61.16c-.9.24-1.65.45-2.8.84A35.71,35.71,0,0,1,26.3,3.23l-.43.11m7,10.91h0v0h0Zm.39-.49,0,0h0Zm-.69,1.09h0v0h0v0h0Zm0,0a5,5,0,0,1,.28-.57c0-.07.15-.07.21-.12s.08-.09.21-.4c.13,0,.13,0,.29-.3l.17-.19.62.11a.78.78,0,0,1,0,.22.63.63,0,0,1-.06.34c-.2.35-.53.61-.71,1a1.83,1.83,0,0,0-.15.58,2.54,2.54,0,0,1-.16.52c-.32,0-.35-.05-.76-.36a2.69,2.69,0,0,1,0-.39c0-.35,0-.35,0-.41m-10-10.27Zm-.71.25Zm.71-.25h0m-.72.26h0Zm1.29-.47-.05,0h.05Zm0-.07.18-.06a3.14,3.14,0,0,1,.5-.15l-.71.28-.08,0c-1,.37-1.57.56-2,.74h0l0,0-.09,0-.62.26A4.74,4.74,0,0,1,21.28,5c.63-.23,1.25-.47,1.89-.69m5,12.41.35-.53c.43,0,.66.14.7.33a1.72,1.72,0,0,1-.25.74c-.21.34-.54.59-.76.93a3.29,3.29,0,0,0-.31.74.42.42,0,0,1,0,.12c0,.06-.1.08-.14.12-1.14-.5-.72-1,.19-2,.26-.29.3-.34.26-.46m0,0h0v0h0ZM27,18.35h0v0ZM16.34,7.12l0,0h0l0,0m1.48-.8c.59-.29,1.09-.51,1.18-.54a4,4,0,0,1-.71.37h0l0,0-.14.07a27.79,27.79,0,0,0-2.5,1.28,9.16,9.16,0,0,1,1-.6l1.15-.57m11.19,5,0,.12a1.15,1.15,0,0,1-.15.33c-.17.24-.42.42-.61.65a3.25,3.25,0,0,0-.54.92l-.05.13c-.05.06-.11.1-.17.16l-.61-.11c.32-1,.32-1,1.6-2.31l.56.11M23.13,17v0h0v0h0Zm1.36-2.19,0,.13a2.12,2.12,0,0,1-.63.84c-.78.78-.74,1.07-.71,1.22l-.05,0-.34.31a1.14,1.14,0,0,1-.47-.45c.17-.71.17-.71,1.81-2.47l.42.38m10,4.85v0h0Zm0,0c.22,0,.22,0,.54-.93l.83.14a2.69,2.69,0,0,1,0,.32,1,1,0,0,1-.06.51c-.17.39-.53.64-.71,1a5.35,5.35,0,0,0-.34,1.13,1.37,1.37,0,0,1-.92-.61,6.16,6.16,0,0,1,.17-1c.25-.1.28-.2.44-.6m-.48.61,0,0h0m13.72.14h0l0,0h0l0,0h0Zm-1.22-.48h0l0,0,0,0Zm.13-1,0,0,.1-.11c.19-.26.22-.33.31-.95h.18c.22,0,.56.05.66.34a1.12,1.12,0,0,1,.06.46c-.06.41-.31.76-.35,1.17a.84.84,0,0,0,.15.58c-.05.15-.1.31-.16.46l-.72-.36s-.07,0-.08,0l-.25-.54a.57.57,0,0,1,0-.13c.06-.39.1-.76.12-.89m-3.28,2.71c0,.07,0,.15,0,.22a1.44,1.44,0,0,1,0,.54,1.61,1.61,0,0,1-.24.52,2.31,2.31,0,0,0-.32.7c-.1.37-.09.76-.18,1.13L42,24.3a.59.59,0,0,1-.19-.11,1.78,1.78,0,0,1-.11-.53c0-.34,0-.34.89-2.24l.81.17M14.63,10.75l0,0h0l0,0m2-1.78.19.08-.11.1-.22.18-.18.13L16,9.67c-.23.14-.46.29-.68.45a4.32,4.32,0,0,0-.69.58.63.63,0,0,1-.12.11l-.46.33C14,11,13.88,10.72,16.67,9M24,9.83h0Zm-.77.67h0l0,0h0Zm-.41.55h0v0Zm.34-.37c0-.06,0-.13.07-.18l.23-.24.06,0a1.06,1.06,0,0,0,.35-.26A1.06,1.06,0,0,1,24,9.83s.12,0,.16-.07.27-.29.47-.36h0a.51.51,0,0,1,.3.07.18.18,0,0,1,0,.1.76.76,0,0,1-.19.27l0,0c-.25.24-.55.43-.8.67a5.17,5.17,0,0,0-.65.77.54.54,0,0,1-.12.11.74.74,0,0,1-.22,0c-.12,0-.24,0-.23-.18a.4.4,0,0,1,0-.22c.1-.14.25-.23.34-.37m.32-.43h0Zm2.85-.16v0Zm-1.53.71a6.47,6.47,0,0,0,1.06-1.07l0-.06a.55.55,0,0,1,.2,0,.46.46,0,0,1,.29.11c0,.08,0,.17,0,.31s-.09.11-.13.15A12.12,12.12,0,0,0,25,11.43a1.89,1.89,0,0,1-.4.4l-.45-.11a1.73,1.73,0,0,1,.64-.92M15.59,8.3h0l0,0m.68-.38h0Zm-1.19.52c.84-.54,2-1.11,2.13-1.19a.3.3,0,0,1-.18.2s-.72.45-.82.49-.86.48-.87.48c-.43.27-.83.58-1.26.85a2.89,2.89,0,0,1,1-.83m25.11,7,.69.12a1.34,1.34,0,0,1,.08.26,1,1,0,0,1,0,.35,6.86,6.86,0,0,1-.4.76A2.53,2.53,0,0,0,40.38,18c0,.14,0,.14,0,.16a1.4,1.4,0,0,1-.09.17c-.86-.23-.87-.47-.89-.84a1.82,1.82,0,0,1,.12-.74,13.47,13.47,0,0,1,.67-1.31m-17.74-.6h0l0,0h0Zm-.16.21c.18-.22.18-.22.24-.25a.79.79,0,0,0,.26-.23c.14-.17.24-.38.39-.56l.18-.18c.17.09.41.2.41.43a1.24,1.24,0,0,1-.26.53L23.4,15a13,13,0,0,0-.94,1c-.09.14-.16.29-.25.43a2.41,2.41,0,0,1-.21.24c-.48-.43-.5-.45-.38-.7a4.54,4.54,0,0,1,.67-.88m-1-5.67h0ZM21.88,9c.06,0,.14-.06.2-.1s.08,0,.4-.31h0a1.14,1.14,0,0,0,.22-.12L23,8.15,23.19,8a.42.42,0,0,1,.14,0,.35.35,0,0,1,.25.11l-.06.07a5.25,5.25,0,0,1-.59.57c-.29.23-.62.41-.91.64a5.6,5.6,0,0,0-.58.55l-.27-.21.16-.29c.05,0,.53-.44.55-.45m0,0,0,0h0l0,0M60.64,23.1v0A.67.67,0,0,1,60.7,23l.57.12.13.23a1.7,1.7,0,0,1,.16.52c0,.24,0,.49.07.74l0,0,0,.07A1.59,1.59,0,0,0,61.75,26l-.11.06h-.1c-.41,0-.8-.61-.82-.68a2.76,2.76,0,0,1-.11-.69c0-.33.1-.65.09-1s-.07-.41-.06-.62M22.2,6.63l0,0h0l0,0m-2.1,1,2-1.14.12,0,.08,0s0,0,0,.1a.44.44,0,0,1-.15.12c-1.75,1.06-1.75,1.06-2.45,1.54,0-.23,0-.3.46-.62m4.63,2.44c.16-.14.29-.3.45-.44a.71.71,0,0,1,.14-.1l.42.08c0,.05-.06.13-.1.22a1.89,1.89,0,0,1-.24.33c-.23.24-.51.42-.75.65s-.39.51-.62.73a.88.88,0,0,1-.15.12l-.45-.09a2.36,2.36,0,0,1,.5-.8c.25-.26.54-.47.8-.7M22.38,5.14s0,.05,0,.08l-.22.11-.41.2-.22.11-.46.21c-.77.37-.9.43-1.74.87.23-.32.45-.44,3-1.58M21.9,8.93h0l0,0s0,0,0,0Zm-.09-.39A3.29,3.29,0,0,0,22.52,8h0l0,0,.28-.18.27.09h0l-.74.64a1.47,1.47,0,0,0-.15.09l-.05,0c-.09.06-.18.14-.29.23s-.22.11-.33.19a1.32,1.32,0,0,0-.25.29h0v0l-.05,0L21,9.67l-.31-.14a3.9,3.9,0,0,1,1.15-1m.67,0h0s0,0,0,0ZM22.53,8h0Zm0,0ZM49.77,25.39a2.34,2.34,0,0,0,.21-.57h0l.18-.56.79.15c0,.08.07.18.1.29a.93.93,0,0,1,0,.41,6.21,6.21,0,0,1-.37.93,2.46,2.46,0,0,0-.11,1.13c0,.15,0,.15,0,.17a1.11,1.11,0,0,1-.14.29l-.86-.59a3.14,3.14,0,0,1-.06-1.12,1.25,1.25,0,0,1,.22-.54M15.69,13.29h0v0Zm-.19-.39a2.49,2.49,0,0,1,.44-.62,10.64,10.64,0,0,1,1.8-1.41L18,11l-.38.42h0l-.1.06a6.07,6.07,0,0,0-1.85,1.77c-.19-.21-.22-.24-.18-.38M57.55,27.3c.41,0,.67.1.78.33l-.49.21-.56.24c.08-.26.16-.52.23-.78h0m-37.69-14h0l0,0s0,0,0,0m.16-.91c.17.11.33.22.22.43a2.38,2.38,0,0,1-.29.37l-.11.12-.07,0a1.12,1.12,0,0,0-.16.1l-.05,0a3.43,3.43,0,0,0-.28.31c-.07.08-.18.09-.25.17-.27.3-.44.67-.72,1a.56.56,0,0,1-.3-.52c.52-.76.52-.76,2-2m-.76,1.42h0Zm34.62,7.65a6.49,6.49,0,0,0,.17-1.09,2.3,2.3,0,0,1,.63.07c.11.23.18.39.22.5a.94.94,0,0,1,.08.28,5.78,5.78,0,0,1-.19.92,2.41,2.41,0,0,0,0,.94.78.78,0,0,1,0,.13,1.29,1.29,0,0,1-.06.21c-.81-.26-.9-.62-.95-.83a1.79,1.79,0,0,1-.06-.68,2.72,2.72,0,0,1,.09-.45m-40-11.72Zm0,0h0l0,0h0ZM15.4,8.64,16.5,8a3.32,3.32,0,0,1,.79-.41s0,0,0,0-.2.11-.23.23l-.64.41c-.84.51-1.71,1-2.56,1.48l.3-.22c.76-.56,1-.73,1.22-.84m8.09,1.61h0l0,0v0ZM24,9.82h0Zm-.81.68,0,0,0,0h0Zm.1-.77A7.2,7.2,0,0,1,24,9.28h.07c.09,0,.25,0,.3.09l0,.05-.4.42-.05,0-.15.08,0,0a2.81,2.81,0,0,0-.27.26c-.06.06-.15.06-.2.13s-.06.14-.12.2a1.68,1.68,0,0,0-.26.28.9.9,0,0,0-.07.14.22.22,0,0,1-.05.08c-.17.14-.27.22-.35.22s-.15-.08-.25-.26a3.83,3.83,0,0,1,1.14-1.29m-.5,1.3h0v0h0ZM25.57,3.4h0l.31-.07.62-.15-.21.05-.2,0-.42.1c-.77.2-1.49.4-2.5.72.26-.09,1-.35,2.4-.7ZM22.53,8Zm0,0h0Zm-2,1a11.89,11.89,0,0,1,1.84-1.29h.13c.09,0,.19,0,.1.2a.47.47,0,0,1-.18.16A9.53,9.53,0,0,0,20.48,9.5c-.35-.11-.36-.11,0-.47m-2.79,4.61h0Zm.33-.37c.42-.39.89-.73,1.29-1.15.05,0,.1-.12.16-.17a.41.41,0,0,1,.2-.1l.2.29-.11.21a1.67,1.67,0,0,1-.25.31c-.29.29-.65.51-.94.8a7.49,7.49,0,0,0-.62.75c-.19-.09-.27-.13-.29-.2a.71.71,0,0,1,.06-.4,3,3,0,0,1,.3-.34m-.48-2.84c.07.27.07.27.05.33a.44.44,0,0,1-.14.17c-.2.16-.38.3-.76.58a3.14,3.14,0,0,0-.64.55c-.06.07-.09.17-.16.24s-.33.25-.5.38c0-.24-.05-.4-.05-.4s.17-.21.35-.4a10.58,10.58,0,0,1,1.85-1.45m-1.64,1.86,0,0h0l0,0M27.45,11.2a.55.55,0,0,1,.31-.08c.16,0,.31.06.34.15s0,.05,0,.07a3.54,3.54,0,0,1-.45.51,3.11,3.11,0,0,0-.6.73c-.09.15-.13.32-.22.47a2.17,2.17,0,0,1-.24.29L26.16,13a1.73,1.73,0,0,1,.16-.49,4.72,4.72,0,0,1,1.13-1.3m5.44,3.05h0l0,0v0Zm-.17-1.13.57.1.1,0c0,.17-.07.34-.11.51l-.06,0a.53.53,0,0,0-.14.1l0,0a1.15,1.15,0,0,0-.16.3c-.06.12-.21.14-.28.25s-.06.16,0,.36h0v0l0,.08-.32.58-.65-.4c.15-1,.15-1,1.14-2m-.13,1.73Zm.72-1.11,0,0h0ZM20.72,6.43Zm.85-.4a1.84,1.84,0,0,0-.15.23s-.11.08-.17.11A15.22,15.22,0,0,0,19.3,7.48a.48.48,0,0,1-.23.09c-.07,0-.07-.05-.07-.05s.19-.37,2.57-1.49m-3.84,7.59,0,0h0v0Zm.49-1.25a2.65,2.65,0,0,0,.59-.57v0l.05-.05.37-.34c.38,0,.32.23.25.34a3.3,3.3,0,0,1-.49.57c-.31.3-.69.52-1,.83a.85.85,0,0,0-.27.45H17.5a.11.11,0,0,1-.09-.06.41.41,0,0,1,0-.44,4.62,4.62,0,0,1,.84-.75m3.34,2.31c1-1,1-1,1.1-1.07h.1a.34.34,0,0,1,.3.14A.53.53,0,0,1,23,14a1.29,1.29,0,0,1-.2.35c-.39.54-.39.54-.46.57a2.09,2.09,0,0,0-.76.81.47.47,0,0,1-.28.24c-.47-.32-.36-.51-.28-.65a3.23,3.23,0,0,1,.53-.62m.91.17h0l0,0,0,0M21.19,8c.39-.24.75-.42.75-.42h0l.23.06h.05c-.48.33-1,.62-1.43,1-.27.21-.52.46-.8.66l-.29-.09A7.18,7.18,0,0,1,21.19,8m.74-1.68c.09,0,.05.09-.1.2l-.38.24-1.66,1-.15.08-.21-.06a10.08,10.08,0,0,1,2.49-1.44ZM20.7,5.72h0l0,0h0Zm0,0h0Zm-.12.06c.22-.11,1.21-.53,1.69-.7,0,0,0,0,0,0l-.3.15-.32.15c-1.42.64-1.42.64-2,.92.1-.18.1-.18.88-.57m.8-.35h0Zm.34.87a.07.07,0,0,1,0,.06l-.35.21c-1.37.77-1.37.77-2,1.15l-.2-.07a10.67,10.67,0,0,1,2.48-1.37l.07,0m-5.35,4.46Zm.07,0a6.59,6.59,0,0,0,1-.75s.2.17,0,.42-.24.22-.3.27c-.33.26-.69.49-1,.75s-.44.44-.68.63h-.1c-.07-.12-.09-.32.18-.58a9.08,9.08,0,0,1,.94-.75m-1.08-.13,1.79-1.26.13,0c.06,0,.11,0,.09.1a3.5,3.5,0,0,1-.63.56c-.47.36-1,.69-1.45,1,0,0,0-.06,0-.06a.9.9,0,0,0-.28.13,1.12,1.12,0,0,1-.26.14,4,4,0,0,1,.65-.62m2.89-4.51h0c.29-.13.68-.31.91-.4,0,0,0,0-.29.15L18.5,6l-.68.33-1.15.57a4.1,4.1,0,0,1-.42.21,21.77,21.77,0,0,1,2-1Zm27.87,11.6a.92.92,0,0,1,.5.12l.11.08c0,.38-.06.64-.11,1l0,0-.06.05c-.26.25-.29.52-.09.94-.07.15-.11.24-.21.24a2.76,2.76,0,0,1-.75-.32c-.27-.84-.25-.86.4-2.11h.18m.4,2.23,0,0h0Zm-6.71-4.41a.65.65,0,0,1,0,.31c-.12.39-.44.68-.56,1.07a1.37,1.37,0,0,0,0,.52.34.34,0,0,1,0,.16v0a.36.36,0,0,1-.19.16l-.72-.41c0-.82,0-.82.76-2,.6,0,.6,0,.8.17M15.9,9.12h0l.76-.44a1.07,1.07,0,0,0-.07.23s0,0-.28.23-.58.36-.86.55c-.11.08-.45.33-1.15.87l0,0c-.05-.26.41-.6,1.67-1.43m18.17,11.1,0,0v0Zm.45-.61,0,0h0Zm-1.24-.24c.21-.28.41-.58.62-.88l.69.12a.92.92,0,0,1,.09.28c0,.14,0,.14-.19.73l-.07,0c-.22.12-.26.23-.38.57-.21,0-.21,0-.43.93l-.85-.51a1.2,1.2,0,0,1,.1-.71,5.84,5.84,0,0,1,.42-.56m-6.29-1h0v0h0Zm-.45-1.21A4.54,4.54,0,0,0,27.42,16a1,1,0,0,1,.72.2c0,.18,0,.42,0,.51v0l-.11.11c-1,1.07-1.13,1.23-1,1.56a.48.48,0,0,1-.24.07.53.53,0,0,1-.29-.11c-.12-.09-.4-.33-.3-.58a3,3,0,0,1,.39-.57M23.21,4.23,23.88,4V4l-.3.1-.24.09-.18.06c-.64.22-1.26.46-1.89.69l-.38.14a6.79,6.79,0,0,1,.81-.36l1.5-.53m-6.83,6.52h0m-.93.24c.09-.08.09-.08,2-1.46.18.05,0,.31-.05.38a9.92,9.92,0,0,1-1.07.87,8.75,8.75,0,0,0-1,.71c-.07-.14-.12-.26.13-.5m-.17-2.83h0l0,0a17.79,17.79,0,0,1,1.87-1h0v0a.87.87,0,0,1-.22.17l-.3.17c-.86.47-.86.47-2.17,1.27a2.59,2.59,0,0,1,.77-.61m26.84,13.2a1,1,0,0,1,0,.53,6,6,0,0,1-.35.72c-.06.13-.06.13-.45,1.26-.89-.39-.92-.65-.92-.67,0-.82.62-1.35.87-2.05l.86.21M21.41,5.42h0Zm-1.05.34c.63-.3,1.23-.54,1.86-.78a.17.17,0,0,0,0,.07L22,5.13s-.63.29-.69.3-.36.15-.67.3l0,0h0l0,0c-.33.13-.63.3-1,.44,0-.08,0-.09.63-.41M56,27.48l0,0h0v0h0Zm-.21.69h0l0,0Zm.23-.69c.26-.08.18-.37.35-.51.63.17.63.17.75.29a.63.63,0,0,1,.11.12s0,.05,0,.07a4.76,4.76,0,0,1-.2.74l-.38.16-.8.33c0-.17,0-.33-.05-.51.21-.12.21-.25.23-.69m-41.11-18c.38-.28,1.24-.8,1.9-1.18,0,.09,0,.13-.15.27a5.69,5.69,0,0,1-.86.59,12.56,12.56,0,0,0-1.42.95,1.27,1.27,0,0,1,.53-.63m1-.36Zm36.63,12.1,0,0c.17-.15.17-.15.4-1.07l.67.15c.07.15.12.26.15.34a.48.48,0,0,1,0,.22,7.4,7.4,0,0,1-.21.81,1.66,1.66,0,0,0,0,.92v0l-.08.12a1.75,1.75,0,0,1-1-.71c0-.07,0-.07,0-.8Zm0,.7ZM37.92,14.09h0s0,0,0,.05v-.05Zm-.45,1.31,0,0h0Zm.25-.74v0h0v0m-.59,1.25v0h0Zm0,0a.43.43,0,0,0,.2-.14l0,0a1.35,1.35,0,0,0,.12-.32c0-.15.22-.18.28-.32a.51.51,0,0,0,0-.38c0-.06,0-.06.11-.46l0-.07a.14.14,0,0,1,0-.06l.24.95.49.24.07,0a.39.39,0,0,1-.06.11,5.93,5.93,0,0,0-.76,1.7l-.51-.3a.94.94,0,0,1-.22-.12L37,16.24v0l.11-.31m22.51,6.84c.34,0,.69.07.79.31a1.23,1.23,0,0,1,.11.39c0,.38-.11,1.89-.11,1.9-.7-.18-.7-.19-.82-.59-.2-.67.11-1.34,0-2M50,24.82Zm-.3-.65c.09.2.13.29.25.58l0,.08-.06.05a1.58,1.58,0,0,0-.48.68,6.71,6.71,0,0,0-.18,1.26c-1-.55-1-.55-1-.88A3.72,3.72,0,0,1,49,24l.71.14M17.39,12.27l0,0h0Zm.63-.48h0l0,0Zm-.55.45a2,2,0,0,0,.5-.4c.09-.09.22-.13.31-.22l.42-.4.33.14c0,.08-.11.2-.2.39a.46.46,0,0,1-.12.12L17.23,13a.35.35,0,0,0-.22-.09l-.2,0a1.91,1.91,0,0,1,.66-.73m1.34-.45v0Zm-1.73-4ZM16,8.55a8.69,8.69,0,0,0,1.12-.74c-.12.29-.12.29-.32.44a3.43,3.43,0,0,1-.35.23L14.7,9.56c0-.27.49-.56,1.26-1M58.79,22.61a.78.78,0,0,1,.54.18l.13.11a11.43,11.43,0,0,0-.06,2.2c-.71-.06-.75-.2-.85-.49a3.21,3.21,0,0,1,0-2h.2m-7.27-2a1.79,1.79,0,0,0,0-.4h0a.8.8,0,0,1,1.06-.09l.1.06s0,.1,0,.13c0,.34-.06.54-.1.89l0,0c-.23.23-.24.32,0,.71h0l0,0v.06c0,.17-.06.24-.21.24a4.47,4.47,0,0,1-.69-.13,3,3,0,0,1-.21-.85,1,1,0,0,1,.11-.51.12.12,0,0,0,0-.07M15.27,8.16Zm0,0h0s0,0,0,0m2.25-1.35a2,2,0,0,1-.31.24,2.09,2.09,0,0,1-.31.19l-.22.11c-.57.3-1.11.65-1.68.94a8.54,8.54,0,0,1,2.52-1.48M55.79,28.15l0,0v0Zm.23-.69,0,0h0Zm-.11-.74.11.07c0,.31,0,.47,0,.68l-.06,0c-.14.13-.15.23-.18.64-.28.09-.12.39-.14.62l-.19.08-.11,0-.42-.29c-.06,0-.15-.07-.19-.13s-.06-.26-.08-.45,0-.13.53-1.82l.75.52M23.83,4l-.39.13-.23.08-1.5.53-.25.08A15.18,15.18,0,0,1,24,3.94L23.83,4M16.58,7.16h0Zm.72-.37,0,0,.8-.4-.19.14-.14.09a4.22,4.22,0,0,1-.53.29l-1.71.91a4.94,4.94,0,0,1,.54-.38c.22-.13.55-.3,1.25-.67m0,0h0Zm8.32-3.42h0Zm1.08-.26-.13,0-.64.16-.31.07-.07,0c-.48.12-1,.26-1.52.42.57-.17,1.11-.32,1.57-.44l1.1-.26M47.31,23.39ZM45.68,24Zm.36-.27c.15-.29.16-.62.29-.91a2.29,2.29,0,0,1,.87.43,1.14,1.14,0,0,1,.11.11l0,.11c-.22.61-.4,1.09-.62,1.66l-.43-.06h0c-.05,0-.05,0-.42.31a2.21,2.21,0,0,1,0-1.38.68.68,0,0,0,.34-.27m-7.27-3.54.77.47.12.07c-.11.3-.14.37-.32.84l0,0,0,0h0a.49.49,0,0,0-.23.25,2.21,2.21,0,0,1-.83.73,5,5,0,0,0-.49.33,2,2,0,0,1,.07-1.07c.21-.59.64-1.06.9-1.62m16,6a.68.68,0,0,1,0,.37,9.79,9.79,0,0,1-.57,1.56l-1-.4a5.45,5.45,0,0,0,.61-2.17,1.57,1.57,0,0,1,.93.64M53.23,27.7h0v0l0,0Zm-34-22.09.33-.14-.29.14-1,.48c-.18.08-.61.28-1.2.58.07,0,.33-.19.87-.45l1.33-.61m-.95.46Zm3.52,7.34.53.09,0,.09a2.44,2.44,0,0,1-.3.51,12.86,12.86,0,0,1-1.26,1.19l-.38-.35a1.69,1.69,0,0,1,.32-.41c.36-.39.75-.74,1.13-1.12m3.75,3.24c.35-.21.35-.21.92-.89h.13a.8.8,0,0,1,.49.14l.07.06a1.49,1.49,0,0,1-.19.43c-.32.51-.83.88-1.1,1.42-.24-.19-.38-.3-.62-.51.14-.3.16-.34.32-.66ZM19.86,5.32l.35-.15-.42.19-.36.15-.1,0c-.71.3-1.14.5-1.58.71l-.05,0h0c.6-.31,1.31-.63,2.13-1M47.31,23.39Zm-.05.9a2,2,0,0,0,.22-.47.6.6,0,0,0-.17-.43c.38.24.89.26,1.18.66l.07.1s0,.07-.05.1a11.2,11.2,0,0,0-.62,1.69c-1.18-.42-1-.83-.86-1.16,0-.11.16-.33.23-.49m-7.52-3.06c.13-.25.23-.29.27-.29h0a1.54,1.54,0,0,1,.75.18l.1.08a.82.82,0,0,1-.06.37c-.13.28-.33.53-.46.82l-.3.69a1.68,1.68,0,0,1-.93-.57c.08-.31.17-.61.25-.91.18-.05.24-.12.37-.37m-.39.37h0l0,0v0h0Zm5.34-4.16.74.16.11,0a.76.76,0,0,1,0,.26c-.06.31-.23.57-.31.88s-.1.48-.15.73l-.79-.23a1.27,1.27,0,0,1-.08-.82,5.45,5.45,0,0,1,.47-1m-11.3,1a.48.48,0,0,1,.07.24.33.33,0,0,1,0,.2c0,.08,0,.08-1.1,1.5a1.63,1.63,0,0,1-.76-.58,9.56,9.56,0,0,1,1.1-1.51l.73.15"/><path class="cls-1" d="M94.31,68V14.13h22.12q14.12.07,21.1,6.87t7,19.71Q144.44,54,137.27,61t-20.84,7Zm16.76-14.35h6c3.48,0,6-1.08,7.67-3.24s2.45-5.34,2.45-9.52c0-3.92-.71-7-2.27-9.13s-4.17-3.27-7.85-3.32h-6Z"/><rect class="cls-1" x="149.42" y="14.13" width="17.14" height="53.91"/><path class="cls-1" d="M207,59.36H190L187.62,68H170.71l17.52-53.91h21.14L226.73,68H209.44ZM193.59,46h9.81L198.5,28.1Z"/><polygon class="cls-1" points="230.88 14.13 248.02 14.13 248.02 53.32 270.6 53.32 269.16 68.04 230.88 68.04 230.88 14.13"/><rect class="cls-1" x="273.24" y="38.14" width="26.95" height="14.34"/><path class="cls-1" d="M335.75,59.36H318.69L316.35,68H299.44L317,14.13h21.14L355.46,68H338.17ZM322.31,46h9.82L327.22,28.1Z"/><rect class="cls-1" x="354.7" y="38.14" width="26.95" height="14.34"/><polygon class="cls-1" points="393.28 28.85 378.26 28.85 378.26 14.13 425.45 14.13 425.45 28.85 410.42 28.85 410.42 68.04 393.28 68.04 393.28 28.85"/><rect class="cls-1" x="429.98" y="14.13" width="17.14" height="53.91"/><path class="cls-1" d="M499.36,31.8a19.29,19.29,0,0,1-2.08,9.29,16.79,16.79,0,0,1-5.85,6.26L502.6,68H485.09l-8.61-17.29h-6V68H454.28V14.13h23.15a33.36,33.36,0,0,1,10.4,1.4,18.4,18.4,0,0,1,6.76,3.77,13.35,13.35,0,0,1,3.67,5.63,21.32,21.32,0,0,1,1.1,6.87m-28.92,6.49h5.71q3.83,0,5.44-1.43a5.49,5.49,0,0,0,1.61-4.31,5.48,5.48,0,0,0-1.61-4.3c-1.08-1-2.89-1.43-5.44-1.43h-5.71Z"/><polygon class="cls-1" points="505.55 14.13 545.64 14.13 545.64 27.34 522.38 27.34 522.38 34.22 544.13 34.22 544.13 47.43 522.38 47.43 522.38 54.83 547.15 54.83 545.87 68.04 505.55 68.04 505.55 14.13"/></svg>