<svg width="420" height="205" viewBox="0 0 420 205" fill="none" xmlns="http://www.w3.org/2000/svg">
  <path d="M20 200C20 95.0659 105.066 10 210 10C314.934 10 400 95.0659 400 200H20Z" fill="#17171C"/>
  <path d="M78 200C78 128.241 136.241 70 208 70C279.759 70 338 128.241 338 200H78Z" fill="#F4F4F4"/>
  <path d="M100 200C100 139.249 149.249 90 210 90C270.751 90 320 139.249 320 200H100Z" fill="#17171C"/>
  <path d="M154 200C154 168.52 179.52 143 211 143C242.48 143 268 168.52 268 200H154Z" fill="#F4F4F4"/>
  <path d="M210 102C224.359 102 236 113.641 236 128C236 142.359 224.359 154 210 154C195.641 154 184 142.359 184 128C184 113.641 195.641 102 210 102Z" fill="#F4F4F4"/>
  <path d="M130 154C130 139.641 141.641 128 156 128C170.359 128 182 139.641 182 154C182 168.359 170.359 180 156 180C141.641 180 130 168.359 130 154Z" fill="#F4F4F4"/>
  <path d="M238 154C238 139.641 249.641 128 264 128C278.359 128 290 139.641 290 154C290 168.359 278.359 180 264 180C249.641 180 238 168.359 238 154Z" fill="#F4F4F4"/>
</svg>
